<?xml version="1.0" encoding="utf-8"?>
<!-- Generator: Adobe Illustrator 23.0.3, SVG Export Plug-In . SVG Version: 6.00 Build 0)  -->
<svg version="1.1" id="Layer_1" xmlns="http://www.w3.org/2000/svg" xmlns:xlink="http://www.w3.org/1999/xlink" x="0px" y="0px"
	 viewBox="0 0 150 150" style="enable-background:new 0 0 150 150;" xml:space="preserve">
<style type="text/css">
	.st0{fill-rule:evenodd;clip-rule:evenodd;fill:none;stroke:#000000;stroke-width:6;stroke-miterlimit:22.9256;}
</style>
<g>
	<path class="st0" d="M98.59,36.09l7.58-7.58c1.89-1.89,4.99-1.89,6.88,0l8.84,8.84c1.89,1.89,1.89,4.99,0,6.88l-7.58,7.58
		c2.27,3.78,4,7.92,5.1,12.3h10.72c2.67,0,4.87,2.19,4.87,4.86v12.5c0,2.67-2.19,4.86-4.87,4.86h-10.72
		c-1.1,4.39-2.84,8.52-5.1,12.3l7.58,7.58c1.89,1.89,1.89,4.99,0,6.88l-8.84,8.84c-1.89,1.89-4.99,1.89-6.88,0l-7.58-7.58
		c-3.78,2.27-7.92,4-12.3,5.1v10.72c0,2.68-2.19,4.87-4.86,4.87h-12.5c-2.67,0-4.86-2.19-4.86-4.87v-10.72
		c-4.39-1.1-8.52-2.83-12.3-5.1l-7.58,7.58c-1.89,1.89-4.99,1.89-6.88,0l-8.84-8.84c-1.89-1.89-1.89-4.99,0-6.88l7.58-7.58
		c-2.27-3.78-4-7.92-5.1-12.3H20.21c-2.67,0-4.87-2.19-4.87-4.86v-12.5c0-2.68,2.19-4.86,4.87-4.86h10.72
		c1.1-4.39,2.83-8.52,5.1-12.3l-7.58-7.58c-1.89-1.89-1.89-4.99,0-6.88l8.84-8.84c1.89-1.89,4.99-1.89,6.88,0l7.58,7.58
		c3.78-2.27,7.92-4,12.3-5.1V20.27c0-2.68,2.19-4.87,4.86-4.87h12.5c2.67,0,4.86,2.19,4.86,4.87v10.72
		C90.68,32.09,94.81,33.82,98.59,36.09z"/>
	<path class="st0" d="M75.17,95.91c11.39,0,20.68-9.29,20.68-20.68c0-11.39-9.29-20.68-20.68-20.68c-11.39,0-20.68,9.29-20.68,20.68
		C54.5,86.62,63.78,95.91,75.17,95.91z"/>
</g>
</svg>
