<?xml version="1.0" encoding="utf-8"?>
<!-- Generator: Adobe Illustrator 23.0.3, SVG Export Plug-In . SVG Version: 6.00 Build 0)  -->
<svg version="1.1" id="Layer_1" xmlns="http://www.w3.org/2000/svg" xmlns:xlink="http://www.w3.org/1999/xlink" x="0px" y="0px"
	 viewBox="0 0 150 150" style="enable-background:new 0 0 150 150;" xml:space="preserve">
<style type="text/css">
	
		.st0{fill-rule:evenodd;clip-rule:evenodd;fill:none;stroke:#000000;stroke-width:6;stroke-linecap:round;stroke-linejoin:round;stroke-miterlimit:22.9256;}
</style>
<g>
	<path class="st0" d="M75.58,66.5l32.28,32.28c-8.56,8.56-20.17,13.37-32.28,13.37c-25.21,0-45.65-20.44-45.65-45.65
		c0-12.1,4.81-23.72,13.37-32.28L75.58,66.5z"/>
	<polyline class="st0" points="65.8,56.72 96.95,44.87 84.67,75.59 	"/>
	<line class="st0" x1="37.56" y1="91.78" x2="37.56" y2="135"/>
	<line class="st0" x1="43.17" y1="98.65" x2="67.4" y2="135"/>
	<line class="st0" x1="24.15" y1="135" x2="80.25" y2="135"/>
	<path class="st0" d="M101.12,29.66c5.65,1.79,9.88,6.5,11.03,12.31"/>
	<path class="st0" d="M103.55,15.01c12.52,3.05,21.86,13.51,23.45,26.3"/>
</g>
</svg>
