<?xml version="1.0" encoding="UTF-8"?>
<!DOCTYPE svg PUBLIC "-//W3C//DTD SVG 1.1//EN" "http://www.w3.org/Graphics/SVG/1.1/DTD/svg11.dtd">
<!-- Creator: CorelDRAW X7 -->
<svg xmlns="http://www.w3.org/2000/svg" xml:space="preserve" width="70px" height="70px" version="1.1" style="shape-rendering:geometricPrecision; text-rendering:geometricPrecision; image-rendering:optimizeQuality; fill-rule:evenodd; clip-rule:evenodd"
viewBox="0 0 70 70"
 xmlns:xlink="http://www.w3.org/1999/xlink">
 <defs>
  <style type="text/css">
   <![CDATA[
    .fil0 {fill:black}
   ]]>
  </style>
 </defs>
 <g id="Layer_x0020_1">
  <metadata id="CorelCorpID_0Corel-Layer"/>
  <g id="_3033684216048">
  </g>
  <g id="_3033684217936">
  </g>
  <g id="_3033684217328">
  </g>
  <g id="_3033684217360">
  </g>
  <g id="_3033684218064">
  </g>
  <g id="_3033684215344">
  </g>
  <g id="_3033684214512">
  </g>
  <g id="_3033684214256">
  </g>
  <g id="_3033684215792">
  </g>
  <g id="_3033684216016">
  </g>
  <g id="_3033684215856">
  </g>
  <g id="_3033684212304">
  </g>
  <g id="_3033684213872">
  </g>
  <g id="_3033684212976">
  </g>
  <g id="_3033684213104">
  </g>
  <g id="_3033684204144">
   <g>
    <g>
     <path class="fil0" d="M67 22c-3,-2 -6,-2 -9,0 0,1 -5,5 -6,6l0 -16c0,-1 0,-3 -1,-4l-6 -6c-1,-1 -3,-1 -4,-1l-34 0c-3,0 -6,2 -6,6l0 55c0,3 3,6 6,6l39 0c4,0 6,-3 6,-6l0 -18 15 -14c2,-2 2,-6 0,-8zm-26 -17c0,0 1,0 1,0l6 6c1,0 0,1 0,1l-7 0 0 -7zm7 57c0,1 0,2 -2,2l-39 0c-1,0 -2,-1 -2,-2l0 -55c0,-2 1,-2 2,-2l30 0 0 9c0,2 1,2 2,2l9 0 0 16c0,0 -5,6 -5,6l-3 2c0,1 -1,1 -1,1l-2 8c-1,1 0,2 0,2 1,1 1,1 2,1l8 -3c1,0 1,0 1,0l0 -1 0 14zm-4 -20l3 2 -1 2 -4 1 1 -4 1 -1zm6 0l-3 -3c1,-2 8,-8 9,-10l3 3 -9 10zm14 -15l-2 2 -3 -2 2 -2c1,-1 2,-1 3,0 1,0 1,2 0,2z"/>
    </g>
   </g>
   <g>
    <g>
     <path class="fil0" d="M39 20l-28 0c-1,0 -2,1 -2,2 0,1 1,2 2,2l28 0c1,0 2,-1 2,-2 0,-1 -1,-2 -2,-2z"/>
    </g>
   </g>
   <g>
    <g>
     <path class="fil0" d="M31 28l-20 0c-1,0 -2,1 -2,2 0,1 1,2 2,2l20 0c1,0 2,-1 2,-2 0,-1 -1,-2 -2,-2z"/>
    </g>
   </g>
   <g>
    <g>
     <path class="fil0" d="M31 36l-20 0c-1,0 -2,1 -2,2 0,1 1,2 2,2l20 0c1,0 2,-1 2,-2 0,-1 -1,-2 -2,-2z"/>
    </g>
   </g>
   <g>
    <g>
     <path class="fil0" d="M31 44l-20 0c-1,0 -2,1 -2,2 0,1 1,2 2,2l20 0c1,0 2,-1 2,-2 0,-1 -1,-2 -2,-2z"/>
    </g>
   </g>
   <g>
    <g>
     <path class="fil0" d="M39 56l-12 0c-1,0 -2,1 -2,2 0,1 1,2 2,2l12 0c1,0 2,-1 2,-2 0,-1 -1,-2 -2,-2z"/>
    </g>
   </g>
   <g>
   </g>
   <g>
   </g>
   <g>
   </g>
   <g>
   </g>
   <g>
   </g>
   <g>
   </g>
   <g>
   </g>
   <g>
   </g>
   <g>
   </g>
   <g>
   </g>
   <g>
   </g>
   <g>
   </g>
   <g>
   </g>
   <g>
   </g>
   <g>
   </g>
  </g>
 </g>
</svg>
