<?xml version="1.0" encoding="UTF-8"?>
<!DOCTYPE svg PUBLIC "-//W3C//DTD SVG 1.1//EN" "http://www.w3.org/Graphics/SVG/1.1/DTD/svg11.dtd">
<!-- Creator: CorelDRAW X7 -->
<svg xmlns="http://www.w3.org/2000/svg" xml:space="preserve" width="70px" height="70px" version="1.1" style="shape-rendering:geometricPrecision; text-rendering:geometricPrecision; image-rendering:optimizeQuality; fill-rule:evenodd; clip-rule:evenodd"
viewBox="0 0 70 70"
 xmlns:xlink="http://www.w3.org/1999/xlink">
 <defs>
  <style type="text/css">
   <![CDATA[
    .str2 {stroke:black;stroke-width:4.8662}
    .str0 {stroke:black;stroke-width:4.8662}
    .str1 {stroke:black;stroke-width:4.8662;stroke-linecap:round;stroke-linejoin:round}
    .fil0 {fill:none}
    .fil1 {fill:black}
   ]]>
  </style>
 </defs>
 <g id="Layer_x0020_1">
  <metadata id="CorelCorpID_0Corel-Layer"/>
  <g id="_3033681245344">
  </g>
  <g id="_3033681245152">
  </g>
  <g id="_3033681245888">
  </g>
  <g id="_3033681246048">
  </g>
  <g id="_3033681245952">
  </g>
  <g id="_3033681244480">
  </g>
  <g id="_3033681244768">
  </g>
  <g id="_3033681243200">
  </g>
  <g id="_3033681243296">
  </g>
  <g id="_3033681244128">
  </g>
  <g id="_3033681244608">
  </g>
  <g id="_3033681241984">
  </g>
  <g id="_3033681240768">
  </g>
  <g id="_3033681242080">
  </g>
  <g id="_3033681242592">
  </g>
  <g id="_3033681241088">
   <g>
    <path class="fil0 str0" d="M66 35c0,-18 -14,-32 -32,-32 -17,0 -31,14 -31,32 0,17 14,31 31,31 18,0 32,-14 32,-31z"/>
   </g>
   <g>
    <path class="fil0 str1" d="M41 11c6,1 12,5 15,11"/>
   </g>
   <g>
    <path class="fil0 str2" d="M23 45c0,2 2,4 5,4 0,0 1,0 2,0l17 -10c2,-1 3,-3 3,-4 0,-2 -1,-3 -3,-4l-17 -10c-1,-1 -2,-1 -2,-1 -3,0 -5,2 -5,5l0 20z"/>
   </g>
  </g>
  <g>
   <g>
    <g>
     <path class="fil1" d="M-9 -5c-2,-2 -6,-2 -9,0 -1,1 -6,6 -6,6l0 -16c0,-2 -1,-4 -2,-5l-6 -6c-1,-1 -3,-2 -5,-2l-36 0c-4,0 -6,3 -6,7l0 59c0,4 2,7 6,7l42 0c4,0 7,-3 7,-7l0 -19 15 -15c3,-2 3,-6 0,-9zm-28 -18c0,0 1,-1 2,0l6 6c1,1 0,2 0,2l-8 0 0 -8zm8 61c0,1 0,2 -2,2l-42 0c-1,0 -2,-1 -2,-2l0 -59c0,-1 1,-2 2,-2l32 0 0 10c0,1 1,2 2,2l10 0 0 17c0,0 -6,6 -6,6l-3 3c0,0 0,0 0,1l-3 9c-1,1 0,1 0,2 1,1 2,1 2,0l9 -3c1,0 1,0 1,0l0 0 0 14zm-4 -22l3 3 -1 2 -5 1 2 -4 1 -2zm6 0l-3 -3c1,-1 8,-8 10,-10l3 3 -10 10zm15 -15l-2 2 -3 -3 2 -2c1,-1 2,-1 3,0 1,1 1,2 0,3z"/>
    </g>
   </g>
   <g>
    <g>
     <path class="fil1" d="M-39 -6l-30 0c-1,0 -2,0 -2,2 0,1 1,2 2,2l30 0c1,0 2,-1 2,-2 0,-2 -1,-2 -2,-2z"/>
    </g>
   </g>
   <g>
    <g>
     <path class="fil1" d="M-48 2l-21 0c-1,0 -2,1 -2,2 0,1 1,2 2,2l21 0c2,0 3,-1 3,-2 0,-1 -1,-2 -3,-2z"/>
    </g>
   </g>
   <g>
    <g>
     <path class="fil1" d="M-48 10l-21 0c-1,0 -2,1 -2,3 0,1 1,2 2,2l21 0c2,0 3,-1 3,-2 0,-2 -1,-3 -3,-3z"/>
    </g>
   </g>
   <g>
    <g>
     <path class="fil1" d="M-48 19l-21 0c-1,0 -2,1 -2,2 0,1 1,2 2,2l21 0c2,0 3,-1 3,-2 0,-1 -1,-2 -3,-2z"/>
    </g>
   </g>
   <g>
    <g>
     <path class="fil1" d="M-39 32l-13 0c-1,0 -2,1 -2,2 0,1 1,2 2,2l13 0c1,0 2,-1 2,-2 0,-1 -1,-2 -2,-2z"/>
    </g>
   </g>
   <g>
   </g>
   <g>
   </g>
   <g>
   </g>
   <g>
   </g>
   <g>
   </g>
   <g>
   </g>
   <g>
   </g>
   <g>
   </g>
   <g>
   </g>
   <g>
   </g>
   <g>
   </g>
   <g>
   </g>
   <g>
   </g>
   <g>
   </g>
   <g>
   </g>
  </g>
 </g>
</svg>
