<svg width="150" height="150" xmlns="http://www.w3.org/2000/svg">
 <!-- Created with Method Draw - http://github.com/duopixel/Method-Draw/ -->

 <g>
  <title>background</title>
  <rect fill="#fff" id="canvas_background" height="152" width="152" y="-1" x="-1"/>
 </g>
 <g>
  <title>Layer 1</title>
  <g stroke="null" id="svg_150">
   <path stroke="null" id="svg_143" d="m50.952637,71.021576c-11.718393,0 -21.218262,9.499869 -21.218262,21.218262s9.499869,21.218262 21.218262,21.218262s21.218262,-9.499869 21.218262,-21.218262s-9.499869,-21.218262 -21.218262,-21.218262zm0,29.17511c-4.387318,0 -7.956848,-3.569531 -7.956848,-7.956848s3.569531,-7.956848 7.956848,-7.956848s7.956848,3.569531 7.956848,7.956848s-3.569531,7.956848 -7.956848,7.956848zm0,0"/>
   <path stroke="null" id="svg_144" d="m50.952637,89.587556c-1.462209,0 -2.652283,1.190074 -2.652283,2.652283s1.190074,2.652283 2.652283,2.652283s2.652283,-1.190074 2.652283,-2.652283s-1.190074,-2.652283 -2.652283,-2.652283zm0,0"/>
   <path stroke="null" id="svg_145" d="m99.047364,52.455597c0,-1.462209 1.190074,-2.652283 2.652283,-2.652283l0,-5.304566c-4.387318,0 -7.956848,3.569531 -7.956848,7.956848l0,7.956848l5.304566,0l0,-7.956848zm0,0"/>
   <path stroke="null" id="svg_146" d="m85.982109,86.935273c3.673826,-6.33716 10.532463,-10.609131 18.369821,-10.609131c3.862386,0 7.486482,1.037429 10.609131,2.848441l0,-2.848441c0,-5.850218 -4.758914,-10.609131 -10.609131,-10.609131l-35.826538,0c-5.039338,-3.349889 -11.081569,-5.304566 -17.572755,-5.304566c-7.380115,0 -14.573741,2.583904 -20.254737,7.27582l3.377516,4.090317c4.733358,-3.908664 10.72724,-6.061571 16.877221,-6.061571c12.808315,0 23.525195,9.126892 25.989608,21.218262l9.039864,0z"/>
   <path stroke="null" id="svg_147" d="m83.805027,92.239838l-6.329562,0l0,7.956848l5.823971,0c-0.10913,-0.868899 -0.165768,-1.754375 -0.165768,-2.652283c0,-1.831042 0.233456,-3.60821 0.671359,-5.304566zm0,0"/>
   <path stroke="null" id="svg_148" d="m104.35193,81.630707c-8.78914,0 -15.913697,7.124556 -15.913697,15.913697s7.124556,15.913697 15.913697,15.913697s15.913697,-7.124556 15.913697,-15.913697s-7.124556,-15.913697 -15.913697,-15.913697zm0,18.565979c-1.464972,0 -2.652283,-1.187311 -2.652283,-2.652283s1.187311,-2.652283 2.652283,-2.652283s2.652283,1.187311 2.652283,2.652283s-1.187311,2.652283 -2.652283,2.652283zm0,0"/>
   <path stroke="null" id="svg_149" d="m42.995789,55.973325c2.59979,-0.571208 5.267268,-0.865445 7.956848,-0.865445c6.769537,0 13.340153,1.82897 19.108178,5.304566l10.332161,0l-4.87357,-18.565979l4.608341,0l0,-5.304566l-42.436524,0l0,5.304566l5.304566,0l0,14.126859zm0,0"/>
  </g>
 </g>
</svg>