<?xml version="1.0" encoding="utf-8"?>
<!-- Generator: Adobe Illustrator 23.0.3, SVG Export Plug-In . SVG Version: 6.00 Build 0)  -->
<svg version="1.1" id="Layer_1" xmlns="http://www.w3.org/2000/svg" xmlns:xlink="http://www.w3.org/1999/xlink" x="0px" y="0px"
	 viewBox="0 0 150 150" style="enable-background:new 0 0 150 150;" xml:space="preserve">
<style type="text/css">
	
		.st0{fill-rule:evenodd;clip-rule:evenodd;fill:none;stroke:#000000;stroke-width:6;stroke-linecap:round;stroke-linejoin:round;stroke-miterlimit:22.9256;}
	
		.st1{fill-rule:evenodd;clip-rule:evenodd;stroke:#000000;stroke-width:6;stroke-linecap:round;stroke-linejoin:round;stroke-miterlimit:22.9256;}
</style>
<path class="st0" d="M43.97,123.64c14.28,0,25.92-11.65,25.92-25.92S58.24,71.8,43.97,71.8c-14.28,0-25.92,11.64-25.92,25.92
	S29.69,123.64,43.97,123.64z"/>
<path class="st0" d="M43.97,106.3c4.72,0,8.58-3.85,8.58-8.58s-3.85-8.58-8.58-8.58c-4.73,0-8.58,3.85-8.58,8.58
	S39.24,106.3,43.97,106.3z"/>
<path class="st0" d="M116.89,123.64c9.97,0,18.11-8.14,18.11-18.11s-8.13-18.11-18.11-18.11c-9.97,0-18.11,8.13-18.11,18.11
	S106.92,123.64,116.89,123.64z"/>
<path class="st1" d="M116.89,108.95c1.88,0,3.41-1.54,3.41-3.42s-1.53-3.41-3.41-3.41c-1.88,0-3.41,1.53-3.41,3.41
	S115.01,108.95,116.89,108.95z"/>
<path class="st0" d="M15.66,69.41c7.51-7.51,17.69-11.73,28.31-11.73C66.08,57.69,84,75.61,84,97.72c0,2.39-0.21,4.77-0.64,7.12
	h15.43"/>
<line class="st0" x1="118.22" y1="87.48" x2="82.87" y2="87.48"/>
<line class="st0" x1="26.3" y1="29.1" x2="83.86" y2="29.1"/>
<line class="st0" x1="35.99" y1="58.49" x2="35.99" y2="29.1"/>
<path class="st0" d="M126.36,89.33v-9.91c0-8.49-6.95-15.44-15.44-15.44H67.09"/>
<line class="st0" x1="73.77" y1="29.1" x2="82.51" y2="61.73"/>
<path class="st0" d="M106.17,63.98V42.83c0-4.3,3.52-7.82,7.82-7.82"/>
</svg>
