<svg width="150" height="150" xmlns="http://www.w3.org/2000/svg">
 <!-- Created with Method Draw - http://github.com/duopixel/Method-Draw/ -->

 <g>
  <title>background</title>
  <rect fill="#fff" id="canvas_background" height="152" width="152" y="-1" x="-1"/>
 </g>
 <g>
  <title>Layer 1</title>
  <g stroke="null" id="svg_64">
   <path stroke="null" id="svg_60" d="m64.718152,44.040276l11.687179,-11.687179l-1.948461,-1.947744c-3.222565,-3.222565 -8.463179,-3.222565 -11.686462,0c-3.222565,3.223283 -3.222565,8.463897 0,11.686462l1.947744,1.948461zm0,0"/>
   <path stroke="null" id="svg_61" d="m121.207739,88.842685c0.839359,-0.839359 1.046688,-2.11992 0.516529,-3.179521l-6.902832,-13.809252l-10.602469,10.602469l13.809251,6.902832c1.057449,0.528724 2.338727,0.324265 3.179521,-0.516529zm0,0"/>
   <path stroke="null" id="svg_62" d="m99.780407,79.103966l11.688614,-11.688614c-0.531594,-0.532311 -29.293634,-29.292199 -31.168203,-31.167485l-11.687897,11.687897c0.558855,0.558855 33.250818,33.252253 31.167486,31.168203zm0,0"/>
   <path stroke="null" id="svg_63" d="m30.739172,122.014588l8.631769,0l0,-2.75482c0,-1.522325 1.231777,-2.75482 2.75482,-2.75482c1.522325,0 2.75482,1.232495 2.75482,2.75482l0,2.75482l5.50964,0l0,-2.75482c0,-1.522325 1.231777,-2.75482 2.75482,-2.75482c1.522325,0 2.75482,1.232495 2.75482,2.75482l0,2.75482l5.50964,0l0,-2.75482c0,-1.522325 1.231777,-2.75482 2.75482,-2.75482c1.522325,0 2.75482,1.232495 2.75482,2.75482l0,2.75482l5.50964,0l0,-2.75482c0,-1.522325 1.231777,-2.75482 2.75482,-2.75482c1.522325,0 2.75482,1.232495 2.75482,2.75482l0,2.75482l5.50964,0l0,-2.75482c0,-1.522325 1.231777,-2.75482 2.75482,-2.75482c1.522325,0 2.75482,1.232495 2.75482,2.75482l0,2.75482l5.508922,0l0,-2.75482c0,-1.522325 1.232495,-2.75482 2.75482,-2.75482c1.523042,0 2.75482,1.232495 2.75482,2.75482l0,2.75482l19.283738,0c1.114124,0 2.11992,-0.669335 2.545339,-1.70024c0.427571,-1.030188 0.190829,-2.2139 -0.597595,-3.002323l-88.520824,-88.520824c-0.785554,-0.785554 -1.966396,-1.022297 -3.002323,-0.596878c-1.030188,0.424701 -1.70024,1.431215 -1.70024,2.544621l0,19.283738l2.75482,0c1.522325,0 2.75482,1.231777 2.75482,2.75482c0,1.522325 -1.232495,2.75482 -2.75482,2.75482l-2.75482,0l0,11.019279l2.75482,0c1.522325,0 2.75482,1.231777 2.75482,2.75482c0,1.522325 -1.232495,2.75482 -2.75482,2.75482l-2.75482,0l0,11.019279l2.75482,0c1.522325,0 2.75482,1.231777 2.75482,2.75482c0,1.522325 -1.232495,2.75482 -2.75482,2.75482l-2.75482,0l0,11.019279l2.75482,0c1.522325,0 2.75482,1.231777 2.75482,2.75482c0,1.522325 -1.232495,2.75482 -2.75482,2.75482l-2.75482,0l0,14.140691c0,1.523042 1.231777,2.75482 2.75482,2.75482zm14.141408,-51.370932c0,-1.114124 0.669335,-2.11992 1.70024,-2.545339c1.030188,-0.421832 2.216769,-0.187959 3.002323,0.597595l31.720602,31.720602c0.788424,0.788424 1.025166,1.972135 0.597595,3.002323c-0.425419,1.030188 -1.431215,1.70024 -2.545339,1.70024l-31.720602,0c-1.523042,0 -2.75482,-1.231778 -2.75482,-2.75482l0,-31.720602zm0,0"/>
  </g>
 </g>
</svg>