<?xml version="1.0" encoding="utf-8"?>
<!-- Generator: Adobe Illustrator 23.0.3, SVG Export Plug-In . SVG Version: 6.00 Build 0)  -->
<svg version="1.1" id="Layer_1" xmlns="http://www.w3.org/2000/svg" xmlns:xlink="http://www.w3.org/1999/xlink" x="0px" y="0px"
	 viewBox="0 0 150 150" style="enable-background:new 0 0 150 150;" xml:space="preserve">
<style type="text/css">
	
		.st0{fill-rule:evenodd;clip-rule:evenodd;fill:none;stroke:#000000;stroke-width:6;stroke-linecap:round;stroke-linejoin:round;stroke-miterlimit:22.9256;}
</style>
<g>
	<g>
		<path class="st0" d="M67.75,135H38.53c-1.38,0-2.5-1.13-2.5-2.5V17.1c0-1.38,1.12-2.5,2.5-2.5h29.23c1.38,0,2.5,1.12,2.5,2.5
			v115.4C70.25,133.87,69.13,135,67.75,135z"/>
		<line class="st0" x1="70.25" y1="41.16" x2="52.67" y2="41.16"/>
		<line class="st0" x1="70.25" y1="52.37" x2="60.05" y2="52.37"/>
		<line class="st0" x1="70.25" y1="63.58" x2="60.05" y2="63.58"/>
		<line class="st0" x1="70.25" y1="74.8" x2="52.67" y2="74.8"/>
		<line class="st0" x1="70.25" y1="108.44" x2="52.67" y2="108.44"/>
		<line class="st0" x1="70.25" y1="86.01" x2="60.05" y2="86.01"/>
		<line class="st0" x1="70.25" y1="97.23" x2="60.05" y2="97.23"/>
		<line class="st0" x1="70.25" y1="29.94" x2="60.05" y2="29.94"/>
		<line class="st0" x1="70.25" y1="119.65" x2="60.05" y2="119.65"/>
	</g>
	<path class="st0" d="M100.92,135L100.92,135c7.53,0,13.69-6.16,13.69-13.69V37.95H87.23v83.36C87.23,128.84,93.39,135,100.92,135z"
		/>
	<line class="st0" x1="114.6" y1="114.02" x2="87.23" y2="114.02"/>
	<polyline class="st0" points="114.6,37.95 100.92,14.6 87.23,37.95 	"/>
</g>
</svg>
