<svg width="150" height="150" xmlns="http://www.w3.org/2000/svg">
 <!-- Created with Method Draw - http://github.com/duopixel/Method-Draw/ -->

 <g>
  <title>background</title>
  <rect fill="#fff" id="canvas_background" height="152" width="152" y="-1" x="-1"/>
 </g>
 <g>
  <title>Layer 1</title>
  <g stroke="null" id="svg_112">
   <g stroke="null" transform="matrix(0.16283700949887303,0,0,0.16283700949887303,-91.24123752206187,-222.41656504951737) " id="svg_91">
    <path stroke="null" id="svg_92" d="m1302.998696,1553.93685l-564.187,0c-10.566,0 -19.125,8.558 -19.125,19.124l0,372.938c0,10.566 8.559,19.125 19.125,19.125l564.188,0c10.566,0 19.125,-8.559 19.125,-19.125l0,-372.938c0,-10.566 -8.559,-19.124 -19.126,-19.124zm-28.687,382.5l-47.812,0l0,-19.125l47.812,0l0,19.125zm0,-38.25l-506.813,0l0,-296.438l506.812,0l0,296.438l0.001,0z"/>
    <polygon stroke="null" id="svg_93" points="872.6866714032549,2070.310791015625 872.6866714032549,2098.998779296875 1188.2488662274736,2098.998779296875 1188.2488662274736,2070.310791015625 1130.8748427899736,2032.060791015625 930.0616714032549,2032.060791015625 "/>
    <rect stroke="null" id="svg_94" height="28.688" width="200.812" y="1984.24885" x="930.061696"/>
    <polygon stroke="null" id="svg_95" points="889.0766860516924,1620.873779296875 786.6246596845049,1692.477783203125 786.6246596845049,1725.516845703125 936.3536635907549,1620.873779296875 "/>
    <polygon stroke="null" id="svg_96" points="1255.1867324384111,1620.873779296875 978.8876601727861,1620.873779296875 786.6246596845049,1755.245849609375 786.6246596845049,1879.060791015625 1255.1867324384111,1879.060791015625 "/>
   </g>
   <g stroke="null" transform="matrix(0.16283700949887303,0,0,0.16283700949887303,-91.24123752206187,-222.41656504951737) " id="svg_97"/>
   <g stroke="null" transform="matrix(0.16283700949887303,0,0,0.16283700949887303,-91.24123752206187,-222.41656504951737) " id="svg_98"/>
   <g stroke="null" transform="matrix(0.16283700949887303,0,0,0.16283700949887303,-91.24123752206187,-222.41656504951737) " id="svg_99"/>
   <g stroke="null" transform="matrix(0.16283700949887303,0,0,0.16283700949887303,-91.24123752206187,-222.41656504951737) " id="svg_100"/>
   <g stroke="null" transform="matrix(0.16283700949887303,0,0,0.16283700949887303,-91.24123752206187,-222.41656504951737) " id="svg_101"/>
   <g stroke="null" transform="matrix(0.16283700949887303,0,0,0.16283700949887303,-91.24123752206187,-222.41656504951737) " id="svg_102"/>
   <g stroke="null" transform="matrix(0.16283700949887303,0,0,0.16283700949887303,-91.24123752206187,-222.41656504951737) " id="svg_103"/>
   <g stroke="null" transform="matrix(0.16283700949887303,0,0,0.16283700949887303,-91.24123752206187,-222.41656504951737) " id="svg_104"/>
   <g stroke="null" transform="matrix(0.16283700949887303,0,0,0.16283700949887303,-91.24123752206187,-222.41656504951737) " id="svg_105"/>
   <g stroke="null" transform="matrix(0.16283700949887303,0,0,0.16283700949887303,-91.24123752206187,-222.41656504951737) " id="svg_106"/>
   <g stroke="null" transform="matrix(0.16283700949887303,0,0,0.16283700949887303,-91.24123752206187,-222.41656504951737) " id="svg_107"/>
   <g stroke="null" transform="matrix(0.16283700949887303,0,0,0.16283700949887303,-91.24123752206187,-222.41656504951737) " id="svg_108"/>
   <g stroke="null" transform="matrix(0.16283700949887303,0,0,0.16283700949887303,-91.24123752206187,-222.41656504951737) " id="svg_109"/>
   <g stroke="null" transform="matrix(0.16283700949887303,0,0,0.16283700949887303,-91.24123752206187,-222.41656504951737) " id="svg_110"/>
   <g stroke="null" transform="matrix(0.16283700949887303,0,0,0.16283700949887303,-91.24123752206187,-222.41656504951737) " id="svg_111"/>
  </g>
 </g>
</svg>