<?xml version="1.0" encoding="utf-8"?>
<!-- Generator: Adobe Illustrator 23.0.3, SVG Export Plug-In . SVG Version: 6.00 Build 0)  -->
<svg version="1.1" id="Layer_1" xmlns="http://www.w3.org/2000/svg" xmlns:xlink="http://www.w3.org/1999/xlink" x="0px" y="0px"
	 viewBox="0 0 150 150" style="enable-background:new 0 0 150 150;" xml:space="preserve">
<style type="text/css">
	
		.st0{fill-rule:evenodd;clip-rule:evenodd;fill:none;stroke:#000000;stroke-width:6;stroke-linecap:round;stroke-linejoin:round;stroke-miterlimit:22.9256;}
</style>
<g>
	<path class="st0" d="M105.6,50.84c7.57-0.07,14.9,2.85,20.36,8.19c5.99,5.86,9.13,14.05,8.58,22.42
		c-1.94,31.19-28.44,55.1-59.66,53.84c-32.59-2.08-58.34-28.44-59.66-61.07C15.96,41.65,42.31,15.5,74.88,15
		c3.06,0.02,5.79,1.91,6.88,4.77c1.4,3.69-0.96,6.83-2.9,10.23c-2.06,3.62-3.66,7.54,0.25,12.73"/>
	<path class="st0" d="M54.57,63.32c12.06-11.53,46.89-38.35,69.69-40.92c7.25-0.82,9.39,4.09,5.3,8.88
		c-14.99,17.55-54.39,35.33-70.79,40.91"/>
	<path class="st0" d="M49.38,80.1c1.6,0,3.17-0.42,4.56-1.22c4.36-2.52,5.85-8.09,3.34-12.45c-2.52-4.36-8.09-5.85-12.45-3.34
		c-1.39,0.8-2.54,1.95-3.34,3.34L33.91,80.1L49.38,80.1z"/>
	<path class="st0" d="M74.88,46.73c4.39,4.1,7.04,9.72,7.41,15.72"/>
	<path class="st0" d="M59.71,88.68c4.87,5.93,12.64,8.64,20.14,7.03c7.5-1.6,13.48-7.26,15.5-14.66"/>
	<path class="st0" d="M44.63,110.31c4.03,0,7.31-3.28,7.31-7.31c0-4.03-3.28-7.31-7.31-7.31s-7.31,3.28-7.31,7.31
		C37.32,107.02,40.6,110.31,44.63,110.31z"/>
	<path class="st0" d="M69.37,124.62c4.03,0,7.31-3.28,7.31-7.31c0-4.03-3.28-7.31-7.31-7.31c-4.03,0-7.31,3.28-7.31,7.31
		C62.05,121.34,65.34,124.62,69.37,124.62z"/>
	<path class="st0" d="M98.15,119.49c4.03,0,7.31-3.28,7.31-7.31c0-4.03-3.28-7.31-7.31-7.31c-4.03,0-7.31,3.28-7.31,7.31
		C90.84,116.2,94.12,119.49,98.15,119.49z"/>
	<circle class="st0" cx="117.29" cy="87.9" r="7.31"/>
	<path class="st0" d="M57.23,44.8c4.03,0,7.31-3.28,7.31-7.31s-3.28-7.31-7.31-7.31s-7.31,3.28-7.31,7.31S53.2,44.8,57.23,44.8z"/>
</g>
</svg>
