<svg width="150" height="150" xmlns="http://www.w3.org/2000/svg">
 <!-- Created with Method Draw - http://github.com/duopixel/Method-Draw/ -->

 <g>
  <title>background</title>
  <rect fill="#fff" id="canvas_background" height="152" width="152" y="-1" x="-1"/>
 </g>
 <g>
  <title>Layer 1</title>
  <g stroke="null" id="svg_86">
   <g stroke="null" transform="matrix(0.1912718309619735,0,0,0.1912718309619735,-263.7078511346951,-261.2179909981308) " id="svg_69">
    <path stroke="null" id="svg_70" d="m1978.819253,1565.801778l0,416l-384,0c-17.672,0 -32,-14.312 -32,-32s14.328,-32 32,-32l352,0l0,-416l-352,0c-35.344,0 -64,28.656 -64,64l0,384c0,35.344 28.656,64 64,64l416,0l0,-448l-32,0z"/>
   </g>
   <g stroke="null" transform="matrix(0.1912718309619735,0,0,0.1912718309619735,-263.7078511346951,-261.2179909981308) " id="svg_71"/>
   <g stroke="null" transform="matrix(0.1912718309619735,0,0,0.1912718309619735,-263.7078511346951,-261.2179909981308) " id="svg_72"/>
   <g stroke="null" transform="matrix(0.1912718309619735,0,0,0.1912718309619735,-263.7078511346951,-261.2179909981308) " id="svg_73"/>
   <g stroke="null" transform="matrix(0.1912718309619735,0,0,0.1912718309619735,-263.7078511346951,-261.2179909981308) " id="svg_74"/>
   <g stroke="null" transform="matrix(0.1912718309619735,0,0,0.1912718309619735,-263.7078511346951,-261.2179909981308) " id="svg_75"/>
   <g stroke="null" transform="matrix(0.1912718309619735,0,0,0.1912718309619735,-263.7078511346951,-261.2179909981308) " id="svg_76"/>
   <g stroke="null" transform="matrix(0.1912718309619735,0,0,0.1912718309619735,-263.7078511346951,-261.2179909981308) " id="svg_77"/>
   <g stroke="null" transform="matrix(0.1912718309619735,0,0,0.1912718309619735,-263.7078511346951,-261.2179909981308) " id="svg_78"/>
   <g stroke="null" transform="matrix(0.1912718309619735,0,0,0.1912718309619735,-263.7078511346951,-261.2179909981308) " id="svg_79"/>
   <g stroke="null" transform="matrix(0.1912718309619735,0,0,0.1912718309619735,-263.7078511346951,-261.2179909981308) " id="svg_80"/>
   <g stroke="null" transform="matrix(0.1912718309619735,0,0,0.1912718309619735,-263.7078511346951,-261.2179909981308) " id="svg_81"/>
   <g stroke="null" transform="matrix(0.1912718309619735,0,0,0.1912718309619735,-263.7078511346951,-261.2179909981308) " id="svg_82"/>
   <g stroke="null" transform="matrix(0.1912718309619735,0,0,0.1912718309619735,-263.7078511346951,-261.2179909981308) " id="svg_83"/>
   <g stroke="null" transform="matrix(0.1912718309619735,0,0,0.1912718309619735,-263.7078511346951,-261.2179909981308) " id="svg_84"/>
   <g stroke="null" transform="matrix(0.1912718309619735,0,0,0.1912718309619735,-263.7078511346951,-261.2179909981308) " id="svg_85"/>
  </g>
 </g>
</svg>