<svg width="150" height="150" xmlns="http://www.w3.org/2000/svg">
 <!-- Created with Method Draw - http://github.com/duopixel/Method-Draw/ -->

 <g>
  <title>background</title>
  <rect fill="#fff" id="canvas_background" height="152" width="152" y="-1" x="-1"/>
 </g>
 <g>
  <title>Layer 1</title>
  <g stroke="null" id="svg_29">
   <g stroke="null" transform="matrix(0.2109984739151606,0,0,0.2109984739151606,-309.80271042153566,-264.36191845906734) " id="svg_5">
    <g stroke="null" id="svg_6">
     <path stroke="null" id="svg_7" d="m1721.279089,1442.272668l10.605,-10.605c6.91,-6.91 5.451,-18.465 -2.886,-23.467l-80.345,-48.209c-21.094,-12.627 -47.93,-9.331 -65.259,8.042c-17.373,17.359 -20.669,44.195 -8.042,65.259l48.208,80.332c5.008,8.347 16.62,9.794 23.467,2.886l10.62,-10.605l81.154,81.03l63.561,-63.567l-81.083,-81.096z"/>
    </g>
   </g>
   <g stroke="null" transform="matrix(0.2109984739151606,0,0,0.2109984739151606,-309.80271042153566,-264.36191845906734) " id="svg_8">
    <g stroke="null" id="svg_9">
     <path stroke="null" id="svg_10" d="m2069.498089,1412.092668c-4.407,-9.245 -16.77,-11.547 -24.141,-4.146l-38.804,38.804c-5.684,5.684 -15.527,5.684 -21.211,0c-5.845,-5.845 -5.845,-15.366 0,-21.211l38.804,-38.804c7.299,-7.299 5.202,-19.685 -4.146,-24.141c-40.093,-19.16 -88.11,-10.913 -119.517,20.522c-28.843,28.828 -38.159,71.675 -24.683,109.512l-167.819,167.813c-37.808,-13.477 -80.669,-4.16 -109.512,24.683c-31.421,31.421 -39.668,79.453 -20.522,119.517c4.467,9.371 16.861,11.425 24.141,4.146l38.804,-38.804c5.859,-5.83 15.381,-5.845 21.211,0.015c5.843,5.813 5.886,15.279 0,21.196l-38.804,38.804c-7.299,7.299 -5.202,19.685 4.146,24.141c14.398,6.883 29.823,10.223 45.145,10.223c27.305,0 54.243,-10.62 74.355,-30.747c28.857,-28.828 38.159,-71.675 24.683,-109.512l167.822,-167.811c37.793,13.462 80.669,4.16 109.526,-24.683c31.421,-31.421 39.668,-79.453 20.522,-119.517z"/>
    </g>
   </g>
   <g stroke="null" transform="matrix(0.2109984739151606,0,0,0.2109984739151606,-309.80271042153566,-264.36191845906734) " id="svg_11">
    <g stroke="null" id="svg_12">
     <path stroke="null" id="svg_13" d="m2057.579089,1737.523668c-50.919,-50.732 -78.834,-70.888 -138.525,-117.309l-84.831,84.84c41.958,53.86 67.365,88.599 115.016,136.267c15.586,15.586 36.299,22.857 56.675,22.857c14.956,0 29.722,-3.551 42.129,-12.471c18.091,-13.037 29.487,-33.12 31.26,-55.078c1.772,-21.987 -6.138,-43.521 -21.724,-59.106zm-43.205,61.55c-5.972,5.44 -15.277,4.918 -20.989,-0.794l-59.405,-59.405c-5.712,-5.712 -6.234,-15.017 -0.794,-20.989c5.807,-6.374 15.679,-6.547 21.707,-0.52l60,60c6.028,6.029 5.855,15.901 -0.519,21.708z"/>
    </g>
   </g>
   <g stroke="null" transform="matrix(0.2109984739151606,0,0,0.2109984739151606,-309.80271042153566,-264.36191845906734) " id="svg_14"/>
   <g stroke="null" transform="matrix(0.2109984739151606,0,0,0.2109984739151606,-309.80271042153566,-264.36191845906734) " id="svg_15"/>
   <g stroke="null" transform="matrix(0.2109984739151606,0,0,0.2109984739151606,-309.80271042153566,-264.36191845906734) " id="svg_16"/>
   <g stroke="null" transform="matrix(0.2109984739151606,0,0,0.2109984739151606,-309.80271042153566,-264.36191845906734) " id="svg_17"/>
   <g stroke="null" transform="matrix(0.2109984739151606,0,0,0.2109984739151606,-309.80271042153566,-264.36191845906734) " id="svg_18"/>
   <g stroke="null" transform="matrix(0.2109984739151606,0,0,0.2109984739151606,-309.80271042153566,-264.36191845906734) " id="svg_19"/>
   <g stroke="null" transform="matrix(0.2109984739151606,0,0,0.2109984739151606,-309.80271042153566,-264.36191845906734) " id="svg_20"/>
   <g stroke="null" transform="matrix(0.2109984739151606,0,0,0.2109984739151606,-309.80271042153566,-264.36191845906734) " id="svg_21"/>
   <g stroke="null" transform="matrix(0.2109984739151606,0,0,0.2109984739151606,-309.80271042153566,-264.36191845906734) " id="svg_22"/>
   <g stroke="null" transform="matrix(0.2109984739151606,0,0,0.2109984739151606,-309.80271042153566,-264.36191845906734) " id="svg_23"/>
   <g stroke="null" transform="matrix(0.2109984739151606,0,0,0.2109984739151606,-309.80271042153566,-264.36191845906734) " id="svg_24"/>
   <g stroke="null" transform="matrix(0.2109984739151606,0,0,0.2109984739151606,-309.80271042153566,-264.36191845906734) " id="svg_25"/>
   <g stroke="null" transform="matrix(0.2109984739151606,0,0,0.2109984739151606,-309.80271042153566,-264.36191845906734) " id="svg_26"/>
   <g stroke="null" transform="matrix(0.2109984739151606,0,0,0.2109984739151606,-309.80271042153566,-264.36191845906734) " id="svg_27"/>
   <g stroke="null" transform="matrix(0.2109984739151606,0,0,0.2109984739151606,-309.80271042153566,-264.36191845906734) " id="svg_28"/>
  </g>
 </g>
</svg>