<svg width="150" height="150" xmlns="http://www.w3.org/2000/svg">
 <!-- Created with Method Draw - http://github.com/duopixel/Method-Draw/ -->

 <g>
  <title>background</title>
  <rect fill="#fff" id="canvas_background" height="152" width="152" y="-1" x="-1"/>
 </g>
 <g>
  <title>Layer 1</title>
  <g stroke="null" id="svg_56">
   <g stroke="null" transform="matrix(0.8394547171803998,0,0,0.8394547171803998,-8.757713595226242,-8.77568709894166) " id="svg_34">
    <circle stroke="null" id="svg_35" r="12.1" cy="50.648238" cx="57.926818"/>
    <path stroke="null" id="svg_36" d="m44.426818,105.147238l1.2,0l0,24c0,3.301 2.7,6 6,6l12.6,0c3.3,0 6,-2.699 6,-6l0,-1.399c-1.1,-2.101 -1.8,-4.5 -1.8,-7l0,-31.4c0,-6.1 3.7,-11.4 9,-13.7l0,-2.4c0,-3.3 -2.7,-6 -6,-6l-27,0c-3.3,0 -6,2.7 -6,6l0,25.9c0,3.3 2.6,5.999 6,5.999z"/>
    <circle stroke="null" id="svg_37" r="12.1" cy="50.648238" cx="141.726818"/>
    <path stroke="null" id="svg_38" d="m122.125818,73.148238l0,2.4c5.301,2.3 9,7.6 9,13.7l0,31.3c0,2.5 -0.6,4.9 -1.799,7l0,1.4c0,3.3 2.699,6 6,6l12.6,0c3.3,0 6,-2.7 6,-6l0,-24l1.199,0c3.301,0 6,-2.7 6,-6l0,-25.8c0,-3.3 -2.699,-6 -6,-6l-27,0c-3.299,0 -6,2.699 -6,6z"/>
    <path stroke="null" id="svg_39" d="m77.526818,89.347238l0,0l0,9.8l0,21.6c0,3.3 2.7,6 6,6l2.3,0l0,28.3c0,3.3 2.7,6 6,6l16.1,0c3.3,0 6,-2.7 6,-6l0,-28.4l2.3,0c3.3,0 6,-2.699 6,-6l0,-21.499l0,-9.8l0,0c0,-3.3 -2.7,-6 -6,-6l-32.7,0c-3.4,-0.001 -6,2.7 -6,5.999z"/>
    <circle stroke="null" id="svg_40" r="13.9" cy="64.448238" cx="99.826818"/>
   </g>
   <g stroke="null" transform="matrix(0.8394547171803998,0,0,0.8394547171803998,-8.757713595226242,-8.77568709894166) " id="svg_41"/>
   <g stroke="null" transform="matrix(0.8394547171803998,0,0,0.8394547171803998,-8.757713595226242,-8.77568709894166) " id="svg_42"/>
   <g stroke="null" transform="matrix(0.8394547171803998,0,0,0.8394547171803998,-8.757713595226242,-8.77568709894166) " id="svg_43"/>
   <g stroke="null" transform="matrix(0.8394547171803998,0,0,0.8394547171803998,-8.757713595226242,-8.77568709894166) " id="svg_44"/>
   <g stroke="null" transform="matrix(0.8394547171803998,0,0,0.8394547171803998,-8.757713595226242,-8.77568709894166) " id="svg_45"/>
   <g stroke="null" transform="matrix(0.8394547171803998,0,0,0.8394547171803998,-8.757713595226242,-8.77568709894166) " id="svg_46"/>
   <g stroke="null" transform="matrix(0.8394547171803998,0,0,0.8394547171803998,-8.757713595226242,-8.77568709894166) " id="svg_47"/>
   <g stroke="null" transform="matrix(0.8394547171803998,0,0,0.8394547171803998,-8.757713595226242,-8.77568709894166) " id="svg_48"/>
   <g stroke="null" transform="matrix(0.8394547171803998,0,0,0.8394547171803998,-8.757713595226242,-8.77568709894166) " id="svg_49"/>
   <g stroke="null" transform="matrix(0.8394547171803998,0,0,0.8394547171803998,-8.757713595226242,-8.77568709894166) " id="svg_50"/>
   <g stroke="null" transform="matrix(0.8394547171803998,0,0,0.8394547171803998,-8.757713595226242,-8.77568709894166) " id="svg_51"/>
   <g stroke="null" transform="matrix(0.8394547171803998,0,0,0.8394547171803998,-8.757713595226242,-8.77568709894166) " id="svg_52"/>
   <g stroke="null" transform="matrix(0.8394547171803998,0,0,0.8394547171803998,-8.757713595226242,-8.77568709894166) " id="svg_53"/>
   <g stroke="null" transform="matrix(0.8394547171803998,0,0,0.8394547171803998,-8.757713595226242,-8.77568709894166) " id="svg_54"/>
   <g stroke="null" transform="matrix(0.8394547171803998,0,0,0.8394547171803998,-8.757713595226242,-8.77568709894166) " id="svg_55"/>
  </g>
 </g>
</svg>