<svg width="150" height="150" xmlns="http://www.w3.org/2000/svg">
 <!-- Created with Method Draw - http://github.com/duopixel/Method-Draw/ -->

 <g>
  <title>background</title>
  <rect fill="#fff" id="canvas_background" height="152" width="152" y="-1" x="-1"/>
 </g>
 <g>
  <title>Layer 1</title>
  <g stroke="null" id="svg_139">
   <g stroke="null" transform="matrix(0.14743423955741985,0,0,0.14743423955741985,-322.46611361730487,-322.5978104939916) " id="svg_117">
    <g stroke="null" id="svg_118">
     <path stroke="null" id="svg_119" d="m2584.727562,2645.4173l117.295,-117.295l-113.304,-17.202c-12.402,-1.883 -23.076,8.792 -21.193,21.193l17.202,113.304z"/>
     <path stroke="null" id="svg_120" d="m2778.398562,2907.0733c-19.922,8.436 -40.467,14.752 -61.48,18.924l-61.826,55.115c-8.509,7.586 -3.144,21.669 8.256,21.669l236.204,0c10.278,0 18.611,-8.333 18.611,-18.611l0,-192.256c-11.354,16.822 -24.347,32.568 -38.9,47.121c-29.148,29.147 -63.083,52.039 -100.865,68.038z"/>
     <path stroke="null" id="svg_121" d="m2873.179562,2424.5863c-3.697,-4.241 -8.867,-6.389 -14.048,-6.389c-4.749,0 -9.508,1.803 -13.155,5.45l-109.678,109.679l-146.367,146.366l-126.056,126.057c-7.626,7.627 -7.191,20.116 0.939,27.203c50.854,44.334 117.347,71.185 190.111,71.185c39.538,0 77.24,-7.96 111.595,-22.357c59.747,-25.038 109.362,-69.553 140.869,-125.576c23.54,-41.856 36.976,-90.132 36.976,-141.507c-0.001,-72.764 -26.852,-139.257 -71.186,-190.111z"/>
     <path stroke="null" id="svg_122" d="m2584.867562,2478.2333c13.356,0 25.913,5.201 35.358,14.645c5.451,5.45 14.289,5.45 19.74,-0.001c5.451,-5.451 5.45,-14.289 -0.001,-19.74c-14.718,-14.716 -34.285,-22.821 -55.097,-22.821c-42.967,0 -77.923,34.957 -77.923,77.923c0,20.815 8.106,40.384 22.824,55.101c2.725,2.725 6.297,4.088 9.869,4.088s7.145,-1.363 9.87,-4.089c5.451,-5.451 5.451,-14.289 -0.001,-19.739c-9.446,-9.445 -14.647,-22.003 -14.647,-35.361c0.001,-27.573 22.434,-50.006 50.008,-50.006z"/>
     <path stroke="null" id="svg_123" d="m2496.720562,2624.7423c3.572,0 7.145,-1.363 9.87,-4.089c5.451,-5.451 5.45,-14.289 -0.001,-19.739c-20.161,-20.16 -31.264,-46.966 -31.264,-75.478c-0.001,-58.856 47.883,-106.74 106.739,-106.74c28.509,0 55.313,11.102 75.472,31.26c5.451,5.451 14.289,5.45 19.739,-0.001c5.451,-5.451 5.451,-14.289 -0.001,-19.739c-25.431,-25.431 -59.244,-39.436 -95.21,-39.436c-35.969,0 -69.783,14.007 -95.216,39.439s-39.439,59.248 -39.439,95.216c0,35.969 14.007,69.785 39.442,95.218c2.725,2.726 6.297,4.089 9.869,4.089z"/>
    </g>
   </g>
   <g stroke="null" transform="matrix(0.14743423955741985,0,0,0.14743423955741985,-322.46611361730487,-322.5978104939916) " id="svg_124"/>
   <g stroke="null" transform="matrix(0.14743423955741985,0,0,0.14743423955741985,-322.46611361730487,-322.5978104939916) " id="svg_125"/>
   <g stroke="null" transform="matrix(0.14743423955741985,0,0,0.14743423955741985,-322.46611361730487,-322.5978104939916) " id="svg_126"/>
   <g stroke="null" transform="matrix(0.14743423955741985,0,0,0.14743423955741985,-322.46611361730487,-322.5978104939916) " id="svg_127"/>
   <g stroke="null" transform="matrix(0.14743423955741985,0,0,0.14743423955741985,-322.46611361730487,-322.5978104939916) " id="svg_128"/>
   <g stroke="null" transform="matrix(0.14743423955741985,0,0,0.14743423955741985,-322.46611361730487,-322.5978104939916) " id="svg_129"/>
   <g stroke="null" transform="matrix(0.14743423955741985,0,0,0.14743423955741985,-322.46611361730487,-322.5978104939916) " id="svg_130"/>
   <g stroke="null" transform="matrix(0.14743423955741985,0,0,0.14743423955741985,-322.46611361730487,-322.5978104939916) " id="svg_131"/>
   <g stroke="null" transform="matrix(0.14743423955741985,0,0,0.14743423955741985,-322.46611361730487,-322.5978104939916) " id="svg_132"/>
   <g stroke="null" transform="matrix(0.14743423955741985,0,0,0.14743423955741985,-322.46611361730487,-322.5978104939916) " id="svg_133"/>
   <g stroke="null" transform="matrix(0.14743423955741985,0,0,0.14743423955741985,-322.46611361730487,-322.5978104939916) " id="svg_134"/>
   <g stroke="null" transform="matrix(0.14743423955741985,0,0,0.14743423955741985,-322.46611361730487,-322.5978104939916) " id="svg_135"/>
   <g stroke="null" transform="matrix(0.14743423955741985,0,0,0.14743423955741985,-322.46611361730487,-322.5978104939916) " id="svg_136"/>
   <g stroke="null" transform="matrix(0.14743423955741985,0,0,0.14743423955741985,-322.46611361730487,-322.5978104939916) " id="svg_137"/>
   <g stroke="null" transform="matrix(0.14743423955741985,0,0,0.14743423955741985,-322.46611361730487,-322.5978104939916) " id="svg_138"/>
  </g>
 </g>
</svg>