<?xml version="1.0" encoding="utf-8"?>
<!-- Generator: Adobe Illustrator 21.1.0, SVG Export Plug-In . SVG Version: 6.00 Build 0)  -->
<svg version="1.1" id="Layer_1" xmlns="http://www.w3.org/2000/svg" xmlns:xlink="http://www.w3.org/1999/xlink" x="0px" y="0px"
	 viewBox="0 0 100 100" style="enable-background:new 0 0 100 100;" xml:space="preserve">
<style type="text/css">
	.st0{fill:#757576;}
</style>
<g>
	<g>
		<g>
			<path class="st0" d="M14.4,40.5c-8.8,5.8-9.7,17.7-2.7,24.7c6.2,6.2,16.3,6.2,22.5,0c7-7,6.1-19-2.7-24.7
				C26.4,37.1,19.5,37.1,14.4,40.5z M11.2,71.4v24.5L23.1,84l11.9,11.9V71.3C31.5,73.7,27.3,75,23,75C18.7,75,14.7,73.7,11.2,71.4z
				 M73.1,29.2H90L64.3,3.7v16.7C64.3,25.3,68.3,29.2,73.1,29.2z M73.3,34.6c-7.9,0-14.3-6.4-14.3-14.3V1.8H28
				c-4.3,0-7.8,3.5-7.8,7.8v23.6c0.9-0.1,1.9-0.2,2.8-0.2c5.6,0,10.8,2.2,14.8,6.1c7.4,7.4,8.1,18.9,2.1,27.1v25.4h44.8
				c4.3,0,7.8-3.5,7.8-7.8V34.6H73.3z M31,10.4h18.1c1.3,0,2.3,1.1,2.3,2.5c0,1.4-1.1,2.5-2.3,2.5H31c-1.3,0-2.3-1.1-2.3-2.5
				C28.6,11.6,29.7,10.4,31,10.4z M31,27.5c-1.3,0-2.3-1.1-2.3-2.5s1-2.5,2.3-2.5h18.1c1.3,0,2.3,1.1,2.3,2.5s-1.1,2.5-2.3,2.5H31z
				 M81,78.6H52.3c-1.8,0-3.3-1.2-3.3-2.6c0-1.5,1.5-2.7,3.3-2.7H81c1.8,0,3.3,1.2,3.3,2.7C84.3,77.4,82.8,78.6,81,78.6z M81,66.1
				H52.3c-1.8,0-3.3-1.2-3.3-2.6c0-1.5,1.5-2.7,3.3-2.7H81c1.8,0,3.3,1.2,3.3,2.7C84.3,64.9,82.8,66.1,81,66.1z M81,53.6H52.3
				c-1.8,0-3.3-1.2-3.3-2.6c0-1.5,1.5-2.6,3.3-2.6H81c1.8,0,3.3,1.2,3.3,2.6C84.3,52.4,82.8,53.6,81,53.6z"/>
		</g>
	</g>
</g>
</svg>
