<?xml version="1.0" encoding="utf-8"?>
<!-- Generator: Adobe Illustrator 21.1.0, SVG Export Plug-In . SVG Version: 6.00 Build 0)  -->
<svg version="1.1" id="Layer_1" xmlns="http://www.w3.org/2000/svg" xmlns:xlink="http://www.w3.org/1999/xlink" x="0px" y="0px"
	 viewBox="0 0 100 100" style="enable-background:new 0 0 100 100;" xml:space="preserve">
<style type="text/css">
	.st0{fill:#757576;}
</style>
<g>
	<g>
		<g>
			<path class="st0" d="M38.2,77c2-0.8,3.4-2.3,4.2-4c0.7-1.6,0.8-3.3,0.2-4.7L32.3,41.5l-13.6,5.3l10.1,26.1c0.7,1.9,2.2,3.3,3.9,4
				C34.4,77.6,36.4,77.7,38.2,77z M39.3,79c-0.9,0.4-1.9,0.5-2.8,0.6l3.3,4.6c0.5,0.7,1.1,1.1,1.8,0.8c0.7-0.3,0.9-0.9,0.8-1.8
				l-0.7-5.7C41.1,78.1,40.3,78.6,39.3,79z M20.5,8.8C18.9,4.7,14.2,2.6,10,4.2c-4.2,1.6-6.3,6.3-4.6,10.5l11.3,29.2L31.8,38
				L20.5,8.8z M21.6,34.1c-0.3,0.1-0.6,0.2-0.8,0.2c-0.9,0-1.7-0.5-2.1-1.4l-7.8-20.2c-0.4-1.1,0.2-2.4,1.3-2.9
				c0.3-0.1,0.6-0.2,0.9-0.2c0.9,0,1.7,0.5,2.1,1.4l7.8,20.2C23.3,32.3,22.7,33.6,21.6,34.1z M83.6,59.8c1,0,1.8-0.8,1.8-1.8
				c0-1-0.8-1.8-1.8-1.8H66.3c-1,0-1.8,0.8-1.8,1.8c0,1,0.8,1.8,1.8,1.8H83.6z M83.6,80.6H55.5c-1,0-1.8,0.8-1.8,1.8
				c0,1,0.8,1.8,1.8,1.8h28.1c1,0,1.8-0.8,1.8-1.8C85.4,81.4,84.6,80.6,83.6,80.6z M49.7,70.2c0,1,0.8,1.8,1.8,1.8h32
				c1,0,1.8-0.8,1.8-1.8c0-1-0.8-1.8-1.8-1.8h-32C50.5,68.4,49.7,69.2,49.7,70.2z M89.1,43.1H38.8l1.8,4.6h48.5
				c1.7,0,3.1,1.4,3.1,3.1v39.1c0,1.7-1.4,3.1-3.1,3.1H35.2c-1.3,0-2.3,1-2.3,2.3c0,1.3,1,2.3,2.3,2.3h53.9c4.2,0,7.6-3.4,7.6-7.6
				V50.7C96.7,46.5,93.3,43.1,89.1,43.1z"/>
		</g>
	</g>
</g>
</svg>
