<?xml version="1.0" encoding="utf-8"?>
<!-- Generator: Adobe Illustrator 21.1.0, SVG Export Plug-In . SVG Version: 6.00 Build 0)  -->
<svg version="1.1" id="Layer_1" xmlns="http://www.w3.org/2000/svg" xmlns:xlink="http://www.w3.org/1999/xlink" x="0px" y="0px"
	 viewBox="0 0 100 100" style="enable-background:new 0 0 100 100;" xml:space="preserve">
<style type="text/css">
	.st0{fill:#757576;}
</style>
<g>
	<g>
		<g>
			<g>
				<path class="st0" d="M43.5,25.6h12.2c1.1,0,2.1-0.9,2.1-2.1c0-1.2-0.9-2.1-2.1-2.1H43.5c-1.2,0-2.1,0.9-2.1,2.1
					C41.4,24.7,42.3,25.6,43.5,25.6z M43.5,35.2h12.2c1.1,0,2.1-0.9,2.1-2.1c0-1.2-0.9-2.1-2.1-2.1H43.5c-1.2,0-2.1,0.9-2.1,2.1
					C41.4,34.3,42.3,35.2,43.5,35.2z M41.7,50.6c0,1.2,0.9,2.1,2.1,2.1h37.4c1.1,0,2.1-0.9,2.1-2.1c0-1.2-0.9-2.1-2.1-2.1H43.8
					C42.6,48.5,41.7,49.4,41.7,50.6z M94.3,35.6l-25-24.9c-0.5-0.5-1.1-0.7-1.8-0.7H40.4c-6.1,0-11,4.9-11,11v21.9l5,7.2v-29
					c0-3.3,2.7-6,6-6h23.9v14.2c0,6.1,4.9,11,11,11H90V78c0,3.3-2.7,6-6,6H50.5l0.4,3.8c0.1,0.4,0.1,0.8,0,1.2c10.6,0,25.3,0,25.3,0
					v0H84v0c0,0,0,0,0,0c6.1,0,11-4.9,11-11V37.3C95,36.7,94.7,36,94.3,35.6z M75.2,35.1c-3.3,0-6-2.7-6-6V17.7l17.4,17.4H75.2z
					 M53.6,72.8h27.5c1.1,0,2.1-0.9,2.1-2.1c0-1.2-0.9-2.1-2.1-2.1H53.6c-1.1,0-2.1,0.9-2.1,2.1C51.5,71.8,52.5,72.8,53.6,72.8z
					 M83.2,60.6c0-1.2-0.9-2.1-2.1-2.1H48.4c-1.2,0-2.1,0.9-2.1,2.1c0,1.1,0.9,2.1,2.1,2.1h32.8C82.3,62.7,83.2,61.8,83.2,60.6z"/>
				<path class="st0" d="M31.6,82.8l13.2,6.5c0.9,0.5,1.5-0.1,1.4-1l-1.7-14.5L31.6,82.8z"/>
				<path class="st0" d="M18.5,35.3c-1-1.5-3.1-1.8-4.6-0.8l-8.9,6.2c-1.5,1-1.8,3.1-0.8,4.5l4.1,5.9l14.2-9.9L18.5,35.3z"/>
				<polygon class="st0" points="25.3,45 11.2,54.9 28.5,79.7 42.7,69.8 				"/>
			</g>
		</g>
	</g>
</g>
</svg>
