<?xml version="1.0" encoding="utf-8"?>
<!-- Generator: Adobe Illustrator 21.1.0, SVG Export Plug-In . SVG Version: 6.00 Build 0)  -->
<svg version="1.1" id="Layer_1" xmlns="http://www.w3.org/2000/svg" xmlns:xlink="http://www.w3.org/1999/xlink" x="0px" y="0px"
	 viewBox="0 0 100 100" style="enable-background:new 0 0 100 100;" xml:space="preserve">
<style type="text/css">
	.st0{fill:#757576;}
</style>
<g>
	<g>
		<g>
			<path class="st0" d="M67.3,31.3h17.4L58.2,4.9v17.3C58.2,27.2,62.3,31.3,67.3,31.3z M67.5,36.8c-8.1,0-14.8-6.6-14.8-14.8V3h-32
				c-4.4,0-8,3.6-8,8v76.7c0,4.4,3.6,8,8,8h58.6c4.4,0,8-3.6,8-8V36.8H67.5z M21.1,32.1c-1-1.5-0.7-3.5,0.8-4.5l8.8-6.2
				c1.5-1,3.5-0.7,4.5,0.8l4.1,5.9l0,0c0,0,0,0,0,0l0,0l0,0l-14.2,9.9L21.1,32.1z M27.9,41.8L42,31.9L68.1,69L53.9,79L27.9,41.8z
				 M70.2,88.6L57,82.1l12.8-9l1.7,14.5C71.7,88.5,71.1,89.1,70.2,88.6z"/>
		</g>
	</g>
</g>
</svg>
