<?xml version="1.0" encoding="utf-8"?>
<!-- Generator: Adobe Illustrator 21.1.0, SVG Export Plug-In . SVG Version: 6.00 Build 0)  -->
<svg version="1.1" id="Layer_1" xmlns="http://www.w3.org/2000/svg" xmlns:xlink="http://www.w3.org/1999/xlink" x="0px" y="0px"
	 viewBox="0 0 100 100" style="enable-background:new 0 0 100 100;" xml:space="preserve">
<style type="text/css">
	.st0{fill:#757576;}
</style>
<g>
	<g>
		<g>
			<g>
				<path class="st0" d="M86.1,29.2H13.2c-5.2,0-9.4,4.3-9.4,9.4v10.6h39.1v-1.5c0-3.7,3-6.7,6.7-6.7c3.7,0,6.7,3,6.7,6.7v1.5h39.1
					V38.7C95.5,33.5,91.3,29.2,86.1,29.2z M33.1,38.9H12.6c-1,0-1.8-0.8-1.8-1.8c0-1,0.8-1.8,1.8-1.8h20.4c1,0,1.8,0.8,1.8,1.8
					C34.9,38.1,34.1,38.9,33.1,38.9z"/>
				<path class="st0" d="M56.4,54.5c0,3.7-3,6.7-6.7,6.7c-3.7,0-6.7-3-6.7-6.7v-0.8H5.7v25.2c0,5.2,4.2,9.4,9.4,9.4h68.9
					c5.2,0,9.4-4.2,9.4-9.4V53.7H56.4V54.5z"/>
				<path class="st0" d="M33.3,25.2c5.2-2.5,10.7-3.8,16.3-3.8c5.6,0,11.1,1.3,16.3,3.8c1.5,0.7,3.4,0.1,4.1-1.4
					c0.7-1.5,0.1-3.4-1.5-4.1c-6.1-2.9-12.5-4.4-19-4.4c-6.5,0-12.9,1.5-19,4.4c-1.5,0.7-2.2,2.6-1.4,4.1
					C29.9,25.3,31.7,26,33.3,25.2z"/>
				<path class="st0" d="M52.4,54.5v-6.6c0-1.6-1.3-2.8-2.8-2.8c-1.6,0-2.8,1.3-2.8,2.8v6.6c0,1.6,1.3,2.8,2.8,2.8
					C51.2,57.3,52.4,56,52.4,54.5z"/>
			</g>
		</g>
	</g>
</g>
</svg>
