<?xml version="1.0" standalone="no"?>
<!DOCTYPE svg PUBLIC "-//W3C//DTD SVG 1.1//EN" "http://www.w3.org/Graphics/SVG/1.1/DTD/svg11.dtd" >
<svg xmlns="http://www.w3.org/2000/svg" xmlns:xlink="http://www.w3.org/1999/xlink" version="1.1">
<metadata>
Created by FontForge 20160405 at Mon Apr  8 06:52:12 2019
 By www-data
Copyright (c) 2016 by Dima Group. All rights reserved.
</metadata>
<defs>
<font id="BalvardiDastnevisFree" horiz-adv-x="0" >
  <font-face 
    font-family="Balvardi Dastnevis Free"
    font-weight="400"
    font-stretch="normal"
    units-per-em="2048"
    panose-1="2 0 4 0 0 0 0 0 0 0"
    ascent="1638"
    descent="-410"
    bbox="-711.222 -2302 5429 2718"
    underline-thickness="209"
    underline-position="-627"
    unicode-range="U+0020-FEFC"
  />
<missing-glyph horiz-adv-x="461" 
 />
    <glyph glyph-name="uE818" unicode="&#x651;&#x64b;" 
d="M221 1284q0 -24 -25 -49q-10 -12 -18 -12h-4q-12 0 -21 6l-6 14q-22 -22 -61 -45q-17 -6 -30 -10t-28 -4q-30 0 -47 29q-10 16 -10 45q0 2 1 20.5t24 73.5q6 -4 14 -6t16 -6q-16 -47 -17 -63.5t-1 -20.5q0 -17 4 -29q6 -6 16 -6q25 0 39 8q29 16 50.5 32.5t21.5 22.5h37
v-18q8 14 8 18h37v0zM-1 658l207 79l-1 -12l-206 -79v12zM-18 710l207 79l3 -11l-206 -79z" />
    <glyph glyph-name="uniFC5E" unicode="&#x651;&#x64c;" arabic-form="isolated" 
d="M248 1427q0 -24 -25 -49q-10 -12 -18 -12h-4q-12 0 -21 6l-6 14q-22 -22 -61 -45q-17 -6 -30 -10t-28 -4q-30 0 -47 29q-10 16 -10 45q0 2 1 20.5t24 73.5q6 -4 14 -6t16 -6q-16 -47 -17 -63.5t-1 -20.5q0 -17 4 -29q6 -6 16 -6q25 0 39 8q29 16 50.5 32.5t21.5 22.5h37
v-18q8 14 8 18h37v0zM158 1678q8 -15 37 -15q8 8 10 15q4 4 5 8t3 8v4l-4 8t-6 8q-6 7 -16 9h-5q-20 -2 -26 -23q-2 -2 -2 -12q0 -6 4 -10zM33 1622q27 21 53 21q8 0 21 -4q14 -2 20 -17q4 -6 6 -10l4 -8l27 28q-27 7 -35 27q-8 12 -10 27q0 6 4 26q8 39 55 45h11
q20 -4 39 -16q18 -18 18 -41v-8q0 -17 -10 -33l-23 -27l-96 -96q-2 -2 -3 -4t-5 -4l-23 27q19 12 19 26q0 8 -2 10q0 9 -2 11l-7 6h-6q-4 0 -12 -2t-21 -12z" />
    <glyph glyph-name="uniFC5F" unicode="&#x651;&#x64d;" arabic-form="isolated" 
d="M193 1239q0 -24 -25 -49q-10 -12 -18 -12h-4q-12 0 -21 6l-6 14q-22 -22 -61 -45q-17 -6 -30 -10t-28 -4q-30 0 -47 29q-10 16 -10 45q0 2 1 20.5t24 73.5q6 -4 14 -6t16 -6q-16 -47 -17 -63.5t-1 -20.5q0 -17 4 -29q6 -6 16 -6q25 0 39 8q29 16 50.5 32.5t21.5 22.5h37
v-18q8 14 8 18h37v0zM-14 1365l179 68l-1 -11l-178 -68v11zM-29 1409l179 69l3 -10l-179 -68z" />
    <glyph glyph-name="uniFC60" unicode="&#x651;&#x64e;" arabic-form="isolated" 
d="M193 831q0 -24 -25 -49q-10 -12 -18 -12h-4q-12 0 -21 6l-6 14q-22 -22 -61 -45q-17 -6 -30 -10t-28 -4q-30 0 -47 29q-10 16 -10 45q0 2 1 20.5t24 73.5q6 -4 14 -6t16 -6q-16 -47 -17 -63.5t-1 -20.5q0 -17 4 -29q6 -6 16 -6q25 0 39 8q29 16 50.5 32.5t21.5 22.5h37
v-18q8 14 8 18h37v0zM-56 86l213 81l6 -10l-212 -81z" />
    <glyph glyph-name="uniFC61" unicode="&#x651;&#x64f;" arabic-form="isolated" 
d="M211 839q0 -24 -25 -49q-10 -12 -18 -12h-4q-12 0 -21 6l-6 14q-22 -22 -61 -45q-17 -6 -30 -10t-28 -4q-30 0 -47 29q-10 16 -10 45q0 2 1 20.5t24 73.5q6 -4 14 -6t16 -6q-16 -47 -17 -63.5t-1 -20.5q0 -17 4 -29q6 -6 16 -6q25 0 39 8q29 16 50.5 32.5t21.5 22.5h37
v-18q8 14 8 18h37v0zM210 1167q-34 5 -47.5 20t-13.5 34q0 10 4 18l8 16q17 17 31 23q6 2 16 2q11 0 25 -6t25 -35q6 -24 6 -45q0 -63 -54 -111q-40 -36 -106 -59q-25 -8 -48.5 -11t-43.5 -3q-17 12 -21 19t-4 9q0 11 25 21q35 0 76 12q24 10 47.5 21.5t42.5 27.5
q22 23 32 47z" />
    <glyph glyph-name="uniFC62" unicode="&#x651;&#x650;" arabic-form="isolated" 
d="M182 1097q0 -24 -25 -49q-10 -12 -18 -12h-4q-12 0 -21 6l-6 14q-22 -22 -61 -45q-17 -6 -30 -10t-28 -4q-30 0 -47 29q-10 16 -10 45q0 2 1 20.5t24 73.5q6 -4 14 -6t16 -6q-16 -47 -17 -63.5t-1 -20.5q0 -17 4 -29q6 -6 16 -6q25 0 39 8q29 16 50.5 32.5t21.5 22.5h37
v-18q8 14 8 18h37v0zM-67 1208l178 67l4 -10l-177 -68z" />
    <glyph glyph-name="uniFDF2" unicode="&#xfedf;&#xfee0;&#xfeea;" horiz-adv-x="1421" arabic-form="isolated" 
d="M1376 676v-45.5t-2 -44.5q-4 -101 -25.5 -199t-56.5 -176q-39 -92 -96 -149.5t-133 -61.5h-12q-27 2 -55.5 19.5t-51.5 54.5q-24 -43 -54 -56.5t-59 -13.5h-16q-35 4 -64.5 20.5t-64.5 38.5q-29 21 -65.5 40.5t-75.5 29.5q-8 2 -25 2q-28 0 -72.5 -14.5t-101.5 -50.5
q-57 -37 -106.5 -91.5t-83.5 -123.5q-52 -29 -78 -29q-15 0 -33 14.5t-18 79.5q45 88 106.5 154.5t130.5 113.5q82 54 149.5 73.5t112.5 19.5q27 0 52 -7q57 -14 102 -39.5t82 -50.5q22 -14 40.5 -24t26.5 -13q9 0 19 47.5t24 182.5q37 0 74 -1t72 -3q4 -64 11 -109t18 -78
q10 -24 10 -30q0 -2 -1 -4t-1 -5q0 -4 2 -4h2q24 2 52 36t50 89q29 66 47.5 152t22.5 174q2 18 2 38.5v39.5q20 26 36.5 38.5t27 16.5t15.5 3l5 -1q31 0 59 -53zM1085 618q0 -24 -24 -49q-10 -12 -19 -12h-4q-12 0 -20 6l-6 15q-23 -23 -62 -46q-16 -6 -29.5 -10t-27.5 -4
q-31 0 -47 29q-10 16 -10 45q0 2 1 20.5t23 73.5q6 -4 14.5 -6t16.5 -6q-17 -47 -18 -63.5t-1 -20.5q0 -17 5 -29q6 -6 16 -6q25 0 39 8q29 17 50.5 33t21.5 22h36v-18q9 14 9 18h36z" />
    <glyph glyph-name="uniFEF5" unicode="&#xfedf;&#xfe82;" horiz-adv-x="719" arabic-form="isolated" 
d="M631 682q-4 -166 -44 -290t-98 -210q-59 -92 -128.5 -137t-122.5 -45h-2q-101 2 -138 51t-37 123v8q2 64 25 135.5t47 147.5q25 72 44.5 136.5t19.5 109.5q41 37 60 39t24 2q32 0 63 -41q0 -66 -23.5 -140.5t-52.5 -152.5q-22 -68 -40.5 -131.5t-20.5 -106.5
q0 -16 6 -26.5t25 -10.5q22 0 58 30t77 89q45 70 77.5 175.5t36.5 246.5v33q37 43 74 43q35 0 70 -43v-35zM455 879q24 14 32.5 -6.5t-26.5 -49.5q-31 -24 -53.5 -26t-28.5 -2q-37 0 -92 24q-25 6 -43.5 12.5t-34.5 6.5q-8 0 -30.5 -4.5t-51.5 -34.5q-2 -4 -13.5 -6t-21.5 0
t-16 10t4 24q16 27 34.5 40.5t35 17.5t28.5 4h19q22 0 47.5 -7.5t54.5 -17.5q23 -6 41 -10t35 -4h18.5t30.5 10z" />
    <glyph glyph-name="uniFEF6" unicode="&#xfee0;&#xfe82;" horiz-adv-x="881" arabic-form="final" 
d="M821 0q-59 0 -134 16.5t-138 51.5q-14 10 -29.5 19t-27.5 22q-56 -72 -116.5 -108t-107.5 -36h-2q-100 2 -137 51.5t-37 122.5v8q2 64 23.5 135.5t46.5 147.5q26 72 45.5 136.5t19.5 109.5q37 41 57.5 45t24.5 4q29 0 64 -49q0 -66 -22.5 -140.5t-49.5 -152.5
q-25 -68 -44 -131.5t-21 -106.5q0 -36 32 -36q23 0 57.5 29.5t73.5 88.5q47 70 80 175.5t37 246.5v33q39 55 62.5 68.5t25.5 9.5q17 0 31 -17.5t24 -60.5q0 -8 -1 -16.5t-1 -18.5q-4 -125 -26.5 -225t-57.5 -180q13 -33 50 -52q45 -24 99 -35.5t101 -11.5h64v-143h-66z
M455 879q24 14 32.5 -6.5t-26.5 -49.5q-31 -24 -53.5 -26t-28.5 -2q-37 0 -92 24q-25 6 -43.5 12.5t-34.5 6.5q-8 0 -30.5 -4.5t-51.5 -34.5q-2 -4 -13.5 -6t-21.5 0t-16 10t4 24q16 27 34.5 40.5t35 17.5t28.5 4h19q22 0 47.5 -7.5t54.5 -17.5q23 -6 41 -10t35 -4h18.5
t30.5 10z" />
    <glyph glyph-name="uniFEF7" unicode="&#xfedf;&#xfe84;" horiz-adv-x="719" arabic-form="isolated" 
d="M186 825l-14 27l59 35q-53 28 -53 78q0 34 24.5 60t59.5 26q21 0 49 -15l-12 -24q-16 10 -39 10q-49 0 -49 -59q0 -50 47 -50q37 0 90 29l10 -31zM631 682q-4 -166 -44 -290t-98 -210q-59 -92 -128.5 -137t-122.5 -45h-2q-101 2 -138 51t-37 123v8q2 64 25 135.5
t47 147.5q25 72 44.5 136.5t19.5 109.5q41 37 60 39t24 2q32 0 63 -41q0 -66 -23.5 -140.5t-52.5 -152.5q-22 -68 -40.5 -131.5t-20.5 -106.5q0 -16 6 -26.5t25 -10.5q22 0 58 30t77 89q45 70 77.5 175.5t36.5 246.5v33q37 43 74 43q35 0 70 -43v-35z" />
    <glyph glyph-name="uniFEF8" unicode="&#xfee0;&#xfe84;" horiz-adv-x="881" arabic-form="final" 
d="M821 0q-59 0 -134 16.5t-138 51.5q-14 10 -29.5 19t-27.5 22q-56 -72 -116.5 -108t-107.5 -36h-2q-100 2 -137 51.5t-37 122.5v8q2 64 23.5 135.5t46.5 147.5q26 72 45.5 136.5t19.5 109.5q37 41 57.5 45t24.5 4q29 0 64 -49q0 -66 -22.5 -140.5t-49.5 -152.5
q-25 -68 -44 -131.5t-21 -106.5q0 -36 32 -36q23 0 57.5 29.5t73.5 88.5q47 70 80 175.5t37 246.5v33q39 55 62.5 68.5t25.5 9.5q17 0 31 -17.5t24 -60.5q0 -8 -1 -16.5t-1 -18.5q-4 -125 -26.5 -225t-57.5 -180q13 -33 50 -52q45 -24 99 -35.5t101 -11.5h64v-143h-66z
M301 1171q6 7 23.5 13t29.5 6q2 0 10.5 -1t10.5 -7v-6q0 -13 -25 -39q-22 -23 -31.5 -36.5t-12.5 -19.5t-2 -9l1 -3q0 -16 12.5 -21.5t30 -8.5t38 -7t38.5 -14q20 -12 21 -26.5t1 -16.5q0 -31 -38 -84q-5 -4 -15 -15.5t-22.5 -23.5t-24.5 -23.5t-20 -15.5q-25 -10 -31 -10
q-10 0 -10 8q-6 0 7 20.5t30.5 45t33 48t17.5 31.5q0 13 -8 13q-25 2 -54.5 8t-50.5 20q-20 17 -22 33.5t-2 20.5q0 24 22 69z" />
    <glyph glyph-name="uniFEF9" unicode="&#xfedf;&#xfe88;" horiz-adv-x="719" arabic-form="isolated" 
d="M631 682q-4 -166 -44 -290t-98 -210q-59 -92 -128.5 -137t-122.5 -45h-2q-101 2 -138 51t-37 123v8q2 64 25 135.5t47 147.5q25 72 44.5 136.5t19.5 109.5q41 37 60 39t24 2q32 0 63 -41q0 -66 -23.5 -140.5t-52.5 -152.5q-22 -68 -40.5 -131.5t-20.5 -106.5
q0 -16 6 -26.5t25 -10.5q22 0 58 30t77 89q45 70 77.5 175.5t36.5 246.5v33q37 43 74 43q35 0 70 -43v-35zM178 -78q6 6 23.5 12.5t29.5 6.5q2 0 10.5 -1t10.5 -8v-6q0 -12 -25 -39q-22 -22 -31.5 -35.5t-12.5 -19.5t-2 -9l1 -3q0 -17 12.5 -22t30 -8t38 -7t38.5 -14
q21 -13 22 -27t1 -16q0 -31 -39 -84q-4 -4 -14.5 -15.5t-22.5 -24t-24.5 -23.5t-20.5 -15q-25 -10 -31 -10q-10 0 -10 8q-6 0 7 20.5t30.5 45t33 48t17.5 31.5q0 12 -8 12q-25 2 -54.5 8.5t-50.5 22.5q-20 14 -22 30.5t-2 20.5q0 25 22 70z" />
    <glyph glyph-name="uniFEFA" unicode="&#xfee0;&#xfe88;" horiz-adv-x="881" arabic-form="final" 
d="M821 0q-59 0 -134 16.5t-138 51.5q-14 10 -29.5 19t-27.5 22q-56 -72 -116.5 -108t-107.5 -36h-2q-100 2 -137 51.5t-37 122.5v8q2 64 23.5 135.5t46.5 147.5q26 72 45.5 136.5t19.5 109.5q37 41 57.5 45t24.5 4q29 0 64 -49q0 -66 -22.5 -140.5t-49.5 -152.5
q-25 -68 -44 -131.5t-21 -106.5q0 -36 32 -36q23 0 57.5 29.5t73.5 88.5q47 70 80 175.5t37 246.5v33q39 55 62.5 68.5t25.5 9.5q17 0 31 -17.5t24 -60.5q0 -8 -1 -16.5t-1 -18.5q-4 -125 -26.5 -225t-57.5 -180q13 -33 50 -52q45 -24 99 -35.5t101 -11.5h64v-143h-66z
M172 -129q6 6 23.5 12t29.5 6q2 0 10.5 -1t10.5 -7v-6q0 -12 -25 -39q-22 -22 -31.5 -35.5t-12.5 -19.5t-2 -9l1 -3q0 -17 12.5 -22t30 -8t37.5 -7t39 -15q20 -12 21 -26.5t1 -16.5q0 -30 -38 -84q-5 -4 -15 -15t-22.5 -23.5t-24.5 -23.5t-20 -15q-25 -11 -31 -11
q-10 0 -10 9q-6 0 7 20t30.5 45t33 48.5t17.5 31.5q0 12 -8 12q-25 2 -54.5 8.5t-50.5 22.5q-20 14 -22.5 30.5t-2.5 20.5q0 25 23 70z" />
    <glyph glyph-name="uniFEFB" unicode="&#xfedf;&#xfe8e;" horiz-adv-x="725" arabic-form="isolated" 
d="M631 682q-4 -166 -44 -290t-98 -210q-59 -92 -128.5 -137t-122.5 -45h-2q-101 2 -138 51t-37 123v8q2 64 25 135.5t47 147.5q25 72 44.5 136.5t19.5 109.5q41 37 60 39t24 2q32 0 63 -41q0 -66 -23.5 -140.5t-52.5 -152.5q-22 -68 -40.5 -131.5t-20.5 -106.5
q0 -16 6 -26.5t25 -10.5q22 0 58 30t77 89q45 70 77.5 175.5t36.5 246.5v33q37 43 74 43q35 0 70 -43v-35z" />
    <glyph glyph-name="uniFEFC" unicode="&#xfee0;&#xfe8e;" horiz-adv-x="885" arabic-form="final" 
d="M821 0q-59 0 -134 16.5t-138 51.5q-14 10 -29.5 19t-27.5 22q-56 -72 -116.5 -108t-107.5 -36h-2q-100 2 -137 51.5t-37 122.5v8q2 64 23.5 135.5t46.5 147.5q26 72 45.5 136.5t19.5 109.5q37 41 57.5 45t24.5 4q29 0 64 -49q0 -66 -22.5 -140.5t-49.5 -152.5
q-25 -68 -44 -131.5t-21 -106.5q0 -36 32 -36q23 0 57.5 29.5t73.5 88.5q47 70 80 175.5t37 246.5v33q39 55 62.5 68.5t25.5 9.5q17 0 31 -17.5t24 -60.5q0 -8 -1 -16.5t-1 -18.5q-4 -125 -26.5 -225t-57.5 -180q13 -33 50 -52q45 -24 99 -35.5t101 -11.5h64v-143h-66z" />
    <glyph glyph-name="uni0622" unicode="&#x622;" horiz-adv-x="541" arabic-form="isolated" 
d="M756 1491q26 12 45 12q12 0 27.5 -7t15.5 -26q0 -8 -6.5 -23t-30.5 -32q-68 -33 -126 -38t-101 -5q-19 -2 -56 1t-83 8t-96 9.5t-97 4.5q-62 0 -112 -18.5t-83 -65.5q-20 -29 -35.5 -33t-21.5 -4q-14 0 -20.5 9t-6.5 22q0 12 9.5 39.5t60.5 80.5q35 37 83 48.5t101 11.5
q6 0 38 -1t99 -9q68 -9 120 -13t91 -4q29 0 77 3t108 30zM410 1083q-13 -114 -24 -265.5t-37.5 -303.5t-78 -282t-145.5 -201q-37 -29 -54.5 -30t-19.5 -1q-59 0 -59 53q0 6 2 25.5t41 60.5q45 31 80 98.5t59.5 154.5t41.5 186.5t28.5 193.5t20.5 177t18 136q2 37 13 58.5
t25.5 33t25.5 13.5t11 0q21 0 37.5 -18.5t16.5 -59.5q0 -18 -2 -29z" />
    <glyph glyph-name="uni0623" unicode="&#x623;" horiz-adv-x="502" arabic-form="isolated" 
d="M410 1083q-13 -114 -24 -265.5t-37.5 -303.5t-78 -282t-145.5 -201q-37 -29 -54.5 -30t-19.5 -1q-59 0 -59 53q0 6 2 25.5t41 60.5q45 31 80 98.5t59.5 154.5t41.5 186.5t28.5 193.5t20.5 177t18 136q2 37 13 58.5t25.5 33t25.5 13.5t11 0q21 0 37.5 -18.5t16.5 -59.5
q0 -18 -2 -29zM352 1411q-2 2 -8 2q-4 2 -16 2q-11 0 -19 -4q-22 -10 -22 -33q0 -8 2 -12q10 -25 39 -25q10 0 14 2q29 11 39 21l14 -18l-69 -39l-64 -35q-4 4 -5 9t-5 11l55 31q-31 12 -41 35q-4 16 -4 20q0 39 37 54q14 6 29 6q18 0 30 -4z" />
    <glyph glyph-name="uni0624" unicode="&#x624;" horiz-adv-x="866" arabic-form="isolated" 
d="M645 14q-98 9 -135 53t-37 97t37 100q35 45 84 60q22 8 49 8q25 0 68 -17q39 -14 67 -102q21 -61 21 -127q0 -94 -41 -172t-109 -139q-63 -58 -142 -100t-165 -68q-68 -23 -134.5 -34t-123.5 -11q-45 32 -57.5 50.5t-12.5 29.5q0 12 13.5 27.5t56.5 33.5q100 0 215 37
q72 22 137.5 57t116.5 82q33 29 56.5 62.5t35.5 72.5zM614 819q7 6 24 12.5t30 6.5q2 0 10 -1t10 -8v-6q0 -12 -24 -39q-23 -22 -32 -35.5t-12.5 -19.5t-2.5 -9l1 -3q0 -17 12.5 -22t30 -8t38 -7t38.5 -14q21 -13 22 -27t1 -16q0 -31 -39 -84q-4 -4 -14.5 -15.5t-22.5 -24
t-24.5 -23.5t-20.5 -15q-25 -10 -31 -10q-10 0 -10 8q-6 0 7 20.5t30.5 45t33 48t17.5 31.5q0 12 -8 12q-25 2 -54.5 8.5t-50.5 20.5q-20 17 -22 33t-2 20q0 25 22 70z" />
    <glyph glyph-name="uni0625" unicode="&#x625;" horiz-adv-x="549" arabic-form="isolated" 
d="M410 1083q-13 -114 -24 -265.5t-37.5 -303.5t-78 -282t-145.5 -201q-37 -29 -54.5 -30t-19.5 -1q-59 0 -59 53q0 6 2 25.5t41 60.5q45 31 80 98.5t59.5 154.5t41.5 186.5t28.5 193.5t20.5 177t18 136q2 37 13 58.5t25.5 33t25.5 13.5t11 0q21 0 37.5 -18.5t16.5 -59.5
q0 -18 -2 -29zM123 -139q6 6 23.5 12t29.5 6q2 0 10.5 -1t10.5 -7v-6q0 -12 -25 -39q-22 -23 -31.5 -36t-12.5 -19.5t-2 -9.5l1 -3q0 -16 12.5 -21t29.5 -8t37.5 -7.5t39.5 -14.5q20 -12 21 -26.5t1 -16.5q0 -31 -39 -84q-4 -4 -14 -15t-22.5 -23.5t-24.5 -24t-21 -15.5
q-24 -10 -30 -10q-11 0 -11 8q-6 0 7.5 20.5t31 45t33 48.5t17.5 32q0 12 -9 12q-24 2 -54 8t-50 23q-21 14 -23 30.5t-2 20.5q0 24 23 70z" />
    <glyph glyph-name="uni0626" unicode="&#x626;" horiz-adv-x="3684" arabic-form="isolated" 
d="M3467 352q-6 58 -28 58h-2q-39 -4 -89.5 -40t-93.5 -83q-41 -45 -62.5 -82t-21.5 -55q0 -9 2 -11q4 -4 19 -4h11t22.5 3t42 10.5t69.5 21.5q39 12 74 12q41 0 76 -18q73 -47 73 -150v-12q-2 -43 -14 -96t-37 -113q-43 -104 -121.5 -232t-193.5 -264.5t-264.5 -274.5
t-331.5 -263l-84 -53q-121 -72 -267.5 -133.5t-305 -105.5t-322.5 -68.5t-320 -24.5h-24q-172 2 -340 34.5t-322.5 102.5t-290 179.5t-241.5 267.5l-41 65v8q0 47 16.5 65.5t38.5 18.5q25 0 66 -18q8 -17 17 -30t20 -30q94 -141 216 -239t262 -160.5t292.5 -91.5t308.5 -31
h24q148 0 301.5 23.5t302 64.5t286 98.5t249.5 124.5q21 13 40.5 25t39.5 27q172 116 313.5 245t249 257t182 248t113.5 218q41 105 41 160q2 8 2 21q0 12 -4 16h-4q-12 0 -33 -6q-80 -27 -122 -31t-62 -4q-49 0 -95 20.5t-63 73.5q-6 21 -6 45q0 41 27.5 104.5t91.5 133.5
q59 65 133 115.5t139 56.5h19q61 0 109 -38t59 -146q-21 -58 -58 -58l-18 2q-19 0 -66 41zM3248 991q6 6 23.5 12.5t29.5 6.5q2 0 10.5 -1t10.5 -8v-6q0 -12 -25 -39q-22 -22 -31.5 -35.5t-12.5 -19.5t-2 -9l1 -3q0 -17 12.5 -22t30 -8t38 -7t38.5 -14q20 -13 21.5 -27
t1.5 -16q0 -31 -39 -84q-4 -4 -14.5 -15.5t-23 -24t-24.5 -23.5t-20 -15q-25 -10 -31 -10q-10 0 -10 8q-6 0 7 20.5t30.5 45t33 48t17.5 31.5q0 12 -8 12q-25 3 -54.5 9t-50.5 20q-20 17 -22 33t-2 20q0 25 22 70z" />
    <glyph glyph-name="uni0627" unicode="&#x627;" horiz-adv-x="864" arabic-form="isolated" 
d="M793 1051q-23 -117 -48.5 -241t-64.5 -247t-91 -243.5t-126 -231.5t-176.5 -199t-233.5 -150.5t-289.5 -96t-345.5 -33.5h-65q-68 20 -64 63t68 78h51q340 0 576.5 119t369.5 324q68 102 115 212.5t82 224t58.5 226.5t43.5 221q13 66 21 144.5t16 154.5t19.5 142.5
t31 109.5t49 53.5t74.5 -26.5z" />
    <glyph glyph-name="uni0628" unicode="&#x628;" horiz-adv-x="2466" arabic-form="isolated" 
d="M2374 813q-37 -78 -94.5 -150.5t-129.5 -142.5q-161 -153 -384.5 -272t-471.5 -185q-123 -32 -236.5 -47.5t-217.5 -15.5q-19 0 -88.5 2t-182.5 25q-108 22 -211 71q-133 62 -233 168q-16 35 -20.5 55.5t-4.5 28.5q0 15 7.5 26t33.5 11q2 0 17.5 -1t70.5 -24
q78 -83 189 -137q90 -41 188 -61q51 -10 91 -15.5t69 -7.5h74q94 0 200.5 14.5t219.5 45.5q229 59 437 169.5t357 252.5q64 59 113 122.5t80 128.5q69 60 100 60q33 0 33 -60q0 -24 -6 -61zM1038 -565q27 33 64 33q28 0 63 -25q47 -35 47 -68q0 -32 -47 -73
q-28 -17 -43.5 -21t-21.5 -4q-23 0 -62 16q-26 33 -26 66q0 2 1 21.5t25 54.5z" />
    <glyph glyph-name="uni0629" unicode="&#x629;" horiz-adv-x="610" arabic-form="isolated" 
d="M121 539q31 0 65.5 -1t67.5 -3q57 -5 92 -13q55 -14 91 -37.5t59 -56.5q20 -31 23 -55.5t3 -38.5q0 -10 -1 -20.5t-3 -20.5q-12 -60 -55 -117q-43 -61 -110.5 -109.5t-129.5 -60.5q-12 -2 -23.5 -3t-21.5 -1q-31 0 -49 8q-76 25 -90 101q-2 10 -3 21t-1 22q0 28 10 73
q10 49 31.5 100.5t44.5 92.5q-37 31 -37 61q0 29 37 58zM313 385q-18 6 -47 6q-22 -35 -47.5 -88t-36.5 -106q-8 -19 -8 -41q0 -9 2 -13q14 0 21 2q36 9 79 40.5t72 72.5q25 35 31 64q2 6 2 14t-4 16q-15 21 -64 33zM143 989q7 6 24 12.5t30 6.5q2 0 10 -1t10 -8v-6
q0 -12 -24 -39q-23 -22 -32 -35.5t-12.5 -19.5t-2.5 -9l1 -3q0 -17 12.5 -22t30 -8t38 -7t38.5 -14q21 -13 22 -27t1 -16q0 -31 -39 -84q-4 -4 -14.5 -15.5t-22.5 -24t-24.5 -23.5t-20.5 -15q-25 -10 -31 -10q-10 0 -10 8q-6 0 7 20.5t30.5 45t33 48t17.5 31.5q0 12 -8 12
q-25 2 -54.5 8.5t-50.5 20.5q-20 16 -22 32.5t-2 20.5q0 25 22 70z" />
    <glyph glyph-name="uni062A" unicode="&#x62a;" horiz-adv-x="2458" arabic-form="isolated" 
d="M2374 813q-37 -78 -94.5 -150.5t-129.5 -142.5q-161 -153 -384.5 -272t-471.5 -185q-123 -32 -236.5 -47.5t-217.5 -15.5q-19 0 -88.5 2t-182.5 25q-108 22 -211 71q-133 62 -233 168q-16 35 -20.5 55.5t-4.5 28.5q0 15 7.5 26t33.5 11q2 0 17.5 -1t70.5 -24
q78 -83 189 -137q90 -41 188 -61q51 -10 91 -15.5t69 -7.5h74q94 0 200.5 14.5t219.5 45.5q229 59 437 169.5t357 252.5q64 59 113 122.5t80 128.5q69 60 100 60q33 0 33 -60q0 -24 -6 -61zM975 1092q72 57 133 89.5t109.5 48t85 19.5t59.5 4q29 0 70 -6t94 -16
q16 -4 30.5 -6t30.5 -6q35 -35 42 -57.5t7 -24.5q0 -15 -15 -30t-54 -28q-29 2 -68 13q-41 8 -74.5 13t-56.5 5q-18 0 -47 -3t-66.5 -15.5t-86 -39t-105.5 -71.5q-82 2 -94 20q-13 21 -13 35q0 21 19 56z" />
    <glyph glyph-name="uni062B" unicode="&#x62b;" horiz-adv-x="2478" arabic-form="isolated" 
d="M2374 813q-37 -78 -94.5 -150.5t-129.5 -142.5q-161 -153 -384.5 -272t-471.5 -185q-123 -32 -236.5 -47.5t-217.5 -15.5q-19 0 -88.5 2t-182.5 25q-108 22 -211 71q-133 62 -233 168q-16 35 -20.5 55.5t-4.5 28.5q0 15 7.5 26t33.5 11q2 0 17.5 -1t70.5 -24
q78 -83 189 -137q90 -41 188 -61q51 -10 91 -15.5t69 -7.5h74q94 0 200.5 14.5t219.5 45.5q229 59 437 169.5t357 252.5q64 59 113 122.5t80 128.5q69 60 100 60q33 0 33 -60q0 -24 -6 -61zM1087 1169q185 0 288.5 -16t150.5 -43q49 -29 57 -54.5t8 -39.5q0 -25 -12 -51
q-29 -54 -100 -93q-47 -28 -115 -53.5t-142.5 -45t-150.5 -31t-139 -11.5q-64 27 -68 47q-2 10 -2 15.5v7.5q0 33 70 71q55 0 121.5 10.5t132 27t124 39t99.5 46.5l12 6q-43 13 -123.5 20t-210.5 7q-26 19 -38.5 32t-17.5 22.5t-4 15.5t1 8q0 29 59 63z" />
    <glyph glyph-name="uni062C" unicode="&#x62c;" horiz-adv-x="1198" arabic-form="isolated" 
d="M735 287q-43 -19 -87 -41.5t-89 -46.5q-123 -70 -208 -169.5t-132 -209.5q-33 -72 -43 -131.5t-10 -102.5q0 -14 1 -28.5t3 -28.5q8 -68 37 -129.5t82 -108.5q55 -53 138 -89t200 -50q57 -6 116 -6q80 0 195 16.5t262 81.5q129 58 251 149t222 220q35 14 64 14
q51 0 51 -61q0 -8 -1 -18.5t-3 -20.5q-113 -143 -247 -245.5t-282 -166.5q-165 -71 -293 -90.5t-221 -19.5q-34 0 -67 2t-66 6q-141 16 -243.5 62t-174.5 114q-71 66 -110 147.5t-49 174.5q-2 18 -3 36.5t-1 38.5q0 54 11 125.5t50 163.5q57 131 157.5 248t241.5 196
q105 60 200 99t173 67l60 23q-68 27 -127.5 39t-112.5 16h-35q-57 0 -110.5 -11t-94.5 -36q-55 -33 -65 -55v-4q0 -15 14 -35v-12q0 -48 -23.5 -61t-54.5 -13q-8 0 -17 1t-20 3q-41 59 -41 113q0 26 11 57q28 72 125 129q57 33 127.5 50.5t142.5 17.5h22.5t24.5 -2
q80 -5 169 -28.5t194 -70.5q55 -28 66 -52t11 -38q0 -24 -12 -45q-16 -37 -70.5 -62.5t-134.5 -54.5l-43 -16zM807 -240q27 33 63 33q29 0 64 -24q47 -35 47 -68t-47 -74q-29 -16 -44.5 -20t-21.5 -4q-22 0 -61 16q-27 33 -27 66q0 2 1 21.5t26 53.5z" />
    <glyph glyph-name="uni062D" unicode="&#x62d;" horiz-adv-x="1233" arabic-form="isolated" 
d="M735 287q-43 -19 -87 -41.5t-89 -46.5q-123 -70 -208 -169.5t-132 -209.5q-33 -72 -43 -131.5t-10 -102.5q0 -14 1 -28.5t3 -28.5q8 -68 37 -129.5t82 -108.5q55 -53 138 -89t200 -50q57 -6 116 -6q80 0 195 16.5t262 81.5q129 58 251 149t222 220q35 14 64 14
q51 0 51 -61q0 -8 -1 -18.5t-3 -20.5q-113 -143 -247 -245.5t-282 -166.5q-165 -71 -293 -90.5t-221 -19.5q-34 0 -67 2t-66 6q-141 16 -243.5 62t-174.5 114q-71 66 -110 147.5t-49 174.5q-2 18 -3 36.5t-1 38.5q0 54 11 125.5t50 163.5q57 131 157.5 248t241.5 196
q105 60 200 99t173 67l60 23q-68 27 -127.5 39t-112.5 16h-35q-57 0 -110.5 -11t-94.5 -36q-55 -33 -65 -55v-4q0 -15 14 -35v-12q0 -48 -23.5 -61t-54.5 -13q-8 0 -17 1t-20 3q-41 59 -41 113q0 26 11 57q28 72 125 129q57 33 127.5 50.5t142.5 17.5h22.5t24.5 -2
q80 -5 169 -28.5t194 -70.5q55 -28 66 -52t11 -38q0 -24 -12 -45q-16 -37 -70.5 -62.5t-134.5 -54.5l-43 -16l-131 -51v0z" />
    <glyph glyph-name="uni062E" unicode="&#x62e;" horiz-adv-x="1233" arabic-form="isolated" 
d="M735 287q-43 -19 -87 -41.5t-89 -46.5q-123 -70 -208 -169.5t-132 -209.5q-33 -72 -43 -131.5t-10 -102.5q0 -14 1 -28.5t3 -28.5q8 -68 37 -129.5t82 -108.5q55 -53 138 -89t200 -50q57 -6 116 -6q80 0 195 16.5t262 81.5q129 58 251 149t222 220q35 14 64 14
q51 0 51 -61q0 -8 -1 -18.5t-3 -20.5q-113 -143 -247 -245.5t-282 -166.5q-165 -71 -293 -90.5t-221 -19.5q-34 0 -67 2t-66 6q-141 16 -243.5 62t-174.5 114q-71 66 -110 147.5t-49 174.5q-2 18 -3 36.5t-1 38.5q0 54 11 125.5t50 163.5q57 131 157.5 248t241.5 196
q105 60 200 99t173 67l60 23q-68 27 -127.5 39t-112.5 16h-35q-57 0 -110.5 -11t-94.5 -36q-55 -33 -65 -55v-4q0 -15 14 -35v-12q0 -48 -23.5 -61t-54.5 -13q-8 0 -17 1t-20 3q-41 59 -41 113q0 26 11 57q28 72 125 129q57 33 127.5 50.5t142.5 17.5h22.5t24.5 -2
q80 -5 169 -28.5t194 -70.5q55 -28 66 -52t11 -38q0 -24 -12 -45q-16 -37 -70.5 -62.5t-134.5 -54.5l-43 -16zM551 1237q27 33 63 33q29 0 64 -25q47 -35 47 -67q0 -33 -47 -74q-29 -17 -44.5 -21t-21.5 -4q-22 0 -61 17q-27 32 -27 65q0 2 1 21.5t26 54.5z" />
    <glyph glyph-name="uni062F" unicode="&#x62f;" horiz-adv-x="942" arabic-form="isolated" 
d="M430 733q98 72 160.5 92.5t105.5 20.5h17t16 -2q51 -10 80 -44t39 -83q2 -10 3 -20.5t1 -20.5q0 -62 -31 -141q-28 -68 -82.5 -144t-135.5 -148.5t-188.5 -137t-244.5 -109.5q-88 18 -96 37q-8 16 -8 24q0 31 59 72q119 39 214 95.5t165.5 117.5t117 124.5t68.5 119.5
q23 55 23 88q0 10 -2 16q-4 12 -11 17h-8q-24 0 -66 -17.5t-112 -68.5q-14 -3 -27.5 -4t-23.5 -1q-41 0 -52.5 12.5t-11.5 26.5q0 29 31 78z" />
    <glyph glyph-name="uni0630" unicode="&#x630;" horiz-adv-x="907" arabic-form="isolated" 
d="M430 733q98 72 160.5 92.5t105.5 20.5h17t16 -2q51 -10 80 -44t39 -83q2 -10 3 -20.5t1 -20.5q0 -62 -31 -141q-28 -68 -82.5 -144t-135.5 -148.5t-188.5 -137t-244.5 -109.5q-88 18 -96 37q-8 16 -8 24q0 31 59 72q119 39 214 95.5t165.5 117.5t117 124.5t68.5 119.5
q23 55 23 88q0 10 -2 16q-4 12 -11 17h-8q-24 0 -66 -17.5t-112 -68.5q-14 -3 -27.5 -4t-23.5 -1q-41 0 -52.5 12.5t-11.5 26.5q0 29 31 78zM551 1237q27 33 63 33q29 0 64 -25q47 -35 47 -67q0 -33 -47 -74q-29 -17 -44.5 -21t-21.5 -4q-22 0 -61 17q-27 32 -27 65
q0 2 1 21.5t26 54.5z" />
    <glyph glyph-name="uni0631" unicode="&#x631;" horiz-adv-x="1083" arabic-form="isolated" 
d="M1047 147q-11 -32 -48.5 -86.5t-95 -118t-133.5 -132t-162 -127.5q-116 -80 -245.5 -135.5t-258.5 -57.5q-55 29 -76.5 52.5t-15.5 27.5q0 12 16.5 27.5t73.5 33.5q107 2 216.5 49.5t209.5 116.5q76 53 142.5 111.5t117 113t83 98.5t40.5 68q47 54 78 54q2 0 7 -1t16 -3
q18 -5 35 -91z" />
    <glyph glyph-name="uni0632" unicode="&#x632;" horiz-adv-x="461" arabic-form="isolated" 
d="M367 147q-11 -32 -48.5 -86.5t-95 -118t-133.5 -132t-162 -127.5q-116 -80 -245 -135.5t-258 -57.5q-56 29 -77.5 52.5t-15.5 27.5q0 12 16.5 27.5t73.5 33.5q107 2 216.5 49.5t209.5 116.5q76 53 142.5 111.5t117 113t83 98.5t40.5 68q48 54 78 54q2 0 7.5 -1t15.5 -3
q18 -5 35 -91zM199 682q26 33 63 33q29 0 64 -25q47 -35 47 -67q0 -33 -47 -74q-29 -17 -44.5 -21t-21.5 -4q-22 0 -61 17q-27 32 -27 65q0 2 1 21.5t26 54.5z" />
    <glyph glyph-name="uni0633" unicode="&#x633;" horiz-adv-x="4248" arabic-form="isolated" 
d="M4104 565q-71 0 -150 -60.5t-173 -150.5q-95 -88 -195 -172t-227 -137q-82 -33 -143.5 -39t-90.5 -6q-71 0 -168.5 20.5t-226.5 83.5q-43 -135 -116.5 -288.5t-173 -312t-220.5 -313.5t-256 -292q-119 -121 -248 -224.5t-265 -180t-275.5 -123.5t-280.5 -56h-29
q-104 0 -221 27t-235 86q-111 53 -201 132t-150 177q-2 11 -2 31q0 47 14.5 59.5t28.5 12.5q29 0 82 -31q47 -80 123 -144.5t168 -111.5q105 -51 203 -73.5t184 -22.5h29q125 6 252 49t251 114.5t242.5 168t229.5 208.5q141 144 264 304.5t220 322.5t167 316.5t102 285.5
l25 90l80 -47q119 -69 217 -95t178 -26q10 0 58.5 2.5t123.5 30.5q74 27 142 72q67 45 126.5 98t114.5 107q54 53 107 100t105 81t103.5 52.5t102.5 16.5h23q26 -19 39.5 -33.5t16.5 -23.5t2 -14l-1 -5q0 -31 -66 -66h-10z" />
    <glyph glyph-name="uni0634" unicode="&#x634;" horiz-adv-x="4270" arabic-form="isolated" 
d="M4098 565q-72 0 -150.5 -60.5t-173.5 -150.5q-94 -88 -194 -172t-227 -137q-82 -33 -143.5 -39t-90.5 -6q-72 0 -169 20.5t-226 83.5q-43 -135 -117 -288.5t-173 -312t-220 -313.5t-256 -292q-119 -121 -248 -224.5t-265 -180t-275.5 -123.5t-280.5 -56h-29
q-104 0 -221 27t-236 86q-110 53 -200 132t-150 177q-2 11 -2 31q0 47 14.5 59.5t28.5 12.5q29 0 82 -31q47 -80 123 -144.5t168 -111.5q104 -51 202.5 -73.5t184.5 -22.5h29q125 6 252 49t250.5 114.5t242.5 168t230 208.5q141 144 264 304.5t220 322.5t166.5 316.5
t102.5 285.5l25 90l80 -47q118 -69 216.5 -95t178.5 -26q10 0 58 2.5t124 30.5q74 27 141 72q68 45 127.5 98t114.5 107q53 53 106.5 100t105.5 81t103.5 52.5t102.5 16.5h22q27 -19 40.5 -33.5t16.5 -23.5t2 -14l-1 -5q0 -31 -66 -66h-10zM3183 1327q184 0 287.5 -16.5
t150.5 -42.5q49 -29 57 -54.5t8 -39.5q0 -25 -12 -52q-29 -53 -100 -92q-47 -29 -115 -54.5t-142.5 -45t-150.5 -30.5t-139 -11q-64 26 -68 47q-2 10 -2 15v7q0 33 70 72q55 0 121.5 10.5t132 26.5t124 38.5t99.5 47.5l12 6q-43 12 -123.5 19.5t-209.5 7.5
q-27 18 -39.5 31.5t-17.5 22.5t-4 15.5t1 8.5q0 28 60 63z" />
    <glyph glyph-name="uni0635" unicode="&#x635;" horiz-adv-x="4133" arabic-form="isolated" 
d="M3285 -8q4 14 7 27.5t9 29.5l-36 19q-68 -218 -210.5 -442t-344.5 -441q-205 -217 -448 -400.5t-513 -312.5q-137 -65 -254 -106t-217 -58q-205 -34 -322 -34q-77 0 -152 9t-151 25q-153 35 -297.5 111t-275.5 199q-33 65 -33 102q0 33 31 33q33 0 96 -33
q119 -111 247 -177.5t263 -96.5q131 -31 268 -31q56 0 131.5 7t167.5 26.5t202 55.5t237 95q258 123 491.5 298t425.5 384q211 227 353.5 461.5t191.5 450.5l24 104l86 -61q41 -33 91 -56q43 92 104 190.5t133 174.5q35 39 72 67.5t72 49.5q65 38 133 38q10 0 20 -1t21 -3
q61 -12 108 -59q25 -23 36 -45.5t15 -41t3 -31.5t-1 -17q0 -68 -30 -142q-17 -41 -44.5 -82.5t-62.5 -82.5q-35 -39 -77 -73t-91 -61q-71 -38 -133.5 -50.5t-105.5 -12.5q-23 0 -45.5 2t-45.5 6q-4 -10 -6 -20.5t-4 -20.5q-37 -24 -65 -24q-8 0 -29.5 5t-44.5 46zM3693 449
q-60 -66 -113 -147t-90 -159q10 -2 20.5 -2h20.5q37 0 79 9.5t89 33.5q73 39 129 105q53 63 80 125q18 43 20 63.5t2 26.5q0 20 -10 31q-23 20 -41 22q-4 2 -14 2q-31 0 -64 -20q-53 -31 -108 -90z" />
    <glyph glyph-name="uni0636" unicode="&#x636;" horiz-adv-x="4121" arabic-form="isolated" 
d="M3271 -8q4 14 7 27.5t9 29.5l-37 19q-67 -218 -209.5 -442t-345.5 -441q-205 -217 -447.5 -400.5t-512.5 -312.5q-138 -65 -254.5 -106t-216.5 -58q-205 -34 -322 -34q-78 0 -152.5 9t-150.5 25q-154 35 -298 111t-275 199q-33 65 -33 102q0 33 30 33q33 0 97 -33
q119 -111 247 -177.5t263 -96.5q131 -31 268 -31q55 0 131 7t168 26.5t201.5 55.5t236.5 95q258 123 491.5 298t426.5 384q211 227 353 461.5t192 450.5l24 104l86 -61q41 -33 90 -56q43 92 104.5 190.5t133.5 174.5q35 39 71.5 67.5t71.5 49.5q66 38 133 38q11 0 21 -1
t20 -3q62 -12 109 -59q24 -23 35.5 -45.5t15.5 -41t3 -31.5t-1 -17q0 -68 -31 -142q-16 -41 -43.5 -82.5t-62.5 -82.5q-35 -39 -77 -73t-91 -61q-72 -38 -134.5 -50.5t-105.5 -12.5q-22 0 -44.5 2t-45.5 6q-4 -10 -6 -20.5t-4 -20.5q-37 -24 -66 -24q-8 0 -29.5 5t-43.5 46z
M3678 449q-59 -66 -112.5 -147t-90.5 -159q11 -2 21 -2h20q37 0 79 9.5t89 33.5q74 39 129 105q54 63 80 125q19 43 21 63.5t2 26.5q0 20 -10 31q-23 20 -41 22q-5 2 -15 2q-30 0 -63 -20q-53 -31 -109 -90zM3351 1069q26 33 63 33q29 0 64 -25q47 -35 47 -67q0 -33 -47 -74
q-29 -16 -44.5 -20.5t-21.5 -4.5q-23 0 -61 17q-27 33 -27 65q0 2 1 21.5t26 54.5z" />
    <glyph glyph-name="uni0637" unicode="&#x637;" horiz-adv-x="1421" arabic-form="isolated" 
d="M428 145q33 68 83 160t112 187l57 81q47 84 68 189q10 49 12 85t2 54q0 19 -1 37t-3 39q33 100 53 106q20 7 25 7q32 0 63 -99q2 -20 3 -38.5t1 -37.5q0 -10 -1 -37.5t-5 -72.5q72 55 126 70.5t87 15.5q37 0 78 -12q16 -7 29.5 -13t27.5 -16q66 -45 84.5 -92t18.5 -86
q0 -25 -7 -51q-22 -101 -108 -199q-41 -47 -93.5 -92t-111.5 -86q-110 -76 -239.5 -134.5t-260.5 -86.5q-4 -13 -4 -11l-18 6q-94 -16 -174 -16q-29 0 -96.5 4t-159.5 53q-6 0 -13.5 12.5t-13.5 27t-9 26.5t1 12q0 51 61 51q11 0 21 -1t20 -3q60 -32 112 -38.5t87 -6.5
q39 0 86 6zM739 414q-39 -60 -71.5 -117t-61.5 -109q92 29 178 74t164 98q105 70 178 154q31 37 51.5 70.5t26.5 64.5q2 6 2 19q0 39 -39 65q-12 8 -24 12q-21 5 -31 5q-27 0 -63.5 -15.5t-83.5 -56.5q-84 -70 -164 -180q-4 -4 -5 -8.5t-5 -8.5q-3 0 -3 2z" />
    <glyph glyph-name="uni0638" unicode="&#x638;" horiz-adv-x="1430" arabic-form="isolated" 
d="M428 145q33 68 83 160t112 187l57 81q47 84 68 189q10 49 12 85t2 54q0 19 -1 37t-3 39q33 100 53 106q20 7 25 7q32 0 63 -99q2 -20 3 -38.5t1 -37.5q0 -10 -1 -37.5t-5 -72.5q72 55 126 70.5t87 15.5q37 0 78 -12q16 -7 29.5 -13t27.5 -16q66 -45 84.5 -92t18.5 -86
q0 -25 -7 -51q-22 -101 -108 -199q-41 -47 -93.5 -92t-111.5 -86q-110 -76 -239.5 -134.5t-260.5 -86.5q-4 -13 -4 -11l-18 6q-94 -16 -174 -16q-29 0 -96.5 4t-159.5 53q-6 0 -13.5 12.5t-13.5 27t-9 26.5t1 12q0 51 61 51q11 0 21 -1t20 -3q60 -32 112 -38.5t87 -6.5
q39 0 86 6zM739 414q-39 -60 -71.5 -117t-61.5 -109q92 29 178 74t164 98q105 70 178 154q31 37 51.5 70.5t26.5 64.5q2 6 2 19q0 39 -39 65q-12 8 -24 12q-21 5 -31 5q-27 0 -63.5 -15.5t-83.5 -56.5q-84 -70 -164 -180q-4 -4 -5 -8.5t-5 -8.5q-3 0 -3 2zM1036 1374
q27 33 64 33q28 0 63 -25q47 -34 47 -67t-47 -74q-28 -16 -43.5 -20t-21.5 -4q-23 0 -62 16q-26 33 -26 65q0 2 1 21.5t25 54.5z" />
    <glyph glyph-name="uni0639" unicode="&#x639;" horiz-adv-x="1171" arabic-form="isolated" 
d="M891 338q-4 -10 -11.5 -19.5t-13.5 -19.5q29 6 62 15.5t67 23.5q41 -6 63.5 -14.5t32 -16.5t10.5 -14t1 -8q0 -29 -55 -80q-201 -82 -347.5 -175t-246 -190.5t-154.5 -197t-74 -191.5q-10 -51 -10 -92q0 -53 19.5 -125t78.5 -139q60 -70 148 -110t198 -40q99 0 209.5 36
t226 116t234.5 208t234 312q61 21 98 21q43 0 43 -35q0 -27 -21 -62q-127 -200 -259 -340.5t-264 -228.5t-259 -128t-242 -40q-141 0 -257.5 53t-194.5 146q-80 92 -105.5 186t-25.5 168q0 59 12 121q29 155 146.5 323t345.5 320q-17 -2 -28 -3t-15 -1q-17 0 -25 2l6 92
q-49 39 -69 90q-13 33 -13 66q0 39 15 69q22 60 87.5 111t178.5 80q41 10 67 10q25 0 56.5 -9.5t60.5 -37.5q39 -39 39 -101q0 -18 -2 -28q-4 -29 -15.5 -60.5t-31.5 -62.5zM659 297q35 22 64 52t47 61q25 39 29 69v15q0 2 -8 2q-15 0 -41 -7q-74 -18 -116 -45.5t-52 -58.5
q-4 -12 -4 -18q0 -11 2 -15q8 -18 34 -35q9 -4 20 -10t25 -10z" />
    <glyph glyph-name="uni063A" unicode="&#x63a;" horiz-adv-x="1188" arabic-form="isolated" 
d="M891 338q-4 -10 -11.5 -19.5t-13.5 -19.5q29 6 62 15.5t67 23.5q41 -6 63.5 -14.5t32 -16.5t10.5 -14t1 -8q0 -29 -55 -80q-201 -82 -347.5 -175t-246 -190.5t-154.5 -197t-74 -191.5q-10 -51 -10 -92q0 -53 19.5 -125t78.5 -139q60 -70 148 -110t198 -40q99 0 209.5 36
t226 116t234.5 208t234 312q61 21 98 21q43 0 43 -35q0 -27 -21 -62q-127 -200 -259 -340.5t-264 -228.5t-259 -128t-242 -40q-141 0 -257.5 53t-194.5 146q-80 92 -105.5 186t-25.5 168q0 59 12 121q29 155 146.5 323t345.5 320q-17 -2 -28 -3t-15 -1q-17 0 -25 2l6 92
q-49 39 -69 90q-13 33 -13 66q0 39 15 69q22 60 87.5 111t178.5 80q41 10 67 10q25 0 56.5 -9.5t60.5 -37.5q39 -39 39 -101q0 -18 -2 -28q-4 -29 -15.5 -60.5t-31.5 -62.5zM659 297q35 22 64 52t47 61q25 39 29 69v15q0 2 -8 2q-15 0 -41 -7q-74 -18 -116 -45.5t-52 -58.5
q-4 -12 -4 -18q0 -11 2 -15q8 -18 34 -35q9 -4 20 -10t25 -10zM807 1016q27 33 63 33q29 0 64 -25q47 -35 47 -68q0 -32 -47 -73q-29 -17 -44.5 -21t-21.5 -4q-22 0 -61 16q-27 33 -27 66q0 2 1 21.5t26 54.5z" />
    <glyph glyph-name="uni0641" unicode="&#x641;" horiz-adv-x="1958" arabic-form="isolated" 
d="M1726 575q-45 0 -84 29q-32 21 -45 60q-10 30 -10 59v10q4 41 31 80t80 66q26 10 41 10h6q41 0 72 -31q20 -22 36 -49q17 -35 26 -78t9 -72v-16q0 -182 -164 -328q-75 -69 -177.5 -124.5t-225.5 -96.5q-119 -39 -246 -62.5t-256 -29.5q-22 -2 -42.5 -2h-41.5
q-67 -2 -157.5 7t-182.5 35t-176 69t-135 106q-12 33 -12 55q0 47 61 47q25 0 55 -8q41 -49 111 -82.5t147.5 -53t156.5 -28t138 -6.5h37.5t34.5 2q117 4 234.5 27t228.5 59q110 35 199.5 83t154.5 108q80 67 109 155h-13zM1110 913q27 33 64 33q28 0 63 -24q47 -35 47 -68
t-47 -74q-29 -16 -44 -20t-22 -4q-22 0 -61 16q-27 33 -27 66q0 2 1 21.5t26 53.5z" />
    <glyph glyph-name="uni0642" unicode="&#x642;" horiz-adv-x="1665" arabic-form="isolated" 
d="M1432 326q-33 -9 -66 -9q-12 -4 -36.5 2.5t-50.5 19.5t-45.5 34.5t-23.5 50.5q-8 18 -8 43q0 6 2 23.5t13 44.5q20 55 71 83q33 21 70 21q20 0 53 -8q39 -10 86 -90q35 -62 55.5 -127.5t28.5 -132.5q2 -23 3 -43.5t1 -42.5q0 -105 -32.5 -230t-110.5 -266
q-78 -135 -188.5 -250t-245.5 -192q-78 -48 -162 -76.5t-172 -38.5q-33 -4 -61.5 -6t-57.5 -2q-86 0 -179 23.5t-171 86.5q-105 84 -131 215q-8 41 -8 92q0 82 26 168q45 138 157.5 270t297.5 224q98 -25 100 -43q6 -18 6 -23q0 -28 -43 -61q-153 -78 -250.5 -187.5
t-132.5 -222.5q-20 -61 -20 -122q0 -33 6 -66q14 -82 82 -135q53 -47 123.5 -63.5t134.5 -16.5q25 0 51.5 2t54.5 6q72 8 141.5 32.5t135.5 63.5q117 68 215 169.5t168 224.5q70 118 98.5 226.5t28.5 195.5q0 18 -1 36.5t-3 36.5q-2 17 -4 30t-6 30zM682 907
q72 58 133.5 90.5t109.5 48t85 19.5t59 4q29 0 70 -6t94 -16q16 -5 30.5 -7t30.5 -6q35 -35 42 -57.5t7 -24.5q0 -14 -15 -29.5t-54 -27.5q-29 2 -68 12q-41 8 -74.5 13.5t-56.5 5.5q-18 0 -47 -3t-66.5 -15.5t-86 -39t-105.5 -71.5q-82 2 -94 20q-12 21 -12 35q0 20 18 55z
" />
    <glyph glyph-name="uni0643" unicode="&#x643;" horiz-adv-x="2038" arabic-form="isolated" 
d="M4047 2482q-96 -43 -266 -120.5t-386.5 -183t-467 -234.5t-506.5 -273q-254 -141 -500 -293.5t-457 -308.5t-372.5 -310.5t-247.5 -297.5q-41 -19 -66 -19q-6 0 -16 1t-18.5 8.5t-14.5 22.5t-6 46v15q92 153 261 315t386 322.5t469 318.5t512 303q258 143 510 272
t470 235.5t389 185.5t267 122q93 -10 95 -31q6 -22 6 -24q0 -31 -41 -72zM1958 1110q2 -45 3 -85t1 -77v-69t-4 -81t-18.5 -86t-41.5 -87q-110 -174 -248.5 -292t-291.5 -192q-166 -78 -328 -108.5t-305 -30.5h-35q-160 4 -293 39t-225 90q-94 59 -129 133q2 37 8 57.5
t14.5 32t15.5 13.5t13 2q29 0 76 -43q14 -35 78 -76q74 -47 189.5 -76t256.5 -33h35q125 0 271.5 28t295.5 99q142 66 263.5 171.5t220.5 258.5q18 31 26.5 65t11.5 68.5t3 67.5v57v72t-2 78v8q24 35 43.5 43t25.5 8q15 0 31 -9t39 -38v-8z" />
    <glyph glyph-name="uni0644" unicode="&#x644;" horiz-adv-x="2296" arabic-form="isolated" 
d="M2181 1743q-47 -103 -74.5 -202t-44 -201.5t-24.5 -212t-15 -230.5q-4 -111 -11 -231.5t-23 -262.5q-29 -262 -144.5 -469.5t-300.5 -355.5q-184 -147 -385 -206.5t-387 -59.5q-67 0 -137 6q-180 16 -297 73.5t-184 143.5q-56 72 -74.5 146.5t-18.5 142.5v24.5t2 26.5
q7 92 37.5 185.5t81.5 187.5q62 112 149 221t191.5 199t220 156.5t232.5 97.5q96 -35 96 -52q2 -10 2 -18q0 -33 -61 -66q-105 -28 -207.5 -87.5t-194.5 -140.5t-170 -178t-133 -200q-45 -80 -71.5 -159.5t-32.5 -155.5v-31q0 -53 12 -107.5t51 -105.5q49 -65 141.5 -107
t239.5 -57q62 -6 123 -6q166 0 345 54.5t341 183.5q160 129 263.5 314t127.5 415q17 137 24 257t13 230q6 125 14.5 238.5t24.5 223.5t47 217.5t82 217.5q57 39 86 39q12 0 27.5 -13t15.5 -67v-18v0z" />
    <glyph glyph-name="uni0645" unicode="&#x645;" horiz-adv-x="1436" arabic-form="isolated" 
d="M911 430q-10 31 -10 51q0 17 8.5 43.5t36.5 57.5q29 30 74 48.5t92 22.5q10 2 31 2q33 0 71.5 -7t73.5 -32q29 -18 43.5 -38.5t20.5 -38t7 -30.5t1 -20q0 -59 -55 -141q-17 -18 -22 -24.5t-17 -6.5h-23q-14 2 -28.5 2h-28.5q-111 0 -221.5 -21.5t-216.5 -68.5
q-113 -47 -196 -113.5t-128 -144.5q-45 -73 -73.5 -157t-49 -185.5t-37 -223.5t-35.5 -269q-16 -129 -34.5 -277.5t-44.5 -328.5q-29 -50 -47.5 -67t-32.5 -17q-9 0 -27 16t-33 88q27 180 44.5 326.5t33.5 275.5q18 156 34.5 283t40 234.5t56.5 199.5t84 176
q57 98 155.5 178t233.5 137q51 23 105.5 39.5t113.5 30.5z" />
    <glyph glyph-name="uni0646" unicode="&#x646;" horiz-adv-x="3705" arabic-form="isolated" 
d="M3607 487q10 -94 14 -155.5t4 -108.5q0 -16 -2 -80.5t-12 -138.5v-18q-15 -144 -71 -278t-146.5 -257t-210 -232.5t-263.5 -203.5q-235 -154 -510.5 -263.5t-570.5 -162.5q-129 -23 -256 -35t-254 -12q-16 0 -64 1t-128 3q-156 2 -402 84q-239 78 -419.5 226.5
t-274.5 381.5q22 47 43.5 59.5t34.5 12.5q24 0 53 -19q82 -202 238.5 -331t367.5 -197q223 -72 375 -76q74 -2 118 -3t58 -1q242 0 486 45q278 51 541 154.5t487 251.5q131 86 240.5 184t191.5 207.5t132 228.5t62 246q0 4 1 9t1 9q4 45 8.5 89.5t4.5 95.5t-4.5 114.5
t-12.5 155.5q37 70 74 70q31 0 66 -56zM2945 244q27 32 64 32q28 0 63 -24q47 -35 47 -68q0 -32 -47 -73q-29 -17 -44 -21t-22 -4q-22 0 -61 16q-27 33 -27 66q0 2 1 21.5t26 54.5z" />
    <glyph glyph-name="uni0647" unicode="&#x647;" horiz-adv-x="631" arabic-form="isolated" 
d="M121 539q31 0 65.5 -1t67.5 -3q57 -5 92 -13q55 -14 91 -37.5t59 -56.5q20 -31 23 -55.5t3 -38.5q0 -10 -1 -20.5t-3 -20.5q-12 -60 -55 -117q-43 -61 -110.5 -109.5t-129.5 -60.5q-12 -2 -23.5 -3t-21.5 -1q-31 0 -49 8q-76 25 -90 101q-2 10 -3 21t-1 22q0 28 10 73
q10 49 31.5 100.5t44.5 92.5q-37 31 -37 61q0 29 37 58zM313 385q-18 6 -47 6q-22 -35 -47.5 -88t-36.5 -106q-8 -19 -8 -41q0 -9 2 -13q14 0 21 2q36 9 79 40.5t72 72.5q25 35 31 64q2 6 2 14t-4 16q-15 21 -64 33z" />
    <glyph glyph-name="uni0648" unicode="&#x648;" horiz-adv-x="887" arabic-form="isolated" 
d="M645 14q-98 9 -135 53t-37 97t37 100q35 45 84 60q22 8 49 8q25 0 68 -17q39 -14 67 -102q21 -61 21 -127q0 -94 -41 -172t-109 -139q-63 -58 -142 -100t-165 -68q-68 -23 -134.5 -34t-123.5 -11q-45 32 -57.5 50.5t-12.5 29.5q0 12 13.5 27.5t56.5 33.5q100 0 215 37
q72 22 137.5 57t116.5 82q33 29 56.5 62.5t35.5 72.5z" />
    <glyph glyph-name="uni0649" unicode="&#x649;" horiz-adv-x="3613" arabic-form="isolated" 
d="M3432 352q-6 58 -28 58h-2q-39 -4 -89.5 -40t-93.5 -83q-41 -45 -62.5 -82t-21.5 -55q0 -9 3 -11q4 -4 18 -4h11t22.5 3t42 10.5t69.5 21.5q39 12 74 12q41 0 76 -18q74 -47 74 -150v-12q-2 -43 -14.5 -96t-37.5 -113q-43 -104 -121.5 -232t-193.5 -264.5t-264.5 -274.5
t-331.5 -263l-84 -53q-121 -72 -267.5 -133.5t-305 -105.5t-322.5 -68.5t-319 -24.5h-25q-172 2 -340 34.5t-322.5 102.5t-289.5 179.5t-242 267.5l-41 65v8q0 47 16.5 65.5t38.5 18.5q25 0 66 -18q8 -17 17.5 -30t19.5 -30q94 -141 216 -239t262 -160.5t292.5 -91.5
t308.5 -31h25q147 0 300.5 23.5t302 64.5t286 98.5t249.5 124.5q21 13 40.5 25t39.5 27q172 116 313.5 245t249 257t182 248t113.5 218q41 105 41 160q2 8 2 21q0 12 -4 16h-4q-12 0 -33 -6q-79 -27 -121 -31t-63 -4q-49 0 -95 20.5t-63 73.5q-6 21 -6 45q0 41 28 104.5
t91 133.5q59 65 133 115.5t139 56.5h19q61 0 109.5 -38t58.5 -146q-21 -58 -58 -58l-18 2q-18 0 -66 41z" />
    <glyph glyph-name="uni064A" unicode="&#x64a;" horiz-adv-x="3674" arabic-form="isolated" 
d="M3426 352q-6 58 -28 58h-2q-39 -4 -89.5 -40t-93.5 -83q-41 -45 -62.5 -82t-21.5 -55q0 -9 2 -11q4 -4 19 -4h11t22.5 3t42 10.5t69.5 21.5q39 12 74 12q41 0 76 -18q73 -47 73 -150v-12q-2 -43 -14 -96t-37 -113q-43 -104 -121.5 -232t-193.5 -264.5t-264.5 -274.5
t-331.5 -263l-84 -53q-121 -72 -267.5 -133.5t-305 -105.5t-322.5 -68.5t-320 -24.5h-24q-172 2 -340 34.5t-322.5 102.5t-290 179.5t-241.5 267.5l-41 65v8q0 47 16.5 65.5t38.5 18.5q25 0 66 -18q8 -17 17 -30t20 -30q94 -141 216 -239t262 -160.5t292.5 -91.5t308.5 -31
h25q147 0 300.5 23.5t302 64.5t286 98.5t249.5 124.5q21 13 40.5 25t39.5 27q172 116 313.5 245t249 257t182 248t113.5 218q41 105 41 160q2 8 2 21q0 12 -4 16h-4q-12 0 -33 -6q-80 -27 -122 -31t-62 -4q-49 0 -95 20.5t-63 73.5q-6 21 -6 45q0 41 27.5 104.5t91.5 133.5
q59 65 133 115.5t139 56.5h19q61 0 109 -38t59 -146q-21 -58 -58 -58l-18 2q-19 0 -66 41z" />
    <glyph glyph-name="uni067E" unicode="&#x67e;" horiz-adv-x="2445" arabic-form="isolated" 
d="M2374 813q-37 -78 -94.5 -150.5t-129.5 -142.5q-161 -153 -384.5 -272t-471.5 -185q-123 -32 -236.5 -47.5t-217.5 -15.5q-19 0 -88.5 2t-182.5 25q-108 22 -211 71q-133 62 -233 168q-16 35 -20.5 55.5t-4.5 28.5q0 15 7.5 26t33.5 11q2 0 17.5 -1t70.5 -24
q78 -83 189 -137q90 -41 188 -61q51 -10 91 -15.5t69 -7.5h74q94 0 200.5 14.5t219.5 45.5q229 59 437 169.5t357 252.5q64 59 113 122.5t80 128.5q69 60 100 60q33 0 33 -60q0 -24 -6 -61zM946 -381q184 0 287.5 -16.5t150.5 -42.5q50 -29 58 -54.5t8 -40.5q0 -24 -12 -51
q-29 -53 -101 -92q-47 -29 -114.5 -54.5t-142 -45t-150.5 -30.5t-139 -11q-66 26 -68 49q-2 10 -2 14v6q0 33 70 72q55 0 121.5 10.5t132 26.5t124 38.5t99.5 47.5l12 6q-43 12 -124 19.5t-210 7.5q-26 18 -38.5 31.5t-17.5 22.5t-4 15.5t1 8.5q0 28 59 63z" />
    <glyph glyph-name="uni0686" unicode="&#x686;" horiz-adv-x="1829" arabic-form="isolated" 
d="M735 287q-43 -19 -87 -41.5t-89 -46.5q-123 -70 -208 -169.5t-132 -209.5q-33 -72 -43 -131.5t-10 -102.5q0 -14 1 -28.5t3 -28.5q8 -68 37 -129.5t82 -108.5q55 -53 138 -89t200 -50q57 -6 116 -6q80 0 195 16.5t262 81.5q129 58 251 149t222 220q35 14 64 14
q51 0 51 -61q0 -8 -1 -18.5t-3 -20.5q-113 -143 -247 -245.5t-282 -166.5q-165 -71 -293 -90.5t-221 -19.5q-34 0 -67 2t-66 6q-141 16 -243.5 62t-174.5 114q-71 66 -110 147.5t-49 174.5q-2 18 -3 36.5t-1 38.5q0 54 11 125.5t50 163.5q57 131 157.5 248t241.5 196
q105 60 200 99t173 67l60 23q-68 27 -127.5 39t-112.5 16h-35q-57 0 -110.5 -11t-94.5 -36q-55 -33 -65 -55v-4q0 -15 14 -35v-12q0 -48 -23.5 -61t-54.5 -13q-8 0 -17 1t-20 3q-41 59 -41 113q0 26 11 57q28 72 125 129q57 33 127.5 50.5t142.5 17.5h22.5t24.5 -2
q80 -5 169 -28.5t194 -70.5q55 -28 66 -52t11 -38q0 -24 -12 -45q-16 -37 -70.5 -62.5t-134.5 -54.5l-43 -16zM748 -123q184 0 287.5 -16.5t150.5 -42.5q49 -29 57 -54.5t8 -39.5q0 -25 -12 -52q-29 -53 -100 -92q-47 -29 -115 -54.5t-142.5 -45t-150.5 -30.5t-139 -11
q-66 26 -68 49q-2 10 -2 14v6q0 33 70 72q55 0 121.5 10.5t132 26.5t124 38.5t99.5 47.5l12 6q-43 12 -123.5 19.5t-209.5 7.5q-27 18 -39.5 31.5t-17.5 22.5t-4 15.5t1 8.5q0 28 60 63z" />
    <glyph glyph-name="uni0698" unicode="&#x698;" horiz-adv-x="1083" arabic-form="isolated" 
d="M1040 147q-10 -32 -48 -86.5t-95 -118t-133 -132t-162 -127.5q-117 -80 -246 -135.5t-258 -57.5q-55 29 -76.5 52.5t-15.5 27.5q0 12 16.5 27.5t73.5 33.5q107 2 216.5 49.5t209.5 116.5q76 53 142.5 111.5t116.5 113t83 98.5t41 68q47 54 78 54q2 0 7 -1t16 -3
q18 -5 34 -91zM475 901q184 0 287.5 -16.5t150.5 -42.5q50 -29 58 -54.5t8 -39.5q0 -25 -12 -52q-29 -53 -101 -92q-47 -29 -114.5 -54.5t-142 -45t-150.5 -30.5t-140 -11q-61 26 -65 47l-3 15t-1 7q0 33 69 72q56 0 122.5 10.5t132 26.5t124 38.5t99.5 47.5l12 6
q-43 12 -124 19.5t-210 7.5q-26 18 -38.5 31.5t-17.5 22.5t-4 15.5t1 8.5q0 28 59 63z" />
    <glyph glyph-name="uni06AF" unicode="&#x6af;" horiz-adv-x="2032" arabic-form="isolated" 
d="M4047 2482q-96 -43 -266 -120.5t-386.5 -183t-467 -234.5t-506.5 -273q-254 -141 -500 -293.5t-457 -308.5t-372.5 -310.5t-247.5 -297.5q-41 -19 -66 -19q-6 0 -16 1t-18.5 8.5t-14.5 22.5t-6 46v15q92 153 261 315t386 322.5t469 318.5t512 303q258 143 510 272
t470 235.5t389 185.5t267 122q93 -10 95 -31q6 -22 6 -24q0 -31 -41 -72zM1958 1110q2 -45 3 -85t1 -77v-69t-4 -81t-18.5 -86t-41.5 -87q-110 -174 -248.5 -292t-291.5 -192q-166 -78 -328 -108.5t-305 -30.5h-35q-160 4 -293 39t-225 90q-94 59 -129 133q2 37 8 57.5
t14.5 32t15.5 13.5t13 2q29 0 76 -43q14 -35 78 -76q74 -47 189.5 -76t256.5 -33h35q125 0 271.5 28t295.5 99q142 66 263.5 171.5t220.5 258.5q18 31 26.5 65t11.5 68.5t3 67.5v57v72t-2 78v8q24 35 43.5 43t25.5 8q15 0 31 -9t39 -38v-8zM3754 2671q-70 -37 -158 -77
t-186 -89t-204.5 -109.5t-213.5 -136.5q-16 -4 -22 -4q-21 0 -21 22v11q141 110 267 183t229.5 120t177.5 75.5t111 51.5q36 -11 36 -25q0 -10 -16 -22z" />
    <glyph glyph-name="uniFB57" unicode="&#x67e;" horiz-adv-x="2804" arabic-form="final" 
d="M2789 0q-82 0 -174 29q-39 12 -72.5 28.5t-60.5 32.5q-147 -90 -340.5 -159.5t-396.5 -118t-398.5 -74t-349.5 -23.5h-38.5t-36.5 2q-160 7 -298.5 32.5t-250.5 76.5q-119 55 -200 138t-112 200q-18 63 -18 135q0 31 5 74t15 96q21 104 127 295q46 27 76 27q49 0 49 -72
q0 -14 -2 -25q-88 -155 -110 -250q-19 -92 -19 -145t13 -98q22 -86 82.5 -145.5t152.5 -100.5q98 -45 224 -68.5t270 -27.5h69q117 -2 256.5 11t285.5 41t293.5 67.5t283 92t252 114t202.5 132.5q80 -16 88 -34q13 -23 13 -33q0 -21 -13 -41l-39 -31q13 -6 41 -14
q68 -23 131 -23h21v-141h-21zM942 -645q184 0 287.5 -16.5t150.5 -43.5q50 -28 58 -53.5t8 -40.5q0 -24 -12 -51q-29 -53 -101 -92q-47 -29 -114.5 -54.5t-142.5 -45t-150.5 -30.5t-139.5 -11q-65 26 -67 49q-2 10 -2 14v6q0 33 69 72q56 0 122.5 10t132 26.5t124 39
t99.5 47.5l12 6q-43 12 -124 19.5t-210 7.5q-27 18 -39 31.5t-17 22.5t-4 15t1 8q0 29 59 64z" />
    <glyph glyph-name="uniFB58" unicode="&#x67e;" horiz-adv-x="385" arabic-form="initial" 
d="M276 416q0 -90 -12 -156.5t-33.5 -114t-51 -77t-62.5 -45.5q-51 -27 -111 -27h-6v141h4q27 0 47 10q35 17 59.5 78.5t24.5 190.5q4 30 25.5 44.5t46.5 14.5q22 0 43.5 -15.5t25.5 -43.5zM-35 -219q185 0 288 -16.5t150 -43.5q50 -28 58 -53.5t8 -40.5q0 -24 -12 -51
q-29 -53 -101 -92q-47 -29 -114.5 -54.5t-142 -45t-150.5 -30.5t-139 -11q-62 26 -66 49q-2 10 -3 14t-1 6q0 33 70 72q55 0 121.5 10t132 26.5t124 39t99.5 47.5l12 6q-43 12 -124 19.5t-210 7.5q-26 18 -38.5 31.5t-17.5 22.5t-4 15t1 8q0 29 59 64z" />
    <glyph glyph-name="uniFB59" unicode="&#x67e;" horiz-adv-x="383" arabic-form="medial" 
d="M383 0q-16 0 -40 6t-47.5 18.5t-43 29t-27.5 38.5q-43 -45 -96 -66.5t-111 -25.5h-18v141h8q35 4 66.5 15.5t56.5 38.5q41 45 57 141q17 37 38.5 48t37.5 11q2 0 13.5 -2t21.5 -10t19.5 -21.5t9.5 -37.5v-7q-4 -32 -11.5 -58t-15.5 -46q0 -8 10.5 -20.5t23.5 -23.5
t26.5 -19.5t21.5 -8.5v-141zM-35 -219q185 0 288 -16.5t150 -43.5q50 -28 58 -53.5t8 -40.5q0 -24 -12 -51q-29 -53 -101 -92q-47 -29 -114.5 -54.5t-142 -45t-150.5 -30.5t-139 -11q-62 26 -66 49q-2 10 -3 14t-1 6q0 33 70 72q55 0 121.5 10t132 26.5t124 39t99.5 47.5
l12 6q-43 12 -124 19.5t-210 7.5q-26 18 -38.5 31.5t-17.5 22.5t-4 15t1 8q0 29 59 64z" />
    <glyph glyph-name="uniFB7B" unicode="&#x686;" horiz-adv-x="1157" arabic-form="final" 
d="M1161 0q-53 0 -111.5 15.5t-115.5 47.5q-60 35 -111 89.5t-88 134.5q-43 -19 -87 -41.5t-89 -46.5q-123 -70 -208 -169.5t-132 -209.5q-33 -72 -43 -131.5t-10 -102.5q0 -14 1 -28.5t3 -28.5q8 -68 37 -129.5t82 -108.5q55 -53 138 -89t200 -50q57 -6 116 -6
q80 0 195 16.5t262 81.5q129 58 251 149t222 220q35 14 64 14q51 0 51 -61q0 -8 -1 -18.5t-3 -20.5q-113 -143 -247 -245.5t-282 -166.5q-165 -71 -293 -90.5t-221 -19.5q-34 0 -67 2t-66 6q-141 16 -243.5 62t-174.5 114q-71 66 -110 147.5t-49 174.5q-2 18 -3 36.5
t-1 38.5q0 54 11 125.5t50 163.5q57 131 157.5 248t241.5 196q105 60 200 99t173 67l60 23q-68 27 -127.5 39t-112.5 16h-35q-57 0 -110.5 -11t-94.5 -36q-55 -33 -65 -55v-4q0 -15 14 -35v-12q0 -48 -23.5 -61t-54.5 -13q-8 0 -17 1t-20 3q-41 59 -41 113q0 26 11 57
q28 72 125 129q57 33 127.5 50.5t142.5 17.5h22.5t24.5 -2q80 -5 169 -28.5t194 -70.5q55 -28 66 -52t11 -38q0 -24 -12 -45q-16 -37 -70.5 -62.5t-134.5 -54.5l-43 -16q27 -53 62 -91t76 -63q79 -43 157 -43v-141zM707 -170q184 0 287.5 -16.5t150.5 -42.5q49 -29 57 -54.5
t8 -40.5q0 -24 -12 -51q-29 -53 -100 -92q-47 -29 -115 -54.5t-142.5 -45t-150.5 -30.5t-139 -11q-66 26 -68 49q-2 10 -2 14v6q0 33 70 72q55 0 121.5 10.5t132 26.5t124 38.5t99.5 47.5l12 6q-43 12 -123.5 19.5t-209.5 7.5q-27 18 -39.5 31.5t-17.5 22.5t-4 15t1 9
q0 28 60 63z" />
    <glyph glyph-name="uniFB7C" unicode="&#x686;" horiz-adv-x="1010" arabic-form="initial" 
d="M59 465q54 63 97 94t73.5 43t49 12h20.5q49 0 101.5 -21.5t115.5 -53.5q57 -31 129 -62t166 -43q16 0 33.5 -1t34.5 -3q28 -24 36.5 -41.5t8.5 -30.5q0 -10 -11.5 -28.5t-46.5 -40.5l-59 4q-105 0 -204 -48t-197 -106q-74 -41 -181.5 -81t-224.5 -58v143
q98 19 189.5 52.5t144.5 66.5q51 29 100 56.5t103 52.5l-86 43q-41 20 -75 34.5t-67 14.5t-67.5 -19.5t-73.5 -68.5q-39 -21 -68 -21q-24 0 -39.5 16.5t-15.5 41.5q0 24 14 53zM264 -340q185 0 288 -16.5t150 -42.5q50 -29 58 -54.5t8 -40.5q0 -24 -12 -51q-29 -53 -101 -92
q-47 -29 -114.5 -54.5t-142 -45t-150.5 -30.5t-139 -11q-66 26 -68 49q-2 10 -2 14v6q0 33 70 72q55 0 121.5 10.5t132 26.5t124 38.5t99.5 47.5l12 6q-43 12 -124 19.5t-210 7.5q-26 18 -38.5 31.5t-17.5 22.5t-4 15t1 9q0 28 59 63z" />
    <glyph glyph-name="uniFB7D" unicode="&#x686;" horiz-adv-x="942" arabic-form="medial" 
d="M946 0q-96 0 -168.5 5t-132 23.5t-109 52.5t-94.5 93l-26 -16q-88 -49 -173 -92t-177 -60q-31 -6 -66 -6v141h21.5t21.5 4q72 11 147.5 49.5t153.5 86.5q49 28 99.5 56t103.5 52q-25 10 -46.5 21.5t-43.5 21.5q-41 21 -77 36t-71 15t-70.5 -18.5t-74.5 -67.5
q-47 -24 -72 -24q-16 0 -29.5 10t-13.5 49q0 23 6 53q54 66 97 96.5t75 43.5q37 14 68 12q51 0 105.5 -23.5t119.5 -56.5q60 -31 133.5 -61.5t167.5 -42.5h2q6 0 24.5 -10.5t35.5 -30.5q18 -21 20 -36.5t2 -17.5q0 -22 -28 -51l-60 4q-63 0 -124.5 -19.5t-123.5 -47.5
q35 -37 72 -56.5t77 -30t84 -12.5t93 -2h51v-143zM264 -340q185 0 288 -16.5t150 -42.5q50 -29 58 -54.5t8 -40.5q0 -24 -12 -51q-29 -53 -101 -92q-47 -29 -114.5 -54.5t-142 -45t-150.5 -30.5t-139 -11q-66 26 -68 49q-2 10 -2 14v6q0 33 70 72q55 0 121.5 10.5t132 26.5
t124 38.5t99.5 47.5l12 6q-43 12 -124 19.5t-210 7.5q-26 18 -38.5 31.5t-17.5 22.5t-4 15t1 9q0 28 59 63z" />
    <glyph glyph-name="uniFB8B" unicode="&#x698;" horiz-adv-x="1106" arabic-form="final" 
d="M1038 236q-4 0 -4 -14.5t7.5 -32t22.5 -32t46 -14.5v-143q-59 0 -88 16.5t-41 36t-15 36.5t-10 22q-59 -76 -149 -163t-201 -163q-117 -80 -246 -135.5t-258 -57.5q-55 29 -76.5 52.5t-15.5 27.5q0 13 16.5 28t73.5 34q107 2 216.5 49t209.5 117q64 45 120 92t102.5 93
t81 88t57.5 73q37 57 67.5 81.5t32.5 16.5q17 0 31 -20.5t20 -87.5zM494 874q184 0 287.5 -16t150.5 -43q49 -29 57 -54.5t8 -39.5q0 -25 -12 -51q-29 -54 -100 -92q-47 -29 -115 -54.5t-142.5 -45t-150.5 -31t-139 -11.5q-62 27 -66 47q-2 11 -3 16t-1 7q0 33 70 72
q55 0 121.5 10t132 26.5t124 39t99.5 46.5l12 7q-43 12 -123.5 19t-209.5 7q-27 19 -39.5 32t-17.5 22.5t-4 15.5t1 8q0 29 60 63z" />
    <glyph glyph-name="uniFB8F" unicode="&#x6a9;" horiz-adv-x="2154" arabic-form="final" 
d="M4069 2382q-22 -12 -115.5 -71.5t-238.5 -156t-331.5 -221.5t-390.5 -268t-417 -298t-411 -308q-158 -121 -301.5 -237.5t-262 -223t-204.5 -199t-129 -163.5q-45 -23 -70 -23q-16 0 -33.5 14.5t-17.5 63.5v16q47 78 137 176.5t213 210t271.5 232.5t312.5 245
q200 154 415.5 309.5t421 300t393 270.5t334 223.5t240.5 157.5t115 73q16 0 24 2q74 0 74 -47q0 -31 -29 -78zM2146 0q-24 0 -54 11.5t-56.5 34t-47 54t-26.5 74.5q-92 -98 -204.5 -167.5t-241.5 -119.5q-150 -55 -308.5 -81.5t-314.5 -26.5q-156 2 -298 29.5t-255 80.5
q-129 60 -208 149t-95 212q45 76 63 76q11 2 15 2h6q33 0 55 -60q10 -80 69.5 -142.5t153.5 -107.5q101 -47 228 -71.5t268 -26.5q141 0 287.5 23.5t281.5 76.5q166 62 300 162.5t212 247.5q11 41 28 88t42 98q63 46 96 46q39 0 39 -60v-15t-2 -18q-25 -94 -72 -190
q-6 -27 -9 -50.5t-5 -43.5v-17q0 -41 9 -79.5t55 -47.5v-141h-11z" />
    <glyph glyph-name="uniFB90" unicode="&#x6a9;" horiz-adv-x="434" arabic-form="initial" 
d="M2808 2367q-21 -12 -92.5 -56t-181 -112.5t-250 -156.5t-297 -188.5t-322.5 -207t-326 -210.5q-139 -93 -269 -181t-242.5 -164.5t-200.5 -139t-142 -105.5q-14 -2 -24 -3t-21 -1q-22 0 -41.5 9t-19.5 38q0 6 3 21.5t15 43.5q56 45 145 109.5t202.5 143.5t245.5 167
t274 180q159 105 325 211.5t324 207t298 189.5t250.5 157.5t184.5 113.5t94 57q10 2 20.5 3t20.5 1q25 0 37 -5t17.5 -11t5.5 -13v-14q0 -32 -33 -84zM377 614q-17 -141 -46.5 -243.5t-70.5 -173.5q-55 -101 -122.5 -147t-131.5 -50h-6v143q29 2 65.5 30t71.5 93
q35 60 60.5 150t38.5 213q45 67 79 67q37 0 62 -82z" />
    <glyph glyph-name="uniFB91" unicode="&#x6a9;" horiz-adv-x="336" arabic-form="medial" 
d="M2525 2382q-20 -10 -82.5 -51t-156 -104.5t-212 -147.5t-251.5 -179.5t-274.5 -198t-280.5 -204.5q-138 -100 -268 -196.5t-240.5 -181.5t-197.5 -154.5t-138 -116.5q-10 -2 -20.5 -3t-18.5 -1q-70 0 -70 51q0 27 15 57q53 49 141 120t200.5 156t242.5 182t270 200
q141 102 284.5 205.5t277.5 199.5t254 180t214 149.5t157.5 107.5t84.5 53q14 2 24 3t21 1q24 0 36.5 -5t17.5 -11.5t5 -13.5v-11q0 -33 -35 -86zM178 96q-43 -43 -89 -68.5t-91 -27.5v141q31 4 68.5 40t74.5 89q15 23 32 63t33.5 84t28 84t13.5 62v29q18 63 69 63
q23 0 52 -12q22 -22 22 -61q0 -17 -2 -27q-4 -68 -24.5 -136.5t-53.5 -131.5q-22 -39 -23 -61.5t-1 -24.5q0 -43 51 -58v-143q-66 0 -104.5 28.5t-55.5 67.5z" />
    <glyph glyph-name="uniFB93" unicode="&#x6af;" horiz-adv-x="2140" arabic-form="final" 
d="M4069 2382q-22 -12 -115.5 -71.5t-238.5 -156t-331.5 -221.5t-390.5 -268t-417 -298t-411 -308q-158 -121 -301.5 -237.5t-262 -223t-204.5 -199t-129 -163.5q-45 -23 -70 -23q-16 0 -33.5 14.5t-17.5 63.5v16q47 78 137 176.5t213 210t271.5 232.5t312.5 245
q200 154 415.5 309.5t421 300t393 270.5t334 223.5t240.5 157.5t115 73q16 0 24 2q74 0 74 -47q0 -31 -29 -78zM2146 0q-24 0 -54 11.5t-56.5 34t-47 54t-26.5 74.5q-92 -98 -204.5 -167.5t-241.5 -119.5q-150 -55 -308.5 -81.5t-314.5 -26.5q-156 2 -298 29.5t-255 80.5
q-129 60 -208 149t-95 212q45 76 63 76q11 2 15 2h6q33 0 55 -60q10 -80 69.5 -142.5t153.5 -107.5q101 -47 228 -71.5t268 -26.5q141 0 287.5 23.5t281.5 76.5q166 62 300 162.5t212 247.5q11 41 28 88t42 98q63 46 96 46q39 0 39 -60v-15t-2 -18q-25 -94 -72 -190
q-6 -27 -9 -50.5t-5 -43.5v-17q0 -41 9 -79.5t55 -47.5v-141h-11zM3877 2533q-66 -45 -149 -94t-176 -108.5t-192.5 -130t-197.5 -158.5q-16 -6 -24 -6q-7 0 -14 3t-7 27q129 125 248 211t216 143.5t166.5 93.5t104.5 62q39 -2 39 -20q0 -8 -14 -23z" />
    <glyph glyph-name="uniFB94" unicode="&#x6af;" horiz-adv-x="1917" arabic-form="initial" 
d="M2808 2367q-21 -12 -92.5 -56t-181 -112.5t-250 -156.5t-297 -188.5t-322.5 -207t-326 -210.5q-139 -93 -269 -181t-242.5 -164.5t-200.5 -139t-142 -105.5q-14 -2 -24 -3t-21 -1q-22 0 -41.5 9t-19.5 38q0 6 3 21.5t15 43.5q56 45 145 109.5t202.5 143.5t245.5 167
t274 180q159 105 325 211.5t324 207t298 189.5t250.5 157.5t184.5 113.5t94 57q10 2 20.5 3t20.5 1q25 0 37 -5t17.5 -11t5.5 -13v-14q0 -32 -33 -84zM377 614q-17 -141 -46.5 -243.5t-70.5 -173.5q-55 -101 -122.5 -147t-131.5 -50h-6v143q29 2 65.5 30t71.5 93
q35 60 60.5 150t38.5 213q45 67 79 67q37 0 62 -82zM2613 2580q-65 -45 -148 -94t-176.5 -108.5t-192.5 -130t-198 -158.5q-16 -6 -24 -6q-6 0 -13.5 3t-7.5 28q129 124 248 210t216.5 143.5t167 93.5t104.5 62q39 -2 39 -20q0 -8 -15 -23z" />
    <glyph glyph-name="uniFB95" unicode="&#x6af;" horiz-adv-x="332" arabic-form="medial" 
d="M2525 2382q-20 -10 -82.5 -51t-156 -104.5t-212 -147.5t-251.5 -179.5t-274.5 -198t-280.5 -204.5q-138 -100 -268 -196.5t-240.5 -181.5t-197.5 -154.5t-138 -116.5q-10 -2 -20.5 -3t-18.5 -1q-70 0 -70 51q0 27 15 57q53 49 141 120t200.5 156t242.5 182t270 200
q141 102 284.5 205.5t277.5 199.5t254 180t214 149.5t157.5 107.5t84.5 53q14 2 24 3t21 1q24 0 36.5 -5t17.5 -11.5t5 -13.5v-11q0 -33 -35 -86zM178 96q-43 -43 -89 -68.5t-91 -27.5v141q31 4 68.5 40t74.5 89q15 23 32 63t33.5 84t28 84t13.5 62v29q18 63 69 63
q23 0 52 -12q22 -22 22 -61q0 -17 -2 -27q-4 -68 -24.5 -136.5t-53.5 -131.5q-22 -39 -23 -61.5t-1 -24.5q0 -43 51 -58v-143q-66 0 -104.5 28.5t-55.5 67.5zM2349 2572q-65 -45 -148 -94t-176.5 -108.5t-192.5 -130t-198 -158.5q-16 -6 -24 -6q-6 0 -13.5 3t-7.5 27
q129 125 248 211t216 143.5t167 93.5t104 62q39 -2 39 -20q0 -8 -14 -23z" />
    <glyph glyph-name="uniFBA5" unicode="&#x6c0;" horiz-adv-x="1051" arabic-form="final" 
d="M1059 0q-96 2 -156.5 18.5t-94.5 42t-46 60.5t-12 74q0 24 5 45.5t9 44.5l6 28q-22 2 -43.5 2h-42.5q-135 0 -244.5 -34.5t-165.5 -100.5q-38 -47 -38 -98v-4q6 -55 55 -103q76 -69 196 -94q119 -24 222 -24q110 0 245 18q72 -35 72 -70v-8q-4 -24 -53 -63
q-139 -19 -256 -19q-66 0 -135.5 9.5t-145.5 25.5q-145 33 -241 123q-48 43 -71.5 93t-27.5 104q-2 8 -2 22q0 94 74 178q74 88 210 136.5t308 48.5h46.5t47.5 -2q84 -4 108.5 -41t24.5 -86v-9q-2 -30 -12 -65q-10 -37 -10 -57q0 -21 31.5 -36.5t136.5 -17.5v-141zM143 989
q7 6 24 12.5t30 6.5q2 0 10 -1t10 -8v-6q0 -12 -24 -39q-23 -22 -32 -35.5t-12.5 -19.5t-2.5 -9l1 -3q0 -17 12.5 -22t30 -8t38 -7t38.5 -14q21 -13 22 -27t1 -16q0 -31 -39 -84q-4 -4 -14.5 -15.5t-22.5 -24t-24.5 -23.5t-20.5 -15q-25 -10 -31 -10q-10 0 -10 8
q-6 0 7 20.5t30.5 45t33 48t17.5 31.5q0 12 -8 12q-25 2 -54.5 8.5t-50.5 20.5q-20 16 -22 32.5t-2 20.5q0 25 22 70z" />
    <glyph glyph-name="uniFBFD" unicode="&#x6cc;" horiz-adv-x="5423" arabic-form="final" 
d="M5425 0q-4 0 -22.5 -1t-51.5 -3q-65 -4 -196 -68q-141 -71 -294 -196t-314 -281q-541 -526 -1025.5 -886.5t-902.5 -569.5q-460 -229 -704 -262q-125 -17 -214 -26t-147 -9q-233 0 -426 74q-59 22 -121.5 53t-125.5 72q-136 86 -247.5 207.5t-178.5 281.5
q-66 158 -70 260q-2 51 -3 79t-1 36q0 180 76 383q28 76 69 154.5t95 160.5q47 29 75 29q43 0 43 -70v-16t-2 -18q-96 -152 -147 -289q-68 -182 -68 -338v-27.5t2 -66.5t16.5 -98.5t43.5 -123.5q59 -137 158.5 -243.5t215.5 -182.5q54 -34 110 -62t112 -50q166 -64 374 -64
q54 0 140 9.5t202 25.5q117 17 281 79t381 169q408 203 883 558t1007 871q172 166 332 296t313 208q166 82 244 84q41 2 64.5 3t27.5 1z" />
    <glyph glyph-name="uniFBFE" unicode="&#x6cc;" horiz-adv-x="393" arabic-form="initial" 
d="M276 416q0 -90 -12 -156.5t-33.5 -114t-51 -77t-62.5 -45.5q-51 -27 -111 -27h-6v141h4q27 0 47 10q35 17 59.5 78.5t24.5 190.5q4 30 25.5 44.5t46.5 14.5q22 0 43.5 -15.5t25.5 -43.5zM-369 -616q72 57 133.5 89.5t109.5 48t85 19.5t59 4q29 0 70 -6t94 -16
q17 -4 31 -6t31 -6q35 -35 42 -57.5t7 -24.5q0 -15 -15.5 -30t-54.5 -28q-28 2 -67 13q-41 8 -75 13t-56 5q-19 0 -47.5 -3t-66.5 -15.5t-86 -39t-106 -71.5q-84 4 -94 22q-12 19 -12 33q0 21 18 56z" />
    <glyph glyph-name="uniFBFF" unicode="&#x6cc;" horiz-adv-x="383" arabic-form="medial" 
d="M383 0q-16 0 -40 6t-47.5 18.5t-43 29t-27.5 38.5q-43 -45 -96 -66.5t-111 -25.5h-18v141h8q35 4 66.5 15.5t56.5 38.5q41 45 57 141q17 37 38.5 48t37.5 11q2 0 13.5 -2t21.5 -10t19.5 -21.5t9.5 -37.5v-7q-4 -32 -11.5 -58t-15.5 -46q0 -8 10.5 -20.5t23.5 -23.5
t26.5 -19.5t21.5 -8.5v-141zM-369 -616q72 57 133.5 89.5t109.5 48t85 19.5t59 4q29 0 70 -6t94 -16q17 -4 31 -6t31 -6q35 -35 42 -57.5t7 -24.5q0 -15 -15.5 -30t-54.5 -28q-28 2 -67 13q-41 8 -75 13t-56 5q-19 0 -47.5 -3t-66.5 -15.5t-86 -39t-106 -71.5q-84 4 -94 22
q-12 19 -12 33q0 21 18 56z" />
    <glyph glyph-name="uniFE82" unicode="&#x622;" horiz-adv-x="199" arabic-form="final" 
d="M199 0q-23 0 -41 6q-33 8 -60 27q-43 30 -62.5 83.5t-21.5 123.5v18q0 96 35 240q17 67 39.5 137t47 133t48 117.5t43.5 93.5q19 37 49.5 49t53.5 12q18 0 40.5 -11t22.5 -34q0 -18 -14 -39h-2q-17 -22 -41.5 -72t-52 -118t-53 -145.5t-44.5 -155.5q-16 -62 -24 -119
t-8 -104q2 -74 26 -95q4 -4 10 -4q3 -2 9 -2v-141zM756 1491q26 12 45 12q12 0 27.5 -7t15.5 -26q0 -8 -6.5 -23t-30.5 -32q-68 -33 -126 -38t-101 -5q-19 -2 -56 1t-83 8t-96 9.5t-97 4.5q-62 0 -112 -18.5t-83 -65.5q-20 -29 -35.5 -33t-21.5 -4q-14 0 -20.5 9t-6.5 22
q0 12 9.5 39.5t60.5 80.5q35 37 83 48.5t101 11.5q6 0 38 -1t99 -9q68 -9 120 -13t91 -4q29 0 77 3t108 30z" />
    <glyph glyph-name="uniFE84" unicode="&#x623;" horiz-adv-x="199" arabic-form="final" 
d="M199 0q-23 0 -41 6q-33 8 -60 27q-43 30 -62.5 83.5t-21.5 123.5v18q0 96 35 240q17 67 39.5 137t47 133t48 117.5t43.5 93.5q19 37 49.5 49t53.5 12q18 0 40.5 -11t22.5 -34q0 -18 -14 -39h-2q-17 -22 -41.5 -72t-52 -118t-53 -145.5t-44.5 -155.5q-16 -62 -24 -119
t-8 -104q2 -74 26 -95q4 -4 10 -4q3 -2 9 -2v-141zM264 1556q6 7 23.5 13t29.5 6q2 0 10.5 -1t10.5 -7v-6q0 -13 -25 -39q-22 -23 -31.5 -36t-12.5 -19.5t-2 -9.5l1 -3q0 -16 12.5 -21.5t30 -8.5t38 -7t38.5 -14q21 -12 22 -26.5t1 -16.5q0 -31 -39 -84q-4 -4 -14.5 -15.5
t-22.5 -23.5t-24.5 -23.5t-20.5 -15.5q-25 -10 -31 -10q-10 0 -10 8q-6 0 7 20.5t30.5 45t33 48t17.5 31.5q0 13 -8 13q-25 2 -54.5 8t-50.5 20q-20 17 -22 33.5t-2 20.5q0 24 22 69z" />
    <glyph glyph-name="uniFE86" unicode="&#x624;" horiz-adv-x="934" arabic-form="final" 
d="M940 0h-17t-3 1t-3.5 1h-17.5q-29 -98 -94.5 -181t-157.5 -151q-110 -82 -246.5 -137t-265.5 -80q-4 -2 -12 -2q-17 0 -35 7t-35.5 17.5t-29 25t-11.5 26.5t8 29q11 18 89 36q116 23 236 72t220 121q64 47 113 103.5t74 119.5q-119 17 -167 66t-48 104q0 35 15 65.5
t42 55.5q47 47 115 59q10 2 18 3t18 1q43 0 95 -28q49 -29 67 -125q4 -16 5 -32.5t3 -33.5h27q-2 -34 -2 -71v-72zM670 854q6 6 23.5 12t29.5 6q2 0 10 -1t10 -7v-6q0 -12 -24 -39q-23 -22 -32 -35.5t-12 -19.5t-2 -9l1 -3q0 -17 12 -22t29.5 -8t38 -7t39.5 -15
q20 -12 21 -26.5t1 -16.5q0 -30 -39 -84q-4 -4 -14 -15t-22.5 -23.5t-25 -23.5t-20.5 -15q-24 -11 -30 -11q-11 0 -11 9q-6 0 7.5 20.5t31 45t32.5 48t17 31.5q0 12 -8 12q-24 2 -54 8.5t-50 20.5q-21 16 -23 32.5t-2 20.5q0 25 23 70z" />
    <glyph glyph-name="uniFE88" unicode="&#x625;" horiz-adv-x="193" arabic-form="final" 
d="M199 0q-23 0 -41 6q-33 8 -60 27q-43 30 -62.5 83.5t-21.5 123.5v18q0 96 35 240q17 67 39.5 137t47 133t48 117.5t43.5 93.5q19 37 49.5 49t53.5 12q18 0 40.5 -11t22.5 -34q0 -18 -14 -39h-2q-17 -22 -41.5 -72t-52 -118t-53 -145.5t-44.5 -155.5q-16 -62 -24 -119
t-8 -104q2 -74 26 -95q4 -4 10 -4q3 -2 9 -2v-141zM45 -104q6 6 23.5 12t29.5 6q2 0 10.5 -1t10.5 -7v-6q0 -13 -25 -39q-22 -23 -31.5 -36t-12.5 -19.5t-2 -9.5l1 -3q0 -16 12.5 -21t30 -8.5t38 -7.5t38.5 -14q20 -12 21 -26.5t1 -16.5q0 -31 -38 -84q-5 -4 -15 -15.5
t-22.5 -23.5t-24.5 -23.5t-20 -15.5q-25 -10 -31 -10q-10 0 -10 8q-6 0 7 20.5t30.5 45t33 48t17.5 32.5q0 12 -8 12q-25 2 -54.5 8t-50.5 23q-20 14 -22 30.5t-2 20.5q0 24 22 69z" />
    <glyph glyph-name="uniFE8A" unicode="&#x626;" horiz-adv-x="5112" arabic-form="final" 
d="M5114 0q-4 0 -22.5 -1t-51.5 -3q-65 -4 -196 -68q-142 -71 -294.5 -196t-314.5 -281q-540 -526 -1024.5 -886.5t-902.5 -569.5q-461 -229 -704 -262q-125 -17 -214.5 -26t-146.5 -9q-233 0 -426 74q-59 22 -121.5 53t-126.5 72q-135 86 -246.5 207.5t-179.5 281.5
q-65 158 -69 260q-2 51 -3 79t-1 36q0 180 75 383q29 76 70 154.5t94 160.5q47 29 76 29q43 0 43 -70v-16t-2 -18q-96 -152 -147 -289q-68 -182 -68 -338v-27.5t2 -66.5t16.5 -98.5t42.5 -123.5q60 -137 159 -243.5t216 -182.5q53 -34 109.5 -62t111.5 -50q166 -64 375 -64
q53 0 139 9.5t203 25.5q117 17 281 79t381 169q407 203 882 558t1008 871q172 166 331.5 296t313.5 208q166 82 244 84q41 2 64.5 3t27.5 1zM5030 739q6 6 23.5 12.5t29.5 6.5q2 0 10.5 -1t10.5 -7v-7q0 -12 -25 -38q-22 -23 -31.5 -36.5t-12.5 -19.5t-2 -9l1 -3
q0 -16 12.5 -21.5t29.5 -8.5t37.5 -7t39.5 -14q20 -13 21 -27t1 -16q0 -31 -39 -84q-4 -4 -14 -15.5t-22.5 -23.5t-24.5 -23.5t-21 -15.5q-24 -10 -30 -10q-10 0 -10 8q-7 0 6.5 20.5t31 45t33 48t17.5 31.5q0 13 -9 13q-24 2 -54 8t-50 20q-21 17 -23 33t-2 20q0 25 23 70z
" />
    <glyph glyph-name="uniFE8B" unicode="&#x626;" horiz-adv-x="373" arabic-form="initial" 
d="M276 416q0 -90 -12 -156.5t-33.5 -114t-51 -77t-62.5 -45.5q-51 -27 -111 -27h-6v141h4q27 0 47 10q35 17 59.5 78.5t24.5 190.5q4 30 25.5 44.5t46.5 14.5q22 0 43.5 -15.5t25.5 -43.5zM147 989q7 6 24 12.5t30 6.5q2 0 10 -1t10 -8v-6q0 -12 -24 -39q-23 -22 -32 -35.5
t-12 -19.5t-2 -9l1 -3q0 -17 12 -22t29.5 -8t38 -7t38.5 -14q21 -13 22 -27t1 -16q0 -31 -39 -84q-4 -4 -14.5 -15.5t-22.5 -24t-24.5 -23.5t-20.5 -15q-25 -10 -31 -10q-10 0 -10 8q-6 0 7.5 20.5t30.5 45t32.5 48t17.5 31.5q0 12 -8 12q-25 2 -54.5 8.5t-50.5 20.5
q-20 16 -22 32.5t-2 20.5q0 25 22 70z" />
    <glyph glyph-name="uniFE8C" unicode="&#x626;" horiz-adv-x="393" arabic-form="medial" 
d="M395 0q-16 0 -41.5 6t-51.5 18.5t-47.5 29t-29.5 38.5q-43 -45 -96 -66.5t-111 -25.5h-18v141h8q35 4 66.5 15.5t56.5 38.5q41 45 57 141q17 37 38.5 48t37.5 11q2 0 13.5 -2t21.5 -10t19.5 -21.5t9.5 -37.5v-7q-4 -32 -11.5 -58t-15.5 -46q0 -8 12.5 -20.5t27.5 -23.5
t30.5 -19.5t23.5 -8.5v-141zM158 907q6 6 23.5 12.5t29.5 6.5q2 0 10 -1t10 -7v-7q0 -12 -24 -39q-23 -22 -32 -35.5t-12 -19.5t-2 -9l1 -3q0 -17 12 -22t29.5 -8t38 -7t39.5 -14q20 -13 21 -27t1 -16q0 -31 -39 -84q-4 -4 -14 -15.5t-22.5 -24t-25 -23.5t-20.5 -15
q-24 -10 -30 -10q-11 0 -11 8q-6 0 7.5 20.5t31 45t32.5 48t17 31.5q0 13 -8 13q-24 2 -54 8t-50 20q-21 17 -23 33t-2 20q0 25 23 70z" />
    <glyph glyph-name="uniFE8E" unicode="&#x627;" horiz-adv-x="199" arabic-form="final" 
d="M199 0q-23 0 -41 6q-33 8 -60 27q-43 30 -62.5 83.5t-21.5 123.5v18q0 96 35 240q17 67 39.5 137t47 133t48 117.5t43.5 93.5q19 37 49.5 49t53.5 12q18 0 40.5 -11t22.5 -34q0 -18 -14 -39h-2q-17 -22 -41.5 -72t-52 -118t-53 -145.5t-44.5 -155.5q-16 -62 -24 -119
t-8 -104q2 -74 26 -95q4 -4 10 -4q3 -2 9 -2v-141v0z" />
    <glyph glyph-name="uniFE90" unicode="&#x628;" horiz-adv-x="2804" arabic-form="final" 
d="M2789 0q-82 0 -174 29q-39 12 -72.5 28.5t-60.5 32.5q-147 -90 -340.5 -159.5t-396.5 -118t-398.5 -74t-349.5 -23.5h-38.5t-36.5 2q-160 7 -298.5 32.5t-250.5 76.5q-119 55 -200 138t-112 200q-18 63 -18 135q0 31 5 74t15 96q21 104 127 295q46 27 76 27q49 0 49 -72
q0 -14 -2 -25q-88 -155 -110 -250q-19 -92 -19 -145t13 -98q22 -86 82.5 -145.5t152.5 -100.5q98 -45 224 -68.5t270 -27.5h69q117 -2 256.5 11t285.5 41t293.5 67.5t283 92t252 114t202.5 132.5q80 -16 88 -34q13 -23 13 -33q0 -21 -13 -41l-39 -31q13 -6 41 -14
q68 -23 131 -23h21v-141h-21zM1038 -565q27 33 64 33q28 0 63 -25q47 -35 47 -68q0 -32 -47 -73q-28 -17 -43.5 -21t-21.5 -4q-23 0 -62 16q-26 33 -26 66q0 2 1 21.5t25 54.5z" />
    <glyph glyph-name="uniFE91" unicode="&#x628;" horiz-adv-x="367" arabic-form="initial" 
d="M276 416q0 -90 -12 -156.5t-33.5 -114t-51 -77t-62.5 -45.5q-51 -27 -111 -27h-6v141h4q27 0 47 10q35 17 59.5 78.5t24.5 190.5q4 30 25.5 44.5t46.5 14.5q22 0 43.5 -15.5t25.5 -43.5zM47 -414q27 33 64 33q28 0 63 -25q47 -34 47 -67t-47 -74q-29 -16 -44 -20t-21 -4
q-23 0 -62 16q-27 33 -27 66q0 2 1.5 21t25.5 54z" />
    <glyph glyph-name="uniFE92" unicode="&#x628;" horiz-adv-x="383" arabic-form="medial" 
d="M383 0q-16 0 -40 6t-47.5 18.5t-43 29t-27.5 38.5q-43 -45 -96 -66.5t-111 -25.5h-18v141h8q35 4 66.5 15.5t56.5 38.5q41 45 57 141q17 37 38.5 48t37.5 11q2 0 13.5 -2t21.5 -10t19.5 -21.5t9.5 -37.5v-7q-4 -32 -11.5 -58t-15.5 -46q0 -8 10.5 -20.5t23.5 -23.5
t26.5 -19.5t21.5 -8.5v-141zM129 -256q27 33 64 33q28 0 63 -25q47 -35 47 -67q0 -33 -47 -74q-29 -17 -44 -21t-22 -4q-22 0 -61 17q-27 32 -27 65q0 2 1 21.5t26 54.5z" />
    <glyph glyph-name="uniFE96" unicode="&#x62a;" horiz-adv-x="2804" arabic-form="final" 
d="M2789 0q-82 0 -174 29q-39 12 -72.5 28.5t-60.5 32.5q-147 -90 -340.5 -159.5t-396.5 -118t-398.5 -74t-349.5 -23.5h-38.5t-36.5 2q-160 7 -298.5 32.5t-250.5 76.5q-119 55 -200 138t-112 200q-18 63 -18 135q0 31 5 74t15 96q21 104 127 295q46 27 76 27q49 0 49 -72
q0 -14 -2 -25q-88 -155 -110 -250q-19 -92 -19 -145t13 -98q22 -86 82.5 -145.5t152.5 -100.5q98 -45 224 -68.5t270 -27.5h69q117 -2 256.5 11t285.5 41t293.5 67.5t283 92t252 114t202.5 132.5q80 -16 88 -34q13 -23 13 -33q0 -21 -13 -41l-39 -31q13 -6 41 -14
q68 -23 131 -23h21v-141h-21zM952 514q72 57 133.5 90t109.5 48.5t85 19.5t59 4q29 0 70 -6t94 -17q17 -4 31 -6t31 -6q34 -35 41.5 -57.5t7.5 -24.5q0 -14 -15.5 -29.5t-54.5 -27.5q-28 2 -67 12q-41 8 -75 13t-56 5q-19 0 -47.5 -3t-66.5 -15t-86 -38.5t-106 -72.5
q-82 3 -94 21q-12 20 -12 35q0 20 18 55z" />
    <glyph glyph-name="uniFE97" unicode="&#x62a;" horiz-adv-x="379" arabic-form="initial" 
d="M276 416q0 -90 -12 -156.5t-33.5 -114t-51 -77t-62.5 -45.5q-51 -27 -111 -27h-6v141h4q27 0 47 10q35 17 59.5 78.5t24.5 190.5q4 30 25.5 44.5t46.5 14.5q22 0 43.5 -15.5t25.5 -43.5zM-63 719q71 57 132.5 90t109.5 48t85 19.5t60 4.5q28 0 69 -6.5t94 -16.5
q17 -4 31 -6t31 -6q35 -35 42 -57.5t7 -24.5q0 -14 -15.5 -29.5t-54.5 -27.5q-28 2 -67 12q-41 8 -75 13t-56 5q-19 0 -47.5 -3t-66.5 -15t-86 -39t-105 -72q-82 2 -95 21q-12 20 -12 35q0 20 19 55z" />
    <glyph glyph-name="uniFE98" unicode="&#x62a;" horiz-adv-x="383" arabic-form="medial" 
d="M383 0q-16 0 -40 6t-47.5 18.5t-43 29t-27.5 38.5q-43 -45 -96 -66.5t-111 -25.5h-18v141h8q35 4 66.5 15.5t56.5 38.5q41 45 57 141q17 37 38.5 48t37.5 11q2 0 13.5 -2t21.5 -10t19.5 -21.5t9.5 -37.5v-7q-4 -32 -11.5 -58t-15.5 -46q0 -8 10.5 -20.5t23.5 -23.5
t26.5 -19.5t21.5 -8.5v-141zM-63 719q71 57 132.5 90t109.5 48t85 19.5t60 4.5q28 0 69 -6.5t94 -16.5q17 -4 31 -6t31 -6q35 -35 42 -57.5t7 -24.5q0 -14 -15.5 -29.5t-54.5 -27.5q-28 2 -67 12q-41 8 -75 13t-56 5q-19 0 -47.5 -3t-66.5 -15t-86 -39t-105 -72
q-82 2 -95 21q-12 20 -12 35q0 20 19 55z" />
    <glyph glyph-name="uniFE9A" unicode="&#x62b;" horiz-adv-x="2804" arabic-form="final" 
d="M2789 0q-82 0 -174 29q-39 12 -72.5 28.5t-60.5 32.5q-147 -90 -340.5 -159.5t-396.5 -118t-398.5 -74t-349.5 -23.5h-38.5t-36.5 2q-160 7 -298.5 32.5t-250.5 76.5q-119 55 -200 138t-112 200q-18 63 -18 135q0 31 5 74t15 96q21 104 127 295q46 27 76 27q49 0 49 -72
q0 -14 -2 -25q-88 -155 -110 -250q-19 -92 -19 -145t13 -98q22 -86 82.5 -145.5t152.5 -100.5q98 -45 224 -68.5t270 -27.5h69q117 -2 256.5 11t285.5 41t293.5 67.5t283 92t252 114t202.5 132.5q80 -16 88 -34q13 -23 13 -33q0 -21 -13 -41l-39 -31q13 -6 41 -14
q68 -23 131 -23h21v-141h-21zM1235 831q184 0 287.5 -16t150.5 -43q49 -29 57.5 -54.5t8.5 -39.5q0 -25 -13 -51q-28 -54 -100 -92q-47 -29 -114.5 -54.5t-142.5 -45t-150.5 -31t-139.5 -11.5q-63 27 -67 47q-2 11 -2 16v7q0 33 69 72q56 0 122.5 10t132 26.5t124 39
t98.5 46.5l13 7q-43 12 -124 19t-210 7q-27 19 -39 32t-17 22.5t-4 15.5t1 8q0 29 59 63z" />
    <glyph glyph-name="uniFE9B" unicode="&#x62b;" horiz-adv-x="379" arabic-form="initial" 
d="M276 416q0 -90 -12 -156.5t-33.5 -114t-51 -77t-62.5 -45.5q-51 -27 -111 -27h-6v141h4q27 0 47 10q35 17 59.5 78.5t24.5 190.5q4 30 25.5 44.5t46.5 14.5q22 0 43.5 -15.5t25.5 -43.5zM125 1204q184 0 287.5 -16.5t150.5 -42.5q49 -29 57.5 -54.5t8.5 -39.5
q0 -25 -13 -52q-28 -53 -100 -92q-47 -28 -114.5 -54t-142.5 -45.5t-150.5 -30.5t-139.5 -11q-61 27 -65 47q-2 10 -3 15.5t-1 7.5q0 32 69 71q56 0 122.5 10.5t132 27t124 39t98.5 46.5l13 6q-43 13 -124 20t-210 7q-27 18 -39 31.5t-17.5 22.5t-4 15.5t1.5 8.5q0 28 59 63
z" />
    <glyph glyph-name="uniFE9C" unicode="&#x62b;" horiz-adv-x="383" arabic-form="medial" 
d="M383 0q-16 0 -40 6t-47.5 18.5t-43 29t-27.5 38.5q-43 -45 -96 -66.5t-111 -25.5h-18v141h8q35 4 66.5 15.5t56.5 38.5q41 45 57 141q17 37 38.5 48t37.5 11q2 0 13.5 -2t21.5 -10t19.5 -21.5t9.5 -37.5v-7q-4 -32 -11.5 -58t-15.5 -46q0 -8 10.5 -20.5t23.5 -23.5
t26.5 -19.5t21.5 -8.5v-141zM125 1204q184 0 287.5 -16.5t150.5 -42.5q49 -29 57.5 -54.5t8.5 -39.5q0 -25 -13 -52q-28 -53 -100 -92q-47 -28 -114.5 -54t-142.5 -45.5t-150.5 -30.5t-139.5 -11q-61 27 -65 47q-2 10 -3 15.5t-1 7.5q0 32 69 71q56 0 122.5 10.5t132 27
t124 39t98.5 46.5l13 6q-43 13 -124 20t-210 7q-27 18 -39 31.5t-17.5 22.5t-4 15.5t1.5 8.5q0 28 59 63z" />
    <glyph glyph-name="uniFE9E" unicode="&#x62c;" horiz-adv-x="1157" arabic-form="final" 
d="M1161 0q-53 0 -111.5 15.5t-115.5 47.5q-60 35 -111 89.5t-88 134.5q-43 -19 -87 -41.5t-89 -46.5q-123 -70 -208 -169.5t-132 -209.5q-33 -72 -43 -131.5t-10 -102.5q0 -14 1 -28.5t3 -28.5q8 -68 37 -129.5t82 -108.5q55 -53 138 -89t200 -50q57 -6 116 -6
q80 0 195 16.5t262 81.5q129 58 251 149t222 220q35 14 64 14q51 0 51 -61q0 -8 -1 -18.5t-3 -20.5q-113 -143 -247 -245.5t-282 -166.5q-165 -71 -293 -90.5t-221 -19.5q-34 0 -67 2t-66 6q-141 16 -243.5 62t-174.5 114q-71 66 -110 147.5t-49 174.5q-2 18 -3 36.5
t-1 38.5q0 54 11 125.5t50 163.5q57 131 157.5 248t241.5 196q105 60 200 99t173 67l60 23q-68 27 -127.5 39t-112.5 16h-35q-57 0 -110.5 -11t-94.5 -36q-55 -33 -65 -55v-4q0 -15 14 -35v-12q0 -48 -23.5 -61t-54.5 -13q-8 0 -17 1t-20 3q-41 59 -41 113q0 26 11 57
q28 72 125 129q57 33 127.5 50.5t142.5 17.5h22.5t24.5 -2q80 -5 169 -28.5t194 -70.5q55 -28 66 -52t11 -38q0 -24 -12 -45q-16 -37 -70.5 -62.5t-134.5 -54.5l-43 -16q27 -53 62 -91t76 -63q79 -43 157 -43v-141zM698 -293q27 33 64 33q29 0 63 -25q47 -34 47 -67t-47 -74
q-28 -16 -43.5 -20.5t-21.5 -4.5q-23 0 -62 17q-26 33 -26 65q0 2 1 21.5t25 54.5z" />
    <glyph glyph-name="uniFE9F" unicode="&#x62c;" horiz-adv-x="1010" arabic-form="initial" 
d="M59 465q54 63 97 94t73.5 43t49 12h20.5q49 0 101.5 -21.5t115.5 -53.5q57 -31 129 -62t166 -43q16 0 33.5 -1t34.5 -3q28 -24 36.5 -41.5t8.5 -30.5q0 -10 -11.5 -28.5t-46.5 -40.5l-59 4q-105 0 -204 -48t-197 -106q-74 -41 -181.5 -81t-224.5 -58v143
q98 19 189.5 52.5t144.5 66.5q51 29 100 56.5t103 52.5l-86 43q-41 20 -75 34.5t-67 14.5t-67.5 -19.5t-73.5 -68.5q-39 -21 -68 -21q-24 0 -39.5 16.5t-15.5 41.5q0 24 14 53zM199 -360q26 32 63 32q29 0 64 -24q47 -35 47 -68t-47 -74q-29 -16 -44.5 -20t-21.5 -4
q-22 0 -61 16q-27 33 -27 66q0 2 1 21.5t26 54.5z" />
    <glyph glyph-name="uniFEA0" unicode="&#x62c;" horiz-adv-x="942" arabic-form="medial" 
d="M946 0q-96 0 -168.5 5t-132 23.5t-109 52.5t-94.5 93l-26 -16q-88 -49 -173 -92t-177 -60q-31 -6 -66 -6v141h21.5t21.5 4q72 11 147.5 49.5t153.5 86.5q49 28 99.5 56t103.5 52q-25 10 -46.5 21.5t-43.5 21.5q-41 21 -77 36t-71 15t-70.5 -18.5t-74.5 -67.5
q-47 -24 -72 -24q-16 0 -29.5 10t-13.5 49q0 23 6 53q54 66 97 96.5t75 43.5q37 14 68 12q51 0 105.5 -23.5t119.5 -56.5q60 -31 133.5 -61.5t167.5 -42.5h2q6 0 24.5 -10.5t35.5 -30.5q18 -21 20 -36.5t2 -17.5q0 -22 -28 -51l-60 4q-63 0 -124.5 -19.5t-123.5 -47.5
q35 -37 72 -56.5t77 -30t84 -12.5t93 -2h51v-143zM199 -360q26 32 63 32q29 0 64 -24q47 -35 47 -68t-47 -74q-29 -16 -44.5 -20t-21.5 -4q-22 0 -61 16q-27 33 -27 66q0 2 1 21.5t26 54.5z" />
    <glyph glyph-name="uniFEA2" unicode="&#x62d;" horiz-adv-x="1157" arabic-form="final" 
d="M1161 0q-53 0 -111.5 15.5t-115.5 47.5q-60 35 -111 89.5t-88 134.5q-43 -19 -87 -41.5t-89 -46.5q-123 -70 -208 -169.5t-132 -209.5q-33 -72 -43 -131.5t-10 -102.5q0 -14 1 -28.5t3 -28.5q8 -68 37 -129.5t82 -108.5q55 -53 138 -89t200 -50q57 -6 116 -6
q80 0 195 16.5t262 81.5q129 58 251 149t222 220q35 14 64 14q51 0 51 -61q0 -8 -1 -18.5t-3 -20.5q-113 -143 -247 -245.5t-282 -166.5q-165 -71 -293 -90.5t-221 -19.5q-34 0 -67 2t-66 6q-141 16 -243.5 62t-174.5 114q-71 66 -110 147.5t-49 174.5q-2 18 -3 36.5
t-1 38.5q0 54 11 125.5t50 163.5q57 131 157.5 248t241.5 196q105 60 200 99t173 67l60 23q-68 27 -127.5 39t-112.5 16h-35q-57 0 -110.5 -11t-94.5 -36q-55 -33 -65 -55v-4q0 -15 14 -35v-12q0 -48 -23.5 -61t-54.5 -13q-8 0 -17 1t-20 3q-41 59 -41 113q0 26 11 57
q28 72 125 129q57 33 127.5 50.5t142.5 17.5h22.5t24.5 -2q80 -5 169 -28.5t194 -70.5q55 -28 66 -52t11 -38q0 -24 -12 -45q-16 -37 -70.5 -62.5t-134.5 -54.5l-43 -16q27 -53 62 -91t76 -63q79 -43 157 -43v-141v0z" />
    <glyph glyph-name="uniFEA3" unicode="&#x62d;" horiz-adv-x="981" arabic-form="initial" 
d="M59 465q54 63 97 94t73.5 43t49 12h20.5q49 0 101.5 -21.5t115.5 -53.5q57 -31 129 -62t166 -43q16 0 33.5 -1t34.5 -3q28 -24 36.5 -41.5t8.5 -30.5q0 -10 -11.5 -28.5t-46.5 -40.5l-59 4q-105 0 -204 -48t-197 -106q-74 -41 -181.5 -81t-224.5 -58v143
q98 19 189.5 52.5t144.5 66.5q51 29 100 56.5t103 52.5l-86 43q-41 20 -75 34.5t-67 14.5t-67.5 -19.5t-73.5 -68.5q-39 -21 -68 -21q-24 0 -39.5 16.5t-15.5 41.5q0 24 14 53z" />
    <glyph glyph-name="uniFEA4" unicode="&#x62d;" horiz-adv-x="944" arabic-form="medial" 
d="M946 0q-96 0 -168.5 5t-132 23.5t-109 52.5t-94.5 93l-26 -16q-88 -49 -173 -92t-177 -60q-31 -6 -66 -6v141h21.5t21.5 4q72 11 147.5 49.5t153.5 86.5q49 28 99.5 56t103.5 52q-25 10 -46.5 21.5t-43.5 21.5q-41 21 -77 36t-71 15t-70.5 -18.5t-74.5 -67.5
q-47 -24 -72 -24q-16 0 -29.5 10t-13.5 49q0 23 6 53q54 66 97 96.5t75 43.5q37 14 68 12q51 0 105.5 -23.5t119.5 -56.5q60 -31 133.5 -61.5t167.5 -42.5h2q6 0 24.5 -10.5t35.5 -30.5q18 -21 20 -36.5t2 -17.5q0 -22 -28 -51l-60 4q-63 0 -124.5 -19.5t-123.5 -47.5
q35 -37 72 -56.5t77 -30t84 -12.5t93 -2h51v-143v0z" />
    <glyph glyph-name="uniFEA6" unicode="&#x62e;" horiz-adv-x="1157" arabic-form="final" 
d="M1161 0q-53 0 -111.5 15.5t-115.5 47.5q-60 35 -111 89.5t-88 134.5q-43 -19 -87 -41.5t-89 -46.5q-123 -70 -208 -169.5t-132 -209.5q-33 -72 -43 -131.5t-10 -102.5q0 -14 1 -28.5t3 -28.5q8 -68 37 -129.5t82 -108.5q55 -53 138 -89t200 -50q57 -6 116 -6
q80 0 195 16.5t262 81.5q129 58 251 149t222 220q35 14 64 14q51 0 51 -61q0 -8 -1 -18.5t-3 -20.5q-113 -143 -247 -245.5t-282 -166.5q-165 -71 -293 -90.5t-221 -19.5q-34 0 -67 2t-66 6q-141 16 -243.5 62t-174.5 114q-71 66 -110 147.5t-49 174.5q-2 18 -3 36.5
t-1 38.5q0 54 11 125.5t50 163.5q57 131 157.5 248t241.5 196q105 60 200 99t173 67l60 23q-68 27 -127.5 39t-112.5 16h-35q-57 0 -110.5 -11t-94.5 -36q-55 -33 -65 -55v-4q0 -15 14 -35v-12q0 -48 -23.5 -61t-54.5 -13q-8 0 -17 1t-20 3q-41 59 -41 113q0 26 11 57
q28 72 125 129q57 33 127.5 50.5t142.5 17.5h22.5t24.5 -2q80 -5 169 -28.5t194 -70.5q55 -28 66 -52t11 -38q0 -24 -12 -45q-16 -37 -70.5 -62.5t-134.5 -54.5l-43 -16q27 -53 62 -91t76 -63q79 -43 157 -43v-141zM551 1237q27 33 63 33q29 0 64 -25q47 -35 47 -67
q0 -33 -47 -74q-29 -17 -44.5 -21t-21.5 -4q-22 0 -61 17q-27 32 -27 65q0 2 1 21.5t26 54.5z" />
    <glyph glyph-name="uniFEA7" unicode="&#x62e;" horiz-adv-x="975" arabic-form="initial" 
d="M59 465q54 63 97 94t73.5 43t49 12h20.5q49 0 101.5 -21.5t115.5 -53.5q57 -31 129 -62t166 -43q16 0 33.5 -1t34.5 -3q28 -24 36.5 -41.5t8.5 -30.5q0 -10 -11.5 -28.5t-46.5 -40.5l-59 4q-105 0 -204 -48t-197 -106q-74 -41 -181.5 -81t-224.5 -58v143
q98 19 189.5 52.5t144.5 66.5q51 29 100 56.5t103 52.5l-86 43q-41 20 -75 34.5t-67 14.5t-67.5 -19.5t-73.5 -68.5q-39 -21 -68 -21q-24 0 -39.5 16.5t-15.5 41.5q0 24 14 53zM264 1016q27 33 64 33q28 0 63 -25q47 -35 47 -68q0 -32 -47 -73q-29 -17 -44 -21t-21 -4
q-23 0 -62 16q-26 33 -26 66q0 2 1 21.5t25 54.5z" />
    <glyph glyph-name="uniFEA8" unicode="&#x62e;" horiz-adv-x="942" arabic-form="medial" 
d="M946 0q-96 0 -168.5 5t-132 23.5t-109 52.5t-94.5 93l-26 -16q-88 -49 -173 -92t-177 -60q-31 -6 -66 -6v141h21.5t21.5 4q72 11 147.5 49.5t153.5 86.5q49 28 99.5 56t103.5 52q-25 10 -46.5 21.5t-43.5 21.5q-41 21 -77 36t-71 15t-70.5 -18.5t-74.5 -67.5
q-47 -24 -72 -24q-16 0 -29.5 10t-13.5 49q0 23 6 53q54 66 97 96.5t75 43.5q37 14 68 12q51 0 105.5 -23.5t119.5 -56.5q60 -31 133.5 -61.5t167.5 -42.5h2q6 0 24.5 -10.5t35.5 -30.5q18 -21 20 -36.5t2 -17.5q0 -22 -28 -51l-60 4q-63 0 -124.5 -19.5t-123.5 -47.5
q35 -37 72 -56.5t77 -30t84 -12.5t93 -2h51v-143zM293 940q26 33 63 33q29 0 64 -25q47 -35 47 -67q0 -33 -47 -74q-29 -16 -44.5 -20.5t-21.5 -4.5q-22 0 -61 17q-27 32 -27 65q0 2 1 21.5t26 54.5z" />
    <glyph glyph-name="uniFEAA" unicode="&#x62f;" horiz-adv-x="928" arabic-form="final" 
d="M932 0q-60 0 -132.5 6t-137.5 29q-48 16 -86.5 40.5t-65.5 63.5q-98 -86 -206.5 -133t-207.5 -47q-61 31 -61 66q0 34 61 75q74 0 162 40t166 112q63 59 108.5 140t55.5 179q45 64 80 64h6t14 -2q19 0 41 -78q-10 -86 -40 -159.5t-75 -139.5q4 -35 30 -55.5t63 -32.5
q51 -16 111.5 -21.5t113.5 -5.5v-141v0z" />
    <glyph glyph-name="uniFEAC" unicode="&#x630;" horiz-adv-x="928" arabic-form="final" 
d="M932 0q-60 0 -132.5 6t-137.5 29q-48 16 -86.5 40.5t-65.5 63.5q-98 -86 -206.5 -133t-207.5 -47q-61 31 -61 66q0 34 61 75q74 0 162 40t166 112q63 59 108.5 140t55.5 179q45 64 80 64h6t14 -2q19 0 41 -78q-10 -86 -40 -159.5t-75 -139.5q4 -35 30 -55.5t63 -32.5
q51 -16 111.5 -21.5t113.5 -5.5v-141zM551 1237q27 33 63 33q29 0 64 -25q47 -35 47 -67q0 -33 -47 -74q-29 -17 -44.5 -21t-21.5 -4q-22 0 -61 17q-27 32 -27 65q0 2 1 21.5t26 54.5z" />
    <glyph glyph-name="uniFEAE" unicode="&#x631;" horiz-adv-x="1118" arabic-form="final" 
d="M1044 233v-14t8.5 -30.5t24 -31t45.5 -14.5v-143q-61 0 -93 16.5t-47 36t-17 36.5t-2 20q-60 -76 -150 -163t-201 -163q-116 -80 -245 -135.5t-258 -57.5q-56 29 -77.5 52.5t-15.5 27.5q0 13 16.5 28t73.5 34q107 2 216.5 49t209.5 117q64 45 120.5 92t102.5 93t80.5 88
t57.5 73q37 57 67.5 81.5t32.5 16.5q17 0 31 -20.5t20 -88.5z" />
    <glyph glyph-name="uniFEB0" unicode="&#x632;" horiz-adv-x="1122" arabic-form="final" 
d="M1044 233v-14t8.5 -30.5t24 -31t45.5 -14.5v-143q-61 0 -93 16.5t-47 36t-17 36.5t-2 20q-60 -76 -150 -163t-201 -163q-116 -80 -245 -135.5t-258 -57.5q-56 29 -77.5 52.5t-15.5 27.5q0 13 16.5 28t73.5 34q107 2 216.5 49t209.5 117q64 45 120.5 92t102.5 93t80.5 88
t57.5 73q37 57 67.5 81.5t32.5 16.5q17 0 31 -20.5t20 -88.5zM924 766q26 33 63 33q29 0 64 -25q47 -35 47 -67q0 -33 -47 -74q-29 -17 -44.5 -21t-21.5 -4q-22 0 -61 17q-27 32 -27 65q0 2 1 21.5t26 54.5z" />
    <glyph glyph-name="uniFEB2" unicode="&#x633;" horiz-adv-x="2886" arabic-form="final" 
d="M2892 0q-56 4 -110 16.5t-103 34.5q-125 51 -189 146q-18 -19 -36 -31q-84 -60 -181 -60q-18 0 -28 3q-9 -7 -16 -13t-17 -12q-49 -35 -96.5 -46t-81.5 -11q-15 0 -27 1t-25 3q-6 0 -8 2q-69 -39 -155 -39q-21 -234 -87.5 -420t-164 -330.5t-218 -247t-251.5 -167.5
q-99 -48 -194 -76.5t-187 -38.5q-60 -6 -111 -6q-37 0 -98.5 5t-138.5 27q-142 46 -231 141t-95 236q-2 11 -2 20v19q0 33 6 77t23 97q41 135 131 251t213 208t262 144.5t287 60.5h38q103 0 211 -29q39 -33 39 -63q0 -2 -1 -7.5t-3 -15.5q-4 -18 -76 -49q-84 25 -163 25h-19
t-18 -2q-125 -7 -247 -54t-228 -125q-105 -77 -180.5 -175.5t-110.5 -209.5q-23 -84 -23 -153v-13q4 -92 66.5 -154.5t163.5 -92.5q92 -29 192 -29q43 0 96 6q82 10 165 35t169 65q127 64 244 168.5t207 253t144 344t57 441.5q47 73 67 78q10 2 14.5 2h6.5q32 0 53 -82v-23
q53 0 100 33q62 41 82 123q0 4 1 7t1 7q21 19 39 30t37 11q37 0 63 -63l-4 -23q-4 -16 -9 -32.5t-13 -32.5l8 6q61 41 82 123q0 4 1 6t1 6q45 39 74 39q8 0 26.5 -9.5t38.5 -52.5l-4 -20l-8 -29q8 4 15 8t14 9q61 41 82 122q0 5 1 8t1 7q45 39 79 39h6.5t14.5 -2
q20 -2 39 -60q0 -6 -1 -11t-3 -11t-3 -13.5t-5 -13.5h2q4 -55 45 -97t102 -69q37 -16 78 -25.5t82 -13.5v-141v0z" />
    <glyph glyph-name="uniFEB3" unicode="&#x633;" horiz-adv-x="2038" arabic-form="initial" 
d="M1927 848q-4 0 -53 -28.5t-115 -88.5q-47 -45 -115.5 -100.5t-155.5 -116.5t-191.5 -124.5t-221.5 -125.5q-121 -61 -249 -110.5t-257 -84t-254 -53t-239 -18.5h-39.5t-36.5 2v141h53q109 0 228.5 18.5t242.5 52.5t245 81t239 106q114 58 216.5 119.5t188.5 120.5
t152.5 112.5t111.5 94.5q80 76 145.5 109.5t104.5 33.5q49 -35 49 -65l1 -6.5t-3 -15.5t-14 -22.5t-33 -31.5z" />
    <glyph glyph-name="uniFEB4" unicode="&#x633;" horiz-adv-x="991" arabic-form="medial" 
d="M862 37q-14 12 -26.5 21.5t-22.5 25.5q-8 -8 -17.5 -13t-17.5 -14q-30 -24 -50.5 -36.5t-35 -16.5t-22.5 -3t-15 1q-26 0 -47.5 9t-37 22.5t-23.5 27t-8 19.5v4q-4 -4 -20.5 -15.5t-39 -23.5t-51.5 -22.5t-57 -10.5q-2 0 -23.5 1t-50.5 38q-16 -8 -34.5 -15t-37.5 -11
q-51 -17 -96 -22t-80 -5h-22.5t-22.5 2h-4v141h92t85 12.5t75 43t61 92.5q27 26 45.5 39.5t29.5 17.5t17.5 4h8.5q35 0 47 -65q-4 -19 -19.5 -51.5t-33.5 -57.5l-19 -24l60 -7h4q14 0 34.5 19.5t41 47.5t36 57.5t19.5 52.5q0 8 7 12t16 7t16.5 4t9.5 1q22 0 34.5 -13.5
t12.5 -31.5q0 -14 -6 -38.5t-37 -74.5q-10 -10 -12 -30v-2q0 -6 19.5 -10.5t25.5 -4.5q12 0 27.5 3t29.5 16q33 28 47 60t21 73q0 29 23.5 43t49.5 14q2 0 11.5 -1t18.5 -6t17.5 -15.5t8.5 -28.5q0 -14 -6 -35l-7 -31q4 -51 24.5 -68.5t55.5 -21.5v-143q-98 6 -129 37z" />
    <glyph glyph-name="uniFEB6" unicode="&#x634;" horiz-adv-x="2886" arabic-form="final" 
d="M2892 0q-56 4 -110 16.5t-103 34.5q-125 51 -189 146q-18 -19 -36 -31q-84 -60 -181 -60q-18 0 -28 3q-9 -7 -16 -13t-17 -12q-49 -35 -96.5 -46t-81.5 -11q-15 0 -27 1t-25 3q-6 0 -8 2q-69 -39 -155 -39q-21 -234 -87.5 -420t-164 -330.5t-218 -247t-251.5 -167.5
q-99 -48 -194 -76.5t-187 -38.5q-60 -6 -111 -6q-37 0 -98.5 5t-138.5 27q-142 46 -231 141t-95 236q-2 11 -2 20v19q0 33 6 77t23 97q41 135 131 251t213 208t262 144.5t287 60.5h38q103 0 211 -29q39 -33 39 -63q0 -2 -1 -7.5t-3 -15.5q-4 -18 -76 -49q-84 25 -163 25h-19
t-18 -2q-125 -7 -247 -54t-228 -125q-105 -77 -180.5 -175.5t-110.5 -209.5q-23 -84 -23 -153v-13q4 -92 66.5 -154.5t163.5 -92.5q92 -29 192 -29q43 0 96 6q82 10 165 35t169 65q127 64 244 168.5t207 253t144 344t57 441.5q47 73 67 78q10 2 14.5 2h6.5q32 0 53 -82v-23
q53 0 100 33q62 41 82 123q0 4 1 7t1 7q21 19 39 30t37 11q37 0 63 -63l-4 -23q-4 -16 -9 -32.5t-13 -32.5l8 6q61 41 82 123q0 4 1 6t1 6q45 39 74 39q8 0 26.5 -9.5t38.5 -52.5l-4 -20l-8 -29q8 4 15 8t14 9q61 41 82 122q0 5 1 8t1 7q45 39 79 39h6.5t14.5 -2
q20 -2 39 -60q0 -6 -1 -11t-3 -11t-3 -13.5t-5 -13.5h2q4 -55 45 -97t102 -69q37 -16 78 -25.5t82 -13.5v-141zM1978 1204q185 0 288.5 -16.5t150.5 -42.5q49 -29 57 -54.5t8 -39.5q0 -25 -12 -52q-29 -53 -100 -92q-48 -28 -115.5 -54t-142 -45.5t-150.5 -30.5t-139 -11
q-64 27 -68 47q-2 10 -2 15.5v7.5q0 32 70 71q55 0 121.5 10.5t132 27t124 39t99.5 46.5l12 6q-43 13 -124 20t-210 7q-26 18 -38.5 31.5t-17.5 22.5t-4 15.5t1 8.5q0 28 59 63z" />
    <glyph glyph-name="uniFEB7" unicode="&#x634;" horiz-adv-x="2021" arabic-form="initial" 
d="M1927 848q-4 0 -53 -28.5t-115 -88.5q-47 -45 -115.5 -100.5t-155.5 -116.5t-191.5 -124.5t-221.5 -125.5q-121 -61 -249 -110.5t-257 -84t-254 -53t-239 -18.5h-39.5t-36.5 2v141h53q109 0 228.5 18.5t242.5 52.5t245 81t239 106q114 58 216.5 119.5t188.5 120.5
t152.5 112.5t111.5 94.5q80 76 145.5 109.5t104.5 33.5q49 -35 49 -65l1 -6.5t-3 -15.5t-14 -22.5t-33 -31.5zM725 1571q184 0 287.5 -16.5t150.5 -43.5q49 -28 57.5 -53.5t8.5 -40.5q0 -24 -12 -51q-29 -53 -101 -92q-47 -29 -114.5 -54.5t-142.5 -45t-150.5 -30.5
t-139.5 -11q-63 26 -67 47q-2 10 -2 15v7q0 33 69 72q56 0 122.5 10t132 26.5t124 39t99.5 47.5l12 6q-43 12 -124 19.5t-210 7.5q-27 18 -39 31.5t-17 22.5t-4 15t1 8q0 29 59 64z" />
    <glyph glyph-name="uniFEB8" unicode="&#x634;" horiz-adv-x="989" arabic-form="medial" 
d="M862 37q-14 12 -26.5 21.5t-22.5 25.5q-8 -8 -17.5 -13t-17.5 -14q-30 -24 -50.5 -36.5t-35 -16.5t-22.5 -3t-15 1q-26 0 -47.5 9t-37 22.5t-23.5 27t-8 19.5v4q-4 -4 -20.5 -15.5t-39 -23.5t-51.5 -22.5t-57 -10.5q-2 0 -23.5 1t-50.5 38q-16 -8 -34.5 -15t-37.5 -11
q-51 -17 -96 -22t-80 -5h-22.5t-22.5 2h-4v141h92t85 12.5t75 43t61 92.5q27 26 45.5 39.5t29.5 17.5t17.5 4h8.5q35 0 47 -65q-4 -19 -19.5 -51.5t-33.5 -57.5l-19 -24l60 -7h4q14 0 34.5 19.5t41 47.5t36 57.5t19.5 52.5q0 8 7 12t16 7t16.5 4t9.5 1q22 0 34.5 -13.5
t12.5 -31.5q0 -14 -6 -38.5t-37 -74.5q-10 -10 -12 -30v-2q0 -6 19.5 -10.5t25.5 -4.5q12 0 27.5 3t29.5 16q33 28 47 60t21 73q0 29 23.5 43t49.5 14q2 0 11.5 -1t18.5 -6t17.5 -15.5t8.5 -28.5q0 -14 -6 -35l-7 -31q4 -51 24.5 -68.5t55.5 -21.5v-143q-98 6 -129 37z
M397 1319q185 0 288 -16.5t151 -42.5q49 -29 57 -54.5t8 -40.5q0 -24 -12 -51q-29 -53 -101 -92q-47 -29 -114.5 -54.5t-142 -45t-150.5 -30.5t-139 -11q-64 26 -68 47q-2 10 -2 15v7q0 33 70 72q55 0 121.5 10t132 26.5t124 39t99.5 47.5l12 6q-43 12 -124 19.5t-210 7.5
q-26 18 -38.5 31.5t-17.5 22.5t-4 15t1 8q0 29 59 64z" />
    <glyph glyph-name="uniFEBA" unicode="&#x635;" horiz-adv-x="3111" arabic-form="final" 
d="M3023 4q-164 6 -260 33q-15 -2 -27 -3t-24 -1q-39 0 -66 8q-59 14 -99 46t-69 73q-80 -324 -214 -576t-301 -439t-355.5 -311t-376.5 -190q-129 -45 -235.5 -61.5t-194.5 -16.5h-29t-29 2q-235 13 -399 125q-141 99 -192 224q-50 125 -50 235q0 86 21 176q39 180 175 346
t372 285q192 98 416.5 143t457.5 45q37 0 75 -1t77 -3q63 -32 63 -69q0 -35 -71 -72q-39 2 -77 3t-75 1q-211 0 -417 -40t-386 -132q-205 -104 -322.5 -245.5t-150.5 -288.5q-16 -82 -16 -142q0 -43 8 -89t28.5 -91t54.5 -88t87 -80q139 -92 330 -100q14 -2 27.5 -2h27.5
q182 0 377 69q186 64 374.5 193t350.5 327.5t286.5 468t186.5 615.5l20 125l95 -84q16 -12 24 -30.5t19 -43.5q6 -16 14 -34.5t18 -39.5q27 132 215 326l39 41q53 49 108.5 87t108.5 60q49 21 105 21q6 0 17 1t28.5 -3t39 -15.5t46.5 -35.5l6 -8q35 -35 49 -76t14 -86
q0 -62 -26.5 -124.5t-73.5 -121.5q-88 -111 -217 -195v-2h82v-143h-47.5t-42.5 4zM2714 215q14 -20 53 -37q43 10 91 31.5t95 52.5q53 35 100.5 77t84.5 89q32 41 50.5 82t20.5 76q0 39 -26 65l-2 2q-15 15 -35 15h-13l-41 -13q-86 -34 -167 -116l-37 -35
q-56 -60 -90.5 -102t-55 -73.5t-28 -53t-7.5 -35.5q0 -17 7 -25z" />
    <glyph glyph-name="uniFEBB" unicode="&#x635;" horiz-adv-x="1239" arabic-form="initial" 
d="M297 72q4 14 12 26q-22 25 -37.5 50.5t-27.5 50.5q-15 -35 -35.5 -69t-49 -62.5t-68.5 -47t-91 -20.5v160q37 4 63.5 23.5t48 49t42 66.5t47.5 76l43 67q16 -12 30.5 -25.5t30.5 -27.5q14 -12 23.5 -30.5t19.5 -43.5q6 -16 14.5 -34.5t18.5 -36.5q72 135 143.5 231
t137.5 160q53 49 101 78.5t93 46.5q53 16 92 16q45 0 86 -18q35 -17 60 -43q34 -35 48.5 -76t14.5 -86q0 -61 -27.5 -123.5t-72.5 -122.5q-88 -110 -217 -194q-99 -64 -179.5 -88.5t-136.5 -24.5q-39 0 -69 8l-29 8v-2zM758 532q-62 -59 -130.5 -152t-140.5 -235
q19 -6 41 -6q39 0 99.5 21.5t134.5 68.5q110 72 182 166q33 41 52.5 82t19.5 76q0 41 -25 65q-4 5 -8 7l-8 4q-12 6 -29 6q-22 0 -45 -8q-31 -11 -66.5 -33.5t-76.5 -61.5z" />
    <glyph glyph-name="uniFEBC" unicode="&#x635;" horiz-adv-x="1233" arabic-form="medial" 
d="M1233 2q-135 -43 -225 -54t-160 -11q-27 0 -77 2t-148 8q-15 -2 -27 -3t-25 -1q-39 0 -65 8q-86 20 -134 76.5t-77 113.5q-23 -39 -58.5 -65.5t-75.5 -44t-80 -24.5t-67 -7h-14v170q6 -2 20 -2q21 0 55 9t67.5 28.5t63.5 47.5t46 64q8 19 20.5 35.5t22.5 32.5
q16 -12 30.5 -25.5t30.5 -27.5q17 -13 25 -31t18 -43q7 -16 15 -34.5t18 -39.5q29 135 213 326h2q10 12 19.5 22.5t19.5 18.5q53 49 107.5 87t107.5 60q49 21 107 21q6 0 17 1t28.5 -3t39 -15.5t46.5 -35.5l6 -9q35 -34 49 -75t14 -86q0 -62 -26.5 -124.5t-73.5 -121.5
q-88 -111 -217 -195l-2 -2q61 6 110.5 15.5t89 22.5t74.5 30.5t70 40.5v-160zM573 125q13 -21 54 -37q43 10 91 31.5t95 52.5q111 72 182 166q72 84 72 158q0 41 -25 65l-2 2q-16 12 -39 12q-18 0 -49 -10q-84 -35 -170 -116l-34 -35q-56 -60 -90.5 -102t-55 -73.5t-28 -53
t-7.5 -35.5q0 -17 6 -25z" />
    <glyph glyph-name="uniFEBE" unicode="&#x636;" horiz-adv-x="3113" arabic-form="final" 
d="M3023 4q-164 6 -260 33q-15 -2 -27 -3t-24 -1q-39 0 -66 8q-59 14 -99 46t-69 73q-80 -324 -214 -576t-301 -439t-355.5 -311t-376.5 -190q-129 -45 -235.5 -61.5t-194.5 -16.5h-29t-29 2q-235 13 -399 125q-141 99 -192 224q-50 125 -50 235q0 86 21 176q39 180 175 346
t372 285q192 98 416.5 143t457.5 45q37 0 75 -1t77 -3q63 -32 63 -69q0 -35 -71 -72q-39 2 -77 3t-75 1q-211 0 -417 -40t-386 -132q-205 -104 -322.5 -245.5t-150.5 -288.5q-16 -82 -16 -142q0 -43 8 -89t28.5 -91t54.5 -88t87 -80q139 -92 330 -100q14 -2 27.5 -2h27.5
q182 0 377 69q186 64 374.5 193t350.5 327.5t286.5 468t186.5 615.5l20 125l95 -84q16 -12 24 -30.5t19 -43.5q6 -16 14 -34.5t18 -39.5q27 132 215 326l39 41q53 49 108.5 87t108.5 60q49 21 105 21q6 0 17 1t28.5 -3t39 -15.5t46.5 -35.5l6 -8q35 -35 49 -76t14 -86
q0 -62 -26.5 -124.5t-73.5 -121.5q-88 -111 -217 -195v-2h82v-143h-47.5t-42.5 4zM2714 215q14 -20 53 -37q43 10 91 31.5t95 52.5q53 35 100.5 77t84.5 89q32 41 50.5 82t20.5 76q0 39 -26 65l-2 2q-15 15 -35 15h-13l-41 -13q-86 -34 -167 -116l-37 -35
q-56 -60 -90.5 -102t-55 -73.5t-28 -53t-7.5 -35.5q0 -17 7 -25zM2671 1122q26 33 63 33q29 0 64 -25q47 -34 47 -67t-47 -74q-29 -16 -44.5 -20t-21.5 -4q-22 0 -61 16q-27 33 -27 66q0 2 1 21t26 54z" />
    <glyph glyph-name="uniFEBF" unicode="&#x636;" horiz-adv-x="1227" arabic-form="initial" 
d="M297 72q4 14 12 26q-22 25 -37.5 50.5t-27.5 50.5q-15 -35 -35.5 -69t-49 -62.5t-68.5 -47t-91 -20.5v160q37 4 63.5 23.5t48 49t42 66.5t47.5 76l43 67q16 -12 30.5 -25.5t30.5 -27.5q14 -12 23.5 -30.5t19.5 -43.5q6 -16 14.5 -34.5t18.5 -36.5q72 135 143.5 231
t137.5 160q53 49 101 78.5t93 46.5q53 16 92 16q45 0 86 -18q35 -17 60 -43q34 -35 48.5 -76t14.5 -86q0 -61 -27.5 -123.5t-72.5 -122.5q-88 -110 -217 -194q-99 -64 -179.5 -88.5t-136.5 -24.5q-39 0 -69 8l-29 8v-2zM758 532q-62 -59 -130.5 -152t-140.5 -235
q19 -6 41 -6q39 0 99.5 21.5t134.5 68.5q110 72 182 166q33 41 52.5 82t19.5 76q0 41 -25 65q-4 5 -8 7l-8 4q-12 6 -29 6q-22 0 -45 -8q-31 -11 -66.5 -33.5t-76.5 -61.5zM752 1069q26 33 63 33q29 0 64 -25q47 -35 47 -67q0 -33 -47 -74q-29 -16 -44.5 -20.5t-21.5 -4.5
q-22 0 -61 17q-27 33 -27 65q0 2 1 21.5t26 54.5z" />
    <glyph glyph-name="uniFEC0" unicode="&#x636;" horiz-adv-x="1227" arabic-form="medial" 
d="M1233 2q-135 -43 -225 -54t-160 -11q-27 0 -77 2t-148 8q-15 -2 -27 -3t-25 -1q-39 0 -65 8q-86 20 -134 76.5t-77 113.5q-23 -39 -58.5 -65.5t-75.5 -44t-80 -24.5t-67 -7h-14v170q6 -2 20 -2q21 0 55 9t67.5 28.5t63.5 47.5t46 64q8 19 20.5 35.5t22.5 32.5
q16 -12 30.5 -25.5t30.5 -27.5q17 -13 25 -31t18 -43q7 -16 15 -34.5t18 -39.5q29 135 213 326h2q10 12 19.5 22.5t19.5 18.5q53 49 107.5 87t107.5 60q49 21 107 21q6 0 17 1t28.5 -3t39 -15.5t46.5 -35.5l6 -9q35 -34 49 -75t14 -86q0 -62 -26.5 -124.5t-73.5 -121.5
q-88 -111 -217 -195l-2 -2q61 6 110.5 15.5t89 22.5t74.5 30.5t70 40.5v-160zM573 125q13 -21 54 -37q43 10 91 31.5t95 52.5q111 72 182 166q72 84 72 158q0 41 -25 65l-2 2q-16 12 -39 12q-18 0 -49 -10q-84 -35 -170 -116l-34 -35q-56 -60 -90.5 -102t-55 -73.5t-28 -53
t-7.5 -35.5q0 -17 6 -25zM752 1069q26 33 63 33q29 0 64 -25q47 -35 47 -67q0 -33 -47 -74q-29 -16 -44.5 -20.5t-21.5 -4.5q-22 0 -61 17q-27 33 -27 65q0 2 1 21.5t26 54.5z" />
    <glyph glyph-name="uniFEC2" unicode="&#x637;" horiz-adv-x="1503" arabic-form="final" 
d="M856 219q2 -2 6 -2q62 23 116 52.5t101 62.5q58 41 102 85t76 87q62 82 64 139v8q0 19 -10 29q-2 0 -2 2q-17 6 -37 6q-33 0 -98.5 -20.5t-169.5 -81.5q-113 -70 -229 -177.5t-208 -250.5q-2 -4 -8 -11q82 7 155.5 24t141.5 42v6zM1100 1276q0 -70 -25.5 -181.5
t-66.5 -234.5q-13 -35 -25 -69.5t-27 -69.5q129 72 207 88t117 16q49 0 88 -16q4 -4 9 -5t9 -5q44 -29 60 -70t16 -84v-18q-10 -97 -92 -207q-37 -51 -90 -103.5t-121 -99.5q-41 -29 -86 -55q12 -6 60.5 -10.5t109.5 -6.5q64 -2 110 -3t68 -1h42.5t39.5 2v-143h-69
q-50 -2 -122.5 1t-152.5 11t-157.5 21.5t-135.5 34.5q-129 -45 -233.5 -56.5t-165.5 -11.5q-49 0 -100.5 4t-104.5 12q-35 4 -49 6.5t-24.5 6.5t-26 10t-51.5 18q-43 17 -54.5 31t-11.5 25q0 10 18.5 29.5t92.5 47.5q49 -16 76.5 -25t49 -13.5t46 -5.5t67.5 -3
q13 25 26 47.5t30 45.5q59 92 126.5 168.5t141.5 142.5q41 67 81 161.5t72 194.5q39 113 62.5 213.5t23.5 159.5q35 35 55.5 39t24.5 4q31 0 62 -43z" />
    <glyph glyph-name="uniFEC3" unicode="&#x637;" horiz-adv-x="1227" arabic-form="initial" 
d="M0 127q57 2 74 16q14 25 26.5 47.5t28.5 45.5q59 92 128 166.5t140 140.5q41 67 81 161.5t75 194.5q37 113 60.5 213t23.5 160q51 71 72 76l15 3t7 1q31 0 47 -80q0 -70 -25.5 -181.5t-66.5 -234.5q-12 -35 -24.5 -69.5t-26.5 -69.5q129 71 207 87.5t116 16.5
q50 0 89 -16q6 -4 11 -5t9 -5q43 -29 58.5 -68t15.5 -80v-20q-8 -99 -90 -211q-39 -51 -92.5 -103.5t-118.5 -99.5q-92 -66 -194.5 -106.5t-209 -63.5t-216 -32t-220.5 -11v127zM246 158q-2 -6 -6 -11q159 13 289 62t229 119q57 41 101 85t77 87q61 82 63 139v12
q0 19 -10 25q-2 0 -2 2q-16 6 -37 6q-32 0 -98 -20.5t-170 -81.5q-113 -70 -228.5 -175.5t-207.5 -248.5z" />
    <glyph glyph-name="uniFEC4" unicode="&#x637;" horiz-adv-x="1171" arabic-form="medial" 
d="M1120 0q-153 0 -292.5 17.5t-268.5 58.5q-43 -17 -104.5 -30t-134 -23.5t-155.5 -16.5t-169 -6v143h47t27 7q14 24 26.5 46.5t28.5 45.5q59 92 128 166.5t140 140.5q41 67 81 161.5t75 194.5q37 113 60.5 213.5t23.5 159.5q51 72 72 76l15 3t7 1q31 0 47 -80
q0 -70 -25.5 -181.5t-66.5 -234.5q-12 -35 -24.5 -69.5t-26.5 -69.5q129 72 206.5 88t116.5 16q50 0 88 -16q7 -4 12 -5t9 -5q43 -29 58.5 -68t15.5 -80v-20q-9 -98 -90 -211q-39 -51 -92.5 -103.5t-118.5 -99.5l-78 -49q16 -10 66 -15t113.5 -8.5t130.5 -3.5h116v-143h-64z
M242 164q-2 -6 -6 -10q159 12 289 61t229 119q57 41 101 85t77 87q61 82 63 139v12q0 19 -10 25q-2 0 -2 2q-16 6 -37 6q-33 0 -98.5 -20.5t-169.5 -81.5q-113 -70 -228.5 -175.5t-207.5 -248.5z" />
    <glyph glyph-name="uniFEC6" unicode="&#x638;" horiz-adv-x="1497" arabic-form="final" 
d="M856 219q2 -2 6 -2q62 23 116 52.5t101 62.5q58 41 102 85t76 87q62 82 64 139v8q0 19 -10 29q-2 0 -2 2q-17 6 -37 6q-33 0 -98.5 -20.5t-169.5 -81.5q-113 -70 -229 -177.5t-208 -250.5q-2 -4 -8 -11q82 7 155.5 24t141.5 42v6zM1100 1276q0 -70 -25.5 -181.5
t-66.5 -234.5q-13 -35 -25 -69.5t-27 -69.5q129 72 207 88t117 16q49 0 88 -16q4 -4 9 -5t9 -5q44 -29 60 -70t16 -84v-18q-10 -97 -92 -207q-37 -51 -90 -103.5t-121 -99.5q-41 -29 -86 -55q12 -6 60.5 -10.5t109.5 -6.5q64 -2 110 -3t68 -1h42.5t39.5 2v-143h-69
q-50 -2 -122.5 1t-152.5 11t-157.5 21.5t-135.5 34.5q-129 -45 -233.5 -56.5t-165.5 -11.5q-49 0 -100.5 4t-104.5 12q-35 4 -49 6.5t-24.5 6.5t-26 10t-51.5 18q-43 17 -54.5 31t-11.5 25q0 10 18.5 29.5t92.5 47.5q49 -16 76.5 -25t49 -13.5t46 -5.5t67.5 -3
q13 25 26 47.5t30 45.5q59 92 126.5 168.5t141.5 142.5q41 67 81 161.5t72 194.5q39 113 62.5 213.5t23.5 159.5q35 35 55.5 39t24.5 4q31 0 62 -43zM1167 1509q27 33 64 33q29 0 63 -24q47 -35 47 -68t-47 -74q-28 -16 -43.5 -20t-21.5 -4q-23 0 -62 16q-26 33 -26 66
q0 2 1 21.5t25 53.5z" />
    <glyph glyph-name="uniFEC7" unicode="&#x638;" horiz-adv-x="1260" arabic-form="initial" 
d="M0 127q57 2 74 16q14 25 26.5 47.5t28.5 45.5q59 92 128 166.5t140 140.5q41 67 81 161.5t75 194.5q37 113 60.5 213t23.5 160q51 71 72 76l15 3t7 1q31 0 47 -80q0 -70 -25.5 -181.5t-66.5 -234.5q-12 -35 -24.5 -69.5t-26.5 -69.5q129 71 207 87.5t116 16.5
q50 0 89 -16q6 -4 11 -5t9 -5q43 -29 58.5 -68t15.5 -80v-20q-8 -99 -90 -211q-39 -51 -92.5 -103.5t-118.5 -99.5q-92 -66 -194.5 -106.5t-209 -63.5t-216 -32t-220.5 -11v127zM246 158q-2 -6 -6 -11q159 13 289 62t229 119q57 41 101 85t77 87q61 82 63 139v12
q0 19 -10 25q-2 0 -2 2q-16 6 -37 6q-32 0 -98 -20.5t-170 -81.5q-113 -70 -228.5 -175.5t-207.5 -248.5zM1036 1374q27 33 64 33q28 0 63 -25q47 -34 47 -67t-47 -74q-28 -16 -43.5 -20t-21.5 -4q-23 0 -62 16q-26 33 -26 65q0 2 1 21.5t25 54.5z" />
    <glyph glyph-name="uniFEC8" unicode="&#x638;" horiz-adv-x="1184" arabic-form="medial" 
d="M1120 0q-153 0 -292.5 17.5t-268.5 58.5q-43 -17 -104.5 -30t-134 -23.5t-155.5 -16.5t-169 -6v143h47t27 7q14 24 26.5 46.5t28.5 45.5q59 92 128 166.5t140 140.5q41 67 81 161.5t75 194.5q37 113 60.5 213.5t23.5 159.5q51 72 72 76l15 3t7 1q31 0 47 -80
q0 -70 -25.5 -181.5t-66.5 -234.5q-12 -35 -24.5 -69.5t-26.5 -69.5q129 72 206.5 88t116.5 16q50 0 88 -16q7 -4 12 -5t9 -5q43 -29 58.5 -68t15.5 -80v-20q-9 -98 -90 -211q-39 -51 -92.5 -103.5t-118.5 -99.5l-78 -49q16 -10 66 -15t113.5 -8.5t130.5 -3.5h116v-143h-64z
M242 164q-2 -6 -6 -10q159 12 289 61t229 119q57 41 101 85t77 87q61 82 63 139v12q0 19 -10 25q-2 0 -2 2q-16 6 -37 6q-33 0 -98.5 -20.5t-169.5 -81.5q-113 -70 -228.5 -175.5t-207.5 -248.5zM922 1272q26 33 63 33q29 0 64 -25q47 -35 47 -68q0 -32 -47 -73
q-29 -17 -44.5 -21t-21.5 -4q-22 0 -61 16q-27 33 -27 66q0 2 1 21.5t26 54.5z" />
    <glyph glyph-name="uniFECA" unicode="&#x639;" horiz-adv-x="1057" arabic-form="final" 
d="M1038 0q-82 0 -147.5 28.5t-118.5 75.5q-14 -10 -28.5 -17t-30.5 -17q-99 -54 -180.5 -119.5t-145.5 -136.5q-129 -148 -166 -297q-20 -82 -20 -156q0 -25 6 -78t47 -112q68 -93 197 -129q86 -23 178 -23q30 0 63 3t68 7q104 15 211.5 53.5t209 98t190.5 140.5t157 181
q57 37 90 37q14 0 24.5 -11t10.5 -42q0 -29 -8 -61q-76 -115 -176.5 -206t-214 -159t-235.5 -111t-239 -59q-78 -12 -151 -12q-111 0 -215 28q-86 23 -157 69t-118 114q-30 43 -45.5 84t-24 76.5t-9.5 64.5t-1 47q0 86 25 188q45 187 199 359q145 164 362 287q8 4 15.5 7
t13.5 7l-19 27q-8 8 -8 14q0 2 2 3t2 3q0 4 -8 6q-92 23 -119.5 54.5t-27.5 60.5q0 14 2 20q4 21 24.5 37.5t52 27.5t70.5 17t78 6q74 -2 143.5 -23.5t98.5 -70.5q14 -26 14 -55q0 -8 -1 -20.5t-8 -29t-24.5 -39t-50.5 -52.5q33 -23 72 -37.5t82 -14.5h12v-143h-23z" />
    <glyph glyph-name="uniFECB" unicode="&#x639;" horiz-adv-x="698" arabic-form="initial" 
d="M307 354q-16 31 -43 31q-39 -6 -65 -39q-27 -27 -27 -51v-6q2 -15 17.5 -28t50.5 -25q16 -5 24 -5q15 0 40.5 6.5t57.5 20.5l60 37q53 29 80 29h12q47 -11 53 -60v-10q0 -39 -39 -66l-32 -20q-21 -14 -60 -31q-4 -4 -10 -6t-10 -6q-62 -41 -115 -65.5t-97 -38t-81 -17.5
t-68 -4q-16 0 -30.5 1t-28.5 3v150q33 -7 67 -7h20t19 3q-34 26 -49.5 58t-19.5 66v19q0 78 61 149q66 72 156 82q6 2 20 2q45 0 89 -23.5t75 -88.5q0 -45 -21.5 -55.5t-43.5 -10.5q-7 0 -22 1t-40 5z" />
    <glyph glyph-name="uniFECC" unicode="&#x639;" horiz-adv-x="678" arabic-form="medial" 
d="M688 4q-86 10 -155.5 48t-126.5 85q-56 -43 -112 -69.5t-108.5 -42t-99.5 -20.5t-86 -5v150q59 0 133 12t164 71l-2 3q-33 30 -55.5 51.5t-28.5 25.5q-4 0 -7 -1t-7 -1q-52 21 -63 40.5t-11 29.5q0 25 35 65q18 9 47 9q31 6 80 11t94 5q10 0 42 -1t79 -15q51 -13 71 -43
q17 -27 17 -54v-15t-6.5 -24.5t-20.5 -37t-43 -52.5q37 -24 79 -44.5t91 -30.5v-150v0z" />
    <glyph glyph-name="uniFECE" unicode="&#x63a;" horiz-adv-x="1051" arabic-form="final" 
d="M1038 0q-82 0 -147.5 28.5t-118.5 75.5q-14 -10 -28.5 -17t-30.5 -17q-99 -54 -180.5 -119.5t-145.5 -136.5q-129 -148 -166 -297q-20 -82 -20 -156q0 -25 6 -78t47 -112q68 -93 197 -129q86 -23 178 -23q30 0 63 3t68 7q104 15 211.5 53.5t209 98t190.5 140.5t157 181
q57 37 90 37q14 0 24.5 -11t10.5 -42q0 -29 -8 -61q-76 -115 -176.5 -206t-214 -159t-235.5 -111t-239 -59q-78 -12 -151 -12q-111 0 -215 28q-86 23 -157 69t-118 114q-30 43 -45.5 84t-24 76.5t-9.5 64.5t-1 47q0 86 25 188q45 187 199 359q145 164 362 287q8 4 15.5 7
t13.5 7l-19 27q-8 8 -8 14q0 2 2 3t2 3q0 4 -8 6q-92 23 -119.5 54.5t-27.5 60.5q0 14 2 20q4 21 24.5 37.5t52 27.5t70.5 17t78 6q74 -2 143.5 -23.5t98.5 -70.5q14 -26 14 -55q0 -8 -1 -20.5t-8 -29t-24.5 -39t-50.5 -52.5q33 -23 72 -37.5t82 -14.5h12v-143h-23zM727 823
q27 33 64 33q28 0 63 -25q47 -34 47 -67t-47 -74q-29 -16 -44 -20t-22 -4q-22 0 -61 16q-27 33 -27 66q0 2 1 21t26 54z" />
    <glyph glyph-name="uniFECF" unicode="&#x63a;" horiz-adv-x="698" arabic-form="initial" 
d="M307 354q-16 31 -43 31q-39 -6 -65 -39q-27 -27 -27 -51v-6q2 -15 17.5 -28t50.5 -25q16 -5 24 -5q15 0 40.5 6.5t57.5 20.5l60 37q53 29 80 29h12q47 -11 53 -60v-10q0 -39 -39 -66l-32 -20q-21 -14 -60 -31q-4 -4 -10 -6t-10 -6q-62 -41 -115 -65.5t-97 -38t-81 -17.5
t-68 -4q-16 0 -30.5 1t-28.5 3v150q33 -7 67 -7h20t19 3q-34 26 -49.5 58t-19.5 66v19q0 78 61 149q66 72 156 82q6 2 20 2q45 0 89 -23.5t75 -88.5q0 -45 -21.5 -55.5t-43.5 -10.5q-7 0 -22 1t-40 5zM219 905q27 33 64 33q28 0 63 -25q47 -34 47 -67t-47 -74
q-29 -16 -44 -20t-21 -4q-23 0 -62 16q-26 33 -26 65q0 2 1 21.5t25 54.5z" />
    <glyph glyph-name="uniFED0" unicode="&#x63a;" horiz-adv-x="684" arabic-form="medial" 
d="M688 4q-86 10 -155.5 48t-126.5 85q-56 -43 -112 -69.5t-108.5 -42t-99.5 -20.5t-86 -5v150q59 0 133 12t164 71l-2 3q-33 30 -55.5 51.5t-28.5 25.5q-4 0 -7 -1t-7 -1q-52 21 -63 40.5t-11 29.5q0 25 35 65q18 9 47 9q31 6 80 11t94 5q10 0 42 -1t79 -15q51 -13 71 -43
q17 -27 17 -54v-15t-6.5 -24.5t-20.5 -37t-43 -52.5q37 -24 79 -44.5t91 -30.5v-150zM328 870q26 33 63 33q29 0 64 -24q47 -35 47 -68t-47 -74q-29 -16 -44.5 -20t-21.5 -4q-22 0 -61 16q-27 33 -27 66q0 2 1 21.5t26 53.5z" />
    <glyph glyph-name="uniFED2" unicode="&#x641;" horiz-adv-x="2228" arabic-form="final" 
d="M2234 0q-92 0 -172 27.5t-141 72.5q-35 -24 -73 -46.5t-81 -41.5q-104 -41 -219.5 -75.5t-238.5 -60.5t-248 -40t-246 -14q-141 2 -264 24.5t-221 71.5q-111 53 -179.5 139t-89.5 209q-8 39 -8 92q0 99 35 226q51 49 86 49q2 0 7 -1t16 -3q18 -2 26 -84
q-28 -105 -28 -185q0 -38 6 -71q14 -86 64 -146.5t126 -99.5q86 -41 193.5 -60.5t230.5 -19.5q113 0 230.5 13.5t234.5 37t226.5 56t205.5 73.5q60 25 109 58q-11 14 -18 26.5t-11 24.5q-23 51 -23 96q0 23 7 45q20 94 131 142q51 24 96 24q43 0 72 -20q49 -31 55 -95v-16
q0 -41 -16 -84q-11 -35 -33.5 -70.5t-55.5 -74.5q43 -27 93.5 -42.5t103.5 -15.5h12v-141zM1110 913q27 33 64 33q28 0 63 -24q47 -35 47 -68t-47 -74q-29 -16 -44 -20t-22 -4q-22 0 -61 16q-27 33 -27 66q0 2 1 21.5t26 53.5z" />
    <glyph glyph-name="uniFED3" unicode="&#x641;" horiz-adv-x="502" arabic-form="initial" 
d="M246 338q-10 -2 -19.5 -2h-17.5q-37 0 -71 7t-58 26q-43 32 -43 86q0 14 2 20q6 45 35 86q39 51 94 82t96 31h10q93 -12 127 -113q15 -37 15 -88q0 -12 -1 -24.5t-3 -26.5q-6 -70 -41 -152q-23 -51 -56.5 -97t-79 -83t-100.5 -60.5t-123 -29.5h-12v141q92 6 151.5 61.5
t90.5 125.5q2 2 2 6q0 2 2 4zM158 1122q26 33 63 33q29 0 64 -25q47 -34 47 -67t-47 -74q-29 -16 -44.5 -20t-21.5 -4q-22 0 -61 16q-27 33 -27 66q0 2 1 21t26 54z" />
    </font>
</defs>
</svg>
